<svg xmlns="http://www.w3.org/2000/svg" width="274.535" height="647.741" viewBox="0 0 274.535 647.741">
  <g id="Grupo_80" data-name="Grupo 80" transform="translate(-1926.785 1787.741)">
    <g id="freepik--speech-bubble--inject-100" transform="translate(1926.785 -1787.741)">
      <g id="freepik--speech-bubble--inject-100-2" data-name="freepik--speech-bubble--inject-100" transform="translate(0)">
        <g id="freepik--speach-bubble--inject-100" transform="translate(0)">
          <path id="Trazado_586" data-name="Trazado 586" d="M148.547,44.294l63.306,36.521a5.572,5.572,0,0,1,2.522,4.379v72.5a5.552,5.552,0,0,1-2.542,4.36l-9.052,5.064a5.67,5.67,0,0,1-5.083,0l-63.287-36.4a5.611,5.611,0,0,1-2.522-4.3V53.756a5.552,5.552,0,0,1,2.542-4.36l9.052-5.1A5.631,5.631,0,0,1,148.547,44.294Z" transform="translate(-131.89 -43.692)" fill="#4984ff"/>
          <path id="Trazado_587" data-name="Trazado 587" d="M207.47,161.653V89.118a5.611,5.611,0,0,0-2.542-4.379L141.642,48.276c-1.388-.8-2.522-.137-2.522,1.466v72.612a5.611,5.611,0,0,0,2.522,4.379L204.929,163.2C206.336,163.92,207.47,163.275,207.47,161.653Z" transform="translate(-139.12 -39.639)" fill="#e62e2e"/>
          <path id="Trazado_588" data-name="Trazado 588" d="M131.89,148.158a5.865,5.865,0,0,0,5.083,0l9.052-5.1a5.455,5.455,0,0,0,2.542-4.34V66.181a5.24,5.24,0,0,0-.8-2.581l-14.1,8.035a5.024,5.024,0,0,1,.762,2.483v72.573C134.432,148.178,133.376,149.018,131.89,148.158Z" transform="translate(-66.081 -24.679)" fill="#bf2626"/>
          <path id="Trazado_589" data-name="Trazado 589" d="M132.29,53.307c.2-1.29,1.251-1.74,2.5-1.017l63.287,36.463a5.2,5.2,0,0,1,1.779,1.955l14.116-8.035a5.3,5.3,0,0,0-1.74-1.8l-63.306-36.58a5.631,5.631,0,0,0-5.064,0l-9.052,5.083A5.572,5.572,0,0,0,132.29,53.307Z" transform="translate(-132.27 -43.692)" fill="#de2c2c"/>
        </g>
        <path id="Trazado_590" data-name="Trazado 590" d="M135.288,77.64l20.353,20.685a2.248,2.248,0,0,1-.391,3.461c-.411.274-14.077,8.114-14.077,8.114l-20.02-24.106Z" transform="translate(-52.803 -11.269)" fill="#4984ff"/>
        <path id="Trazado_591" data-name="Trazado 591" d="M135.288,77.64l20.353,20.685a2.248,2.248,0,0,1-.391,3.461c-.411.274-14.077,8.114-14.077,8.114l-20.02-24.106Z" transform="translate(-52.803 -11.269)" fill="#de2c2c"/>
        <path id="Trazado_592" data-name="Trazado 592" d="M129.873,81.81l20.333,20.685a2.248,2.248,0,0,1-1.955,3.793l-18.378-2.6C127.9,103.688,127.9,81.81,129.873,81.81Z" transform="translate(-61.523 -7.286)" fill="#e62e2e"/>
      </g>
      <path id="Trazado_593" data-name="Trazado 593" d="M188.978,98.5a26.648,26.648,0,0,0-2.7-11.222h0a22.445,22.445,0,0,0-8.114-9.717c-4.731-2.776-8.778.723-10.342,5.963a.508.508,0,0,1-1,0c-1.388-7.156-5.474-15.758-10.342-18.613-3.226-1.955-6.159-1.72-8.172,0h0A10.694,10.694,0,0,0,145.5,72.93c0,11.457,7.918,22.484,14.585,33.941L167.277,118l6.862-2.718C180.884,111.621,188.92,109.979,188.978,98.5Z" transform="translate(-133.043 -24.741)" fill="#fafafa"/>
    </g>
    <g id="freepik--character-1--inject-100" transform="translate(1939.604 -1743.928)">
      <g id="freepik--character--inject-100" transform="translate(0 0)">
        <path id="Trazado_546" data-name="Trazado 546" d="M42.493,74.75c6.256,0,12.122,1.153,16.5,5.416a26.257,26.257,0,0,1,6.941,10.225c2.7,7.156,3.3,16.833,4.986,24.282s4.5,15.093,10.342,20.02c2.268,1.955,5.181,3.754,5.435,6.726a6,6,0,0,1-3.578,5.533,15.347,15.347,0,0,1-6.862,1.114,10.4,10.4,0,0,0,3.206,5.709,7.312,7.312,0,0,1,2.268,6.022c-.645,2.542-3.6,3.734-6.2,4.086a23.774,23.774,0,0,1-22.308-10.44c-7.312-10.245-8.876-25.025-5.865-36.893a79.886,79.886,0,0,0,2.19-16.11c.2-5.2-4.145-13.451-10.909-15.132a4.575,4.575,0,0,1-3.011-4.2c0-1.779-3.148-4.027-1.486-4.634C34.789,76.216,36.217,74.809,42.493,74.75Z" transform="translate(175.018 -57.842)" fill="#263238"/>
        <path id="Trazado_547" data-name="Trazado 547" d="M235.936,115.462s-13.177-3.4-23.324,18.71c-5.65,12.278-26.218,57.167-26.218,57.167s-24.556,1.76-42.328,1.427c-7.82-.156-14.292-1.056-16.09-2.327-3.011-1.544-4.223-4.575-5.24-7.351-1.7-4.673-.665-9.893-.782-11.731-.215-3.363-5.142-1.173-6.608,4.3-1.075,3.91-.411,7.684-1.955,8.466a33.02,33.02,0,0,1-7.077-1.8c-3.245-1.369-9.033-3.519-12.532-1.153a4.379,4.379,0,0,0-1.955,3.558,16.423,16.423,0,0,1-.176,5.865,11.142,11.142,0,0,0-.958,2.815c-.1,1.31.645,2.17.8,3.421.215,1.7-1.369,3.226-1.251,4.946,0,1.251,1.017,2.287,1.271,3.5.176.782,0,1.623.235,2.4a5.494,5.494,0,0,0,3.187,3.285,39.453,39.453,0,0,0,14.9,3.637c4.438.45,10.147,1.075,15.054,1.153,1.623,0,10.362,0,19.962.978,21.017,2.209,51.36,5.005,57.7,1.642,8.759-4.634,37.89-71.068,37.89-71.068C243.991,122.559,235.936,115.462,235.936,115.462Z" transform="translate(-90.236 -19.138)" fill="#ebebeb"/>
        <path id="Trazado_548" data-name="Trazado 548" d="M162.524,151.14c3.109,2.131,3.461,3.226,3.206,4.907s-5.064,2.19-10.206,1.427a33.57,33.57,0,0,1,7.82,2.62,3.324,3.324,0,0,1-1.525,5.65,24.674,24.674,0,0,1-7.82-.43,31.594,31.594,0,0,1,6.237,2.874,2.835,2.835,0,0,1-1.427,4.986,12.943,12.943,0,0,1-4.81,0s4.477,1.329,5.318,2.776a4.36,4.36,0,0,1,.587,2.776,2.952,2.952,0,0,0,.508-4.223,5.083,5.083,0,0,0,3.03-5.572s.606,3.676,5.865,5.865c0,0-4.379-3.91-4.047-8.6s1.271-6-.508-7.605c0,0,1.7-.215,2.366-2.6S164.577,152,162.524,151.14Z" transform="translate(-142.869 15.118)" fill="#e0e0e0"/>
        <path id="Trazado_549" data-name="Trazado 549" d="M130.158,190.891s23.148-54.391,29.874-64.147,13.412-12.454,20-11.242l.606,51.38L153.6,212.827c-3.187,4.458-4.849,7.957-12.4,7.957s-37.147-1.388-46.766-2.542c0,0-3.91-13.842,0-25.905Z" transform="translate(-34.352 -19.179)" fill="#4984ff"/>
        <path id="Trazado_550" data-name="Trazado 550" d="M130.158,190.891s23.148-54.391,29.874-64.147,13.412-12.454,20-11.242l.606,51.38L153.6,212.827c-3.187,4.458-4.849,7.957-12.4,7.957s-37.147-1.388-46.766-2.542c0,0-3.91-13.842,0-25.905Z" transform="translate(-34.352 -19.179)" fill="#fff" opacity="0.6"/>
        <path id="Trazado_551" data-name="Trazado 551" d="M109.81,156.165a31.282,31.282,0,0,1,17.029,3.5s-1.955-5.728-15.074-8.075Z" transform="translate(-14.004 15.548)" opacity="0.15"/>
        <path id="Trazado_552" data-name="Trazado 552" d="M129.215,164.48a130.484,130.484,0,0,1,23.774,45.828c11.4,40.8-2.112,129.193-2.112,129.193.665,5.865,7.82,17.479,11.085,43.638,3.91,30.93-2.327,114.139-2.327,114.139s-8.016,6.354-20.059,1c0,0-25.123-121.314-29.874-152.029-4.145-26.8-12.63-82.486-12.63-82.486L89.8,347.947s1.74,14.761,3.167,26.218c2.268,18.085-17.909,108.664-17.909,108.664s-8.133,4.595-20,.176c0,0-6.041-116.446-8.29-138.226-2.327-22.425-3.03-75.877,0-117.677.938-12.61,6.237-51.576,8.153-62.407Z" transform="translate(76.78 27.859)" fill="#455a64"/>
        <path id="Trazado_553" data-name="Trazado 553" d="M157.619,337.544c1.8-14.292,9.384-32.552,3.4-34.195l-1.466,7.527s-5.259,3.91-16.188,3.148c-10.049-.7-14.39-6.041-14.39-6.041l-.293-5.083c-3.05.88-3.109,3.089-2.151,12.219s1.955,32.67,2.053,39.591c.156,4.868-2.581,11.476-8.426,17.6a123.171,123.171,0,0,1-27.626,21.506c-3.167,1.818-10.694,4.985-8.387,9.619a12.765,12.765,0,0,0,2.913,3.539,27.371,27.371,0,0,0,15.641,5.181h1.818a40.061,40.061,0,0,0,22.914-9.775c3.91-3.91,11.2-9.326,16.384-10.342s12.689-6.217,13.2-9.58a44.108,44.108,0,0,0-.117-12.61c-.176-1.31-.665-4.145-.723-5.983A140.534,140.534,0,0,1,157.619,337.544Z" transform="translate(0.574 160.064)" fill="#263238"/>
        <path id="Trazado_554" data-name="Trazado 554" d="M113.225,231.983l-4.4-25.416A63.247,63.247,0,0,1,78.6,197.73s9.58,12.258,25.416,13.314l2.991,22.718-.352,72.065Z" transform="translate(60.629 59.616)" fill="#37474f"/>
        <path id="Trazado_555" data-name="Trazado 555" d="M75.583,367.924C75.465,356.7,77.538,329.683,77.89,321s-1.779-7.82-1.779-7.82l-.254,5.3s-3.91,3.715-13.686,4.321a31.067,31.067,0,0,1-16.032-2.991c-.411-2.307-1-4.868-1-4.868-2.835,1.681-.489,7.625,3.05,24.067s4.829,16.4,3.206,38.574-2.072,33.53-1.232,39.923l.469.176a34.7,34.7,0,0,0,3.7,11.2c4.868,9.56,15.641,4.047,19.551-1.8a24.243,24.243,0,0,0,5.083-14.272h0v-5.65c-.391-6.667-1.662-10.479-2.5-16.54l-.215-1.955a10.681,10.681,0,0,0-.156-1.329C76.052,387.339,75.7,379.088,75.583,367.924Z" transform="translate(162.77 169.861)" fill="#263238"/>
        <path id="Trazado_556" data-name="Trazado 556" d="M65.821,182.865c.215,7.488,1.232,25.319,1.232,25.319,29.991,21.506,74.1,3.773,74.1,3.773l7.371-43.227s-15.348-22.718.2-45.828l-23.657-5.318L96.438,115.14l-16.364.45c-3.812,7.429-14.6,24.361-17.791,31.946S52.722,166.559,65.821,182.865Z" transform="translate(65.607 -19.266)" fill="#455a64"/>
        <path id="Trazado_557" data-name="Trazado 557" d="M139.985,211.195l7.82-39.454s-21.271-25.807-5.728-48.877l-20.529-4.125c-3.109,8.055-20.92,25.612-39.3,28.114-8.583-8.309-.743-24.673,2.933-31.673l-13.92.371a177.1,177.1,0,0,0-18.71,31.282c-3.265,7.82-9.189,22.5,3.91,38.809.2,7.488-.215,22.405-.215,22.405-5.279,38.359-9.775,69.347-9.56,102.564,67.47,23.637,115.155,7.82,115.155,7.82-1.173-9.775,1.427-30.754-2.307-52.182C154.844,238.781,139.985,211.195,139.985,211.195Z" transform="translate(74.418 -19.228)" fill="#4984ff"/>
        <path id="Trazado_558" data-name="Trazado 558" d="M139.985,211.195l7.82-39.454s-21.271-25.807-5.728-48.877l-20.529-4.125c-3.109,8.055-20.92,25.612-39.3,28.114-8.583-8.309-.743-24.673,2.933-31.673l-13.92.371a177.1,177.1,0,0,0-18.71,31.282c-3.265,7.82-9.189,22.5,3.91,38.809.2,7.488-.215,22.405-.215,22.405-5.279,38.359-9.775,69.347-9.56,102.564,67.47,23.637,115.155,7.82,115.155,7.82-1.173-9.775,1.427-30.754-2.307-52.182C154.844,238.781,139.985,211.195,139.985,211.195Z" transform="translate(74.418 -19.228)" fill="#fff" opacity="0.75"/>
        <g id="Grupo_25" data-name="Grupo 25" transform="translate(137.638 105.63)" opacity="0.1">
          <path id="Trazado_559" data-name="Trazado 559" d="M69.578,167.013,66,185.059l-7.273-21.506s-12.356-31.536,2.307-43.423l1.486.176C49.6,142.77,69.578,167.013,69.578,167.013Z" transform="translate(15.007 -120.13)" opacity="0.6"/>
          <path id="Trazado_560" data-name="Trazado 560" d="M56.408,219.781C45.733,208.872,49.995,205.1,61.9,203.906A48.879,48.879,0,0,0,76.975,200a37.87,37.87,0,0,1-8.348-2.483,5.24,5.24,0,0,1-3.05-6.432c.469-1.036,2.952.293,7.566.2,5.865-.137,9.776-1.036,16.051.411,2.307.528,5.474,2.229,7.547,1.095,1.7-.938,3.812-2.17,6.2-3.6,2.894-1.76,6.119-3.793,9.424-5.865l19.336-14a228.555,228.555,0,0,1,10.147,26.218c-5.24,2.522-10.675,5.005-15.836,7.39l-3.109,1.427c-2.854,1.329-7,3.03-10.558,4.849-7.586,3.91-15.641,7.1-19.668,9.013C72.772,227.875,63.192,226.624,56.408,219.781Z" transform="translate(-50.3 -73.149)" opacity="0.6"/>
        </g>
        <path id="Trazado_561" data-name="Trazado 561" d="M88.635,303.6c-3.089-55.388-1.838-156.31,5.3-172.225,0,0-2.346,40.353-2.678,73.512-.176,18.417,1.681,70.09,3.343,99.867C92.624,304.387,90.649,304.015,88.635,303.6Z" transform="translate(62.735 -3.755)" opacity="0.15"/>
        <path id="Trazado_562" data-name="Trazado 562" d="M74.74,159.68l77.168,7.175L189,254.972l-73.688-8.72Z" transform="translate(-7.596 23.274)" fill="#4984ff"/>
        <path id="Trazado_563" data-name="Trazado 563" d="M74.74,159.68l77.168,7.175L189,254.972l-73.688-8.72Z" transform="translate(-7.596 23.274)" opacity="0.4"/>
        <path id="Trazado_564" data-name="Trazado 564" d="M80.14,191.44a17.6,17.6,0,0,0,13.529,11.379,38.457,38.457,0,0,0,20.177-3.226l-3.089-7.371Z" transform="translate(56.997 53.608)" opacity="0.15"/>
        <path id="Trazado_565" data-name="Trazado 565" d="M105.379,166.9s-.489-1.212-1.075-2.718,3.734-2.287,9.658-1.76l11.359,1.017c5.865.528,11.242,2.17,11.731,3.676l1.075,2.718Z" transform="translate(-14.421 25.734)" opacity="0.15"/>
        <path id="Trazado_566" data-name="Trazado 566" d="M103.825,162.625c-.391-.938,1.329-1.486,3.91-1.232l4.5.489s-2.287-5.865,7.625-5.357,13.177,7.117,13.177,7.117l4.829.547c2.659.293,5.181,1.29,5.65,2.209l.841,1.662-39.747-3.7S104.2,163.564,103.825,162.625Z" transform="translate(-19.711 20.231)" fill="#455a64"/>
        <path id="Trazado_567" data-name="Trazado 567" d="M138.253,169.39c-.489-1.251-4.243-2.6-8.915-3.324l-.156-.43c-.489-1.31,0-2.229,2.757-1.955v-1.114L104.41,160.24l1.31.978c3.617.274,5.142.489,6.08,2.8a4.2,4.2,0,0,0,.2.528c-4.282,0-7.117.684-6.628,1.955s1.075,2.718,1.075,2.718l32.846,2.933Z" transform="translate(-15.896 23.809)" fill="#37474f"/>
        <path id="Trazado_568" data-name="Trazado 568" d="M142.968,147.236c-6.256-24.693-15.8-26.98-30.089-28.486-15.5,25.69,1.955,48.506,1.955,48.506l11.731,41.292c-2.151,2.209-23.715,17.283-37.714,25.749-2.366,1.447-4.477,2.678-6.2,3.6-2.072,1.154-5.22-.547-7.527-1.095-6.2-1.427-10.186-.528-16.071-.411-4.594.1-7.1-1.232-7.547-.2a5.22,5.22,0,0,0,3.05,6.432,36.311,36.311,0,0,0,8.407,2.483,48.368,48.368,0,0,1-15.074,3.91c-11.907,1.173-16.169,4.966-5.494,15.875,6.706,6.843,16.266,8.075,36.287-1.7,3.91-1.955,12.083-5.122,19.668-8.994,3.558-1.818,7.82-3.421,10.538-4.849,20.959-10.675,48.545-21.311,49.269-31.868S149.576,173.219,142.968,147.236Z" transform="translate(98.376 -15.818)" fill="#f0f0f0"/>
        <path id="Trazado_569" data-name="Trazado 569" d="M62.947,208.815,47.13,161.893s-12.356-31.516,2.327-43.423c8.876,1.056,15.269,2.072,19.277,5.4s7.82,7.957,14.292,30.773,12.376,52.2,12.376,52.2c1.955,9.306,3.421,12.825-3.91,19.082s-45.437,23.735-45.437,23.735-4.4-14.116-10.538-21.037Z" transform="translate(161.094 -16.085)" fill="#4984ff"/>
        <path id="Trazado_570" data-name="Trazado 570" d="M62.947,208.815,47.13,161.893s-12.356-31.516,2.327-43.423c8.876,1.056,15.269,2.072,19.277,5.4s7.82,7.957,14.292,30.773,12.376,52.2,12.376,52.2c1.955,9.306,3.421,12.825-3.91,19.082s-45.437,23.735-45.437,23.735-4.4-14.116-10.538-21.037Z" transform="translate(161.094 -16.085)" fill="#fff" opacity="0.6"/>
        <path id="Trazado_571" data-name="Trazado 571" d="M45.953,167.444c6.647-4.438,15.973-4.379,15.973-4.379s-6.335-3.363-17.166.821Z" transform="translate(178.088 25.286)" opacity="0.15"/>
        <path id="Trazado_572" data-name="Trazado 572" d="M64.856,114.389c-3.461-2.62-7.136-5.22-8.993-9.111a12.806,12.806,0,0,1,3.656-15.23,19.433,19.433,0,0,1-4.458-8.622A8.211,8.211,0,0,1,58.522,72.9a14.6,14.6,0,0,1,6.393-1.173C75.336,71.123,85.5,68.64,95.825,67.1c5.552-.841,14.6-2.092,22.66.88s17.439,7.82,21.506,25.416c4.946,2.854,7.82,12.845,7.195,22.484-.43,6.608-5.416,17.479-10.675,23.833-9.776,11.731-14.077,10.46-17.381,18.691-1.095,2.776-5.259-1.427-7.449-2.131-7.293-2.346-14.937-4.262-22.112-6.823-4.047-1.427-6.843-5.67-8.935-9.189-1.134-1.955-2.112-3.91-3.069-5.865s-1.955-4.2-3.03-6.276c-.88-1.7-1.193-3.285-1.955-5.025a20.666,20.666,0,0,0-7.077-8.114Z" transform="translate(73.238 -66.102)" fill="#263238"/>
        <path id="Trazado_573" data-name="Trazado 573" d="M72.488,78.22c-5.377,2.581-10.03,6.119-11.731,33.237-1.388,22.914,5.552,29.19,9.15,31.125s10.831,1.545,17.909.958L87.288,154s-8.759,9.033,4.81,10.733c18.984,2.385,25.534-9.951,25.534-9.951l2.092-27.684s4.751,4.184,10.675-1.427,5.631-13.412,2.4-16.286c-4.79-4.262-9.776-3.48-13.432,2.737-15-.8-19.551-20.216-19.981-30.676C91.706,72.316,80.308,94.232,72.488,78.22Z" transform="translate(74.014 -54.528)" fill="#ffa8a7"/>
        <path id="Trazado_574" data-name="Trazado 574" d="M71.754,105.868,76,94.314c-3.226-1.29-7.82-.743-8.153,2.62C67.394,100.668,68.547,104.578,71.754,105.868Z" transform="translate(119.07 -39.77)" fill="#263238"/>
        <path id="Trazado_575" data-name="Trazado 575" d="M78.41,77.254s2.522,21.7,32.435,24.028L112.194,77Z" transform="translate(62.031 -55.693)" fill="#263238"/>
        <path id="Trazado_576" data-name="Trazado 576" d="M81.388,93.848a2.972,2.972,0,1,0,3.363-2.679,3.03,3.03,0,0,0-3.363,2.679Z" transform="translate(81.106 -42.179)" fill="#263238"/>
        <path id="Trazado_577" data-name="Trazado 577" d="M93.416,102.19,83.21,105.729a5.318,5.318,0,0,0,6.8,3.519A5.689,5.689,0,0,0,93.416,102.19Z" transform="translate(71.151 -31.634)" fill="#f28f8f"/>
        <path id="Trazado_578" data-name="Trazado 578" d="M93.982,90.49l6.041-3.48a3.363,3.363,0,0,0-4.673-1.369,3.656,3.656,0,0,0-1.369,4.849Z" transform="translate(44.582 -47.872)" fill="#263238"/>
        <path id="Trazado_579" data-name="Trazado 579" d="M93.242,92.264a3.011,3.011,0,0,0,2.542,3.461,3.109,3.109,0,1,0-2.542-3.461Z" transform="translate(45.87 -43.703)" fill="#263238"/>
        <path id="Trazado_580" data-name="Trazado 580" d="M102.063,89.75l-2.581,19.864L88.26,105.586Z" transform="translate(52.904 -43.516)" fill="#f28f8f"/>
        <path id="Trazado_581" data-name="Trazado 581" d="M72.024,116.021c7.312-.352,22.484-3.4,25.3-9.091a15.23,15.23,0,0,1-5.865,7.077c-4.751,3.441-19.688,6.53-19.688,6.53Z" transform="translate(89.884 -27.107)" fill="#f28f8f"/>
        <path id="Trazado_582" data-name="Trazado 582" d="M130.805,92.755a25.768,25.768,0,0,0-5.865,9.111,45.475,45.475,0,0,0-1.369,6.882l-.352,4.2s-4.516,9.619-11.731,13.041-27.371,7.625-36.365,3.05-10.812-22.347-9.56-31.653c0,0,12.278-2.737,17.068-1.564s16.794,6.413,21.213,7.429c9.541,2.229,12.9.2,19.3-5.865C128.909,92.051,130.805,92.755,130.805,92.755Z" transform="translate(69.227 -40.675)" fill="#4984ff"/>
        <path id="Trazado_583" data-name="Trazado 583" d="M130.805,92.755a25.768,25.768,0,0,0-5.865,9.111,45.475,45.475,0,0,0-1.369,6.882l-.352,4.2s-4.516,9.619-11.731,13.041-27.371,7.625-36.365,3.05-10.812-22.347-9.56-31.653c0,0,12.278-2.737,17.068-1.564s16.794,6.413,21.213,7.429c9.541,2.229,12.9.2,19.3-5.865C128.909,92.051,130.805,92.755,130.805,92.755Z" transform="translate(69.227 -40.675)" fill="#fff" opacity="0.5"/>
        <path id="Trazado_584" data-name="Trazado 584" d="M130.805,92.755a25.768,25.768,0,0,0-5.865,9.111,45.475,45.475,0,0,0-1.369,6.882l-.352,4.2s-4.516,9.619-11.731,13.041-27.371,7.625-36.365,3.05-10.812-22.347-9.56-31.653c0,0,12.278-2.737,17.068-1.564s16.794,6.413,21.213,7.429c9.541,2.229,12.9.2,19.3-5.865C128.909,92.051,130.805,92.755,130.805,92.755Z" transform="translate(69.227 -40.675)" opacity="0.1"/>
        <path id="Trazado_585" data-name="Trazado 585" d="M65.2,99.577a15.056,15.056,0,0,1,.254-2.151s12.278-2.737,17.068-1.564,16.755,6.413,21.174,7.429c9.541,2.229,12.9.2,19.3-5.865,5.865-5.416,7.684-4.712,7.684-4.712a25.768,25.768,0,0,0-5.865,9.111,45.478,45.478,0,0,0-1.369,6.882l-.352,4.2a28.134,28.134,0,0,1-5.4,8.094,21.506,21.506,0,0,0,3.6-12.063,20.333,20.333,0,0,1,3.245-10.127c-1.095,1.31-3.265,6.3-9.521,7.566-8.7,1.74-16.247-2.366-27.645-6.608C78.71,96.547,75.367,97.211,65.2,99.577Z" transform="translate(69.376 -40.713)" fill="#fafafa"/>
      </g>
    </g>
  </g>
</svg>
