<svg xmlns="http://www.w3.org/2000/svg" width="247.216" height="461.713" viewBox="0 0 247.216 461.713">
  <g id="Grupo_80" data-name="Grupo 80" transform="translate(-1926.785 1787.741)">
    <g id="freepik--speech-bubble--inject-100" transform="translate(1926.785 -1787.741)">
      <g id="freepik--speech-bubble--inject-100-2" data-name="freepik--speech-bubble--inject-100" transform="translate(0)">
        <g id="freepik--speach-bubble--inject-100" transform="translate(0)">
          <path id="Trazado_586" data-name="Trazado 586" d="M146.89,44.234,203.9,77.121a5.018,5.018,0,0,1,2.271,3.944v65.281a5,5,0,0,1-2.289,3.926l-8.151,4.56a5.106,5.106,0,0,1-4.577,0L134.161,122.05a5.053,5.053,0,0,1-2.271-3.873V52.755a5,5,0,0,1,2.289-3.926l8.151-4.6A5.07,5.07,0,0,1,146.89,44.234Z" transform="translate(-131.89 -43.692)" fill="#4984ff"/>
          <path id="Trazado_587" data-name="Trazado 587" d="M200.669,150.336V85.02a5.053,5.053,0,0,0-2.289-3.944L141.391,48.242c-1.25-.722-2.271-.123-2.271,1.32v65.387a5.053,5.053,0,0,0,2.271,3.944l56.989,32.834C199.647,152.379,200.669,151.8,200.669,150.336Z" transform="translate(-139.12 -40.465)" fill="#e62e2e"/>
          <path id="Trazado_588" data-name="Trazado 588" d="M131.89,139.744a5.282,5.282,0,0,0,4.577,0l8.151-4.6a4.912,4.912,0,0,0,2.289-3.908V65.924a4.718,4.718,0,0,0-.722-2.324l-12.694,7.236a4.524,4.524,0,0,1,.687,2.236v65.351C134.179,139.761,133.228,140.518,131.89,139.744Z" transform="translate(-72.63 -28.552)" fill="#bf2626"/>
          <path id="Trazado_589" data-name="Trazado 589" d="M132.29,52.35c.176-1.162,1.127-1.567,2.253-.915l56.989,32.834a4.683,4.683,0,0,1,1.6,1.761l12.711-7.236a4.771,4.771,0,0,0-1.567-1.62l-57.006-32.94a5.07,5.07,0,0,0-4.56,0l-8.151,4.577A5.018,5.018,0,0,0,132.29,52.35Z" transform="translate(-132.272 -43.692)" fill="#de2c2c"/>
        </g>
        <path id="Trazado_590" data-name="Trazado 590" d="M133.882,77.64l18.327,18.627a2.025,2.025,0,0,1-.352,3.116c-.37.246-12.676,7.306-12.676,7.306L121.153,84.981Z" transform="translate(-59.604 -17.874)" fill="#4984ff"/>
        <path id="Trazado_591" data-name="Trazado 591" d="M133.882,77.64l18.327,18.627a2.025,2.025,0,0,1-.352,3.116c-.37.246-12.676,7.306-12.676,7.306L121.153,84.981Z" transform="translate(-59.604 -17.874)" fill="#de2c2c"/>
        <path id="Trazado_592" data-name="Trazado 592" d="M129.726,81.81l18.31,18.627a2.025,2.025,0,0,1-1.761,3.415l-16.549-2.342C127.948,101.51,127.948,81.81,129.726,81.81Z" transform="translate(-68.177 -14.702)" fill="#e62e2e"/>
      </g>
      <path id="Trazado_593" data-name="Trazado 593" d="M184.649,95.023a24,24,0,0,0-2.43-10.106h0a20.211,20.211,0,0,0-7.306-8.75c-4.261-2.5-7.9.651-9.313,5.37a.458.458,0,0,1-.9,0c-1.25-6.444-4.93-14.19-9.313-16.76-2.9-1.761-5.546-1.549-7.359,0h0a9.63,9.63,0,0,0-2.535,7.218c0,10.317,7.13,20.246,13.134,30.563l6.479,10.017,6.179-2.447C177.36,106.836,184.6,105.357,184.649,95.023Z" transform="translate(-134.279 -28.602)" fill="#fafafa"/>
    </g>
    <g id="freepik--character-1--inject-100" transform="translate(1938.328 -1748.288)">
      <g id="freepik--character--inject-100" transform="translate(0 0)">
        <path id="Trazado_546" data-name="Trazado 546" d="M41.614,74.75c5.634,0,10.915,1.039,14.859,4.877a23.644,23.644,0,0,1,6.25,9.208c2.43,6.444,2.975,15.158,4.489,21.866s4.049,13.591,9.313,18.028c2.042,1.761,4.665,3.38,4.894,6.056a5.4,5.4,0,0,1-3.222,4.982,13.82,13.82,0,0,1-6.18,1,9.366,9.366,0,0,0,2.887,5.141,6.584,6.584,0,0,1,2.042,5.422c-.581,2.289-3.239,3.363-5.581,3.68a21.408,21.408,0,0,1-20.088-9.4c-6.584-9.225-7.993-22.535-5.282-33.221a71.936,71.936,0,0,0,1.972-14.507c.176-4.683-3.732-12.113-9.824-13.627a4.12,4.12,0,0,1-2.711-3.785c0-1.6-2.834-3.627-1.338-4.172C34.677,76.07,35.962,74.8,41.614,74.75Z" transform="translate(154.252 -59.525)" fill="#263238"/>
        <path id="Trazado_547" data-name="Trazado 547" d="M221.437,115.443s-11.866-3.063-21,16.848c-5.088,11.056-23.609,51.478-23.609,51.478s-22.112,1.585-38.116,1.285c-7.042-.141-12.87-.951-14.489-2.1-2.711-1.391-3.8-4.12-4.718-6.62-1.532-4.208-.6-8.908-.7-10.563-.194-3.028-4.63-1.056-5.951,3.873-.968,3.521-.37,6.919-1.761,7.623a29.735,29.735,0,0,1-6.373-1.62c-2.923-1.232-8.134-3.169-11.285-1.039a3.944,3.944,0,0,0-1.761,3.2,14.789,14.789,0,0,1-.158,5.282,10.033,10.033,0,0,0-.863,2.535c-.088,1.18.581,1.954.722,3.081.194,1.532-1.232,2.9-1.127,4.454,0,1.127.915,2.06,1.144,3.151.158.7,0,1.461.211,2.165a4.947,4.947,0,0,0,2.87,2.958,35.527,35.527,0,0,0,13.415,3.275c4,.4,9.137.968,13.556,1.039,1.461,0,9.331,0,17.975.88,18.926,1.989,46.249,4.507,51.954,1.479,7.887-4.172,34.119-64,34.119-64C228.691,121.834,221.437,115.443,221.437,115.443Z" transform="translate(-90.236 -28.705)" fill="#ebebeb"/>
        <path id="Trazado_548" data-name="Trazado 548" d="M161.676,151.14c2.8,1.919,3.116,2.9,2.887,4.419s-4.56,1.972-9.19,1.285a30.23,30.23,0,0,1,7.042,2.359,2.993,2.993,0,0,1-1.373,5.088A22.218,22.218,0,0,1,154,163.9a28.45,28.45,0,0,1,5.616,2.588,2.553,2.553,0,0,1-1.285,4.489,11.655,11.655,0,0,1-4.331,0s4.032,1.2,4.789,2.5a3.926,3.926,0,0,1,.528,2.5,2.658,2.658,0,0,0,.458-3.8,4.577,4.577,0,0,0,2.729-5.018s.546,3.31,5.282,5.282c0,0-3.944-3.521-3.644-7.746s1.144-5.4-.458-6.849c0,0,1.532-.194,2.13-2.342S163.525,151.915,161.676,151.14Z" transform="translate(-143.977 -1.427)" fill="#e0e0e0"/>
        <path id="Trazado_549" data-name="Trazado 549" d="M126.43,183.362s20.845-48.978,26.9-57.763,12.077-11.215,18.01-10.123l.546,46.267-24.348,41.373c-2.87,4.014-4.366,7.165-11.162,7.165s-33.45-1.25-42.112-2.289c0,0-3.521-12.465,0-23.327Z" transform="translate(-40.158 -28.737)" fill="#4984ff"/>
        <path id="Trazado_550" data-name="Trazado 550" d="M126.43,183.362s20.845-48.978,26.9-57.763,12.077-11.215,18.01-10.123l.546,46.267-24.348,41.373c-2.87,4.014-4.366,7.165-11.162,7.165s-33.45-1.25-42.112-2.289c0,0-3.521-12.465,0-23.327Z" transform="translate(-40.158 -28.737)" fill="#fff" opacity="0.6"/>
        <path id="Trazado_551" data-name="Trazado 551" d="M109.81,155.71a28.169,28.169,0,0,1,15.334,3.151s-1.761-5.158-13.574-7.271Z" transform="translate(-23.538 -1.085)" opacity="0.15"/>
        <path id="Sustracción_1" data-name="Sustracción 1" d="M106.2,249.062H74.866c-6.185-30.631-14.045-70.308-16.377-85.383C54.826,139.995,47.191,89.9,47.115,89.4l-6.549,75.809c.016.132,1.572,13.333,2.852,23.609.5,3.976-.175,12.226-2,24.52-1.427,9.6-3.547,21.619-6.3,35.723H7.258c-1.815-33.081-4.231-74.976-5.442-86.7C.761,152.19.085,134.829.007,115.916-.08,94.818.563,73.678,1.816,56.39,2.646,45.235,7.4,10.125,9.158.194L76.059,0A117.751,117.751,0,0,1,88.824,19.564a117.763,117.763,0,0,1,8.643,21.7c2.341,8.381,3.7,19.712,4.033,33.678.268,11.173-.114,24.049-1.135,38.268-1.741,24.25-4.769,44.191-4.8,44.39a36.77,36.77,0,0,0,2.131,7.108,137.187,137.187,0,0,1,7.851,32.188c1.288,10.186,1.508,27.736.653,52.161Z" transform="translate(109.438 173.199)" fill="#455a64"/>
        <path id="Trazado_554" data-name="Trazado 554" d="M109.779,228.575l-3.961-22.887A56.953,56.953,0,0,1,78.6,197.73s8.627,11.039,22.887,11.989l2.694,20.458-.317,64.894Z" transform="translate(46.774 34.007)" fill="#37474f"/>
        <path id="Trazado_556" data-name="Trazado 556" d="M65.033,176.125c.194,6.743,1.109,22.8,1.109,22.8,27.007,19.366,66.725,3.4,66.725,3.4L139.5,163.4s-13.82-20.458.176-41.267l-21.3-4.789L92.6,115.14l-14.736.4c-3.433,6.69-13.151,21.936-16.021,28.767S53.237,161.442,65.033,176.125Z" transform="translate(53.316 -28.807)" fill="#455a64"/>
        <path id="Trazado_557" data-name="Trazado 557" d="M130.7,201.64l7.042-35.528s-19.155-23.239-5.158-44.014L114.1,118.384c-2.8,7.253-18.838,23.063-35.387,25.317-7.729-7.482-.669-22.218,2.641-28.521l-12.535.334a159.472,159.472,0,0,0-16.848,28.169c-2.94,7.042-8.275,20.264,3.521,34.947.176,6.743-.194,20.176-.194,20.176-4.753,34.542-8.8,62.446-8.609,92.358,60.756,21.285,103.7,7.042,103.7,7.042-1.056-8.8,1.285-27.693-2.077-46.989C144.08,226.482,130.7,201.64,130.7,201.64Z" transform="translate(62.367 -28.776)" fill="#4984ff"/>
        <path id="Trazado_558" data-name="Trazado 558" d="M130.7,201.64l7.042-35.528s-19.155-23.239-5.158-44.014L114.1,118.384c-2.8,7.253-18.838,23.063-35.387,25.317-7.729-7.482-.669-22.218,2.641-28.521l-12.535.334a159.472,159.472,0,0,0-16.848,28.169c-2.94,7.042-8.275,20.264,3.521,34.947.176,6.743-.194,20.176-.194,20.176-4.753,34.542-8.8,62.446-8.609,92.358,60.756,21.285,103.7,7.042,103.7,7.042-1.056-8.8,1.285-27.693-2.077-46.989C144.08,226.482,130.7,201.64,130.7,201.64Z" transform="translate(62.367 -28.776)" fill="#fff" opacity="0.75"/>
        <g id="Grupo_25" data-name="Grupo 25" transform="translate(123.941 95.119)" opacity="0.1">
          <path id="Trazado_559" data-name="Trazado 559" d="M68.014,162.348,64.792,178.6l-6.549-19.366s-11.127-28.4,2.077-39.1l1.338.158C50.021,140.517,68.014,162.348,68.014,162.348Z" transform="translate(8.154 -120.13)" opacity="0.6"/>
          <path id="Trazado_560" data-name="Trazado 560" d="M55.8,214.76c-9.613-9.824-5.775-13.222,4.947-14.3a44.015,44.015,0,0,0,13.574-3.521,34.1,34.1,0,0,1-7.518-2.236,4.718,4.718,0,0,1-2.746-5.792c.423-.933,2.658.264,6.813.176,5.282-.123,8.8-.933,14.454.37,2.077.475,4.93,2.007,6.8.986,1.532-.845,3.433-1.954,5.581-3.239,2.606-1.584,5.51-3.415,8.486-5.282L123.6,169.32a205.811,205.811,0,0,1,9.137,23.609c-4.718,2.271-9.613,4.507-14.26,6.655l-2.8,1.285c-2.57,1.2-6.3,2.729-9.507,4.366-6.831,3.521-14.084,6.391-17.711,8.116C70.536,222.048,61.909,220.922,55.8,214.76Z" transform="translate(-50.3 -82.719)" opacity="0.6"/>
        </g>
        <path id="Trazado_561" data-name="Trazado 561" d="M88.477,286.466C85.7,236.59,86.823,145.711,93.249,131.38c0,0-2.113,36.338-2.412,66.2-.158,16.584,1.514,63.116,3.011,89.929C92.069,287.17,90.291,286.836,88.477,286.466Z" transform="translate(47.829 -16.455)" opacity="0.15"/>
        <path id="Trazado_562" data-name="Trazado 562" d="M74.74,159.68l69.489,6.461,33.4,79.348-66.355-7.852Z" transform="translate(-14.277 5.068)" fill="#4984ff"/>
        <path id="Trazado_563" data-name="Trazado 563" d="M74.74,159.68l69.489,6.461,33.4,79.348-66.355-7.852Z" transform="translate(-14.277 5.068)" opacity="0.4"/>
        <path id="Trazado_564" data-name="Trazado 564" d="M80.14,191.44a15.845,15.845,0,0,0,12.183,10.246,34.63,34.63,0,0,0,18.169-2.9l-2.782-6.637Z" transform="translate(43.35 29.223)" opacity="0.15"/>
        <path id="Trazado_565" data-name="Trazado 565" d="M105.266,166.436s-.44-1.092-.968-2.447,3.363-2.06,8.7-1.585l10.229.916c5.282.475,10.123,1.954,10.563,3.31l.968,2.447Z" transform="translate(-23.36 7.027)" opacity="0.15"/>
        <path id="Trazado_566" data-name="Trazado 566" d="M103.82,162.015c-.352-.845,1.2-1.338,3.521-1.109l4.049.44s-2.06-5.282,6.866-4.824,11.866,6.408,11.866,6.408l4.349.493c2.394.264,4.665,1.162,5.088,1.989l.757,1.5-35.792-3.327S104.154,162.86,103.82,162.015Z" transform="translate(-28.076 2.645)" fill="#455a64"/>
        <path id="Trazado_567" data-name="Trazado 567" d="M134.885,168.479c-.44-1.127-3.82-2.342-8.028-2.993l-.141-.387c-.44-1.18,0-2.007,2.482-1.761v-1l-24.788-2.1,1.18.88c3.257.246,4.63.44,5.475,2.518a3.778,3.778,0,0,0,.176.475c-3.856,0-6.408.616-5.968,1.761s.968,2.447.968,2.447l29.577,2.641Z" transform="translate(-24.705 5.494)" fill="#37474f"/>
        <path id="Trazado_568" data-name="Trazado 568" d="M132.352,144.4c-5.634-22.236-14.225-24.3-27.095-25.651-13.961,23.134,1.761,43.679,1.761,43.679l10.563,37.183C115.644,201.6,96.225,215.175,83.62,222.8c-2.13,1.3-4.032,2.412-5.581,3.239-1.866,1.039-4.7-.493-6.778-.986-5.581-1.285-9.172-.475-14.472-.37-4.137.088-6.391-1.109-6.8-.176A4.7,4.7,0,0,0,52.74,230.3a32.7,32.7,0,0,0,7.57,2.236,43.554,43.554,0,0,1-13.574,3.521c-10.722,1.056-14.56,4.472-4.947,14.3,6.039,6.162,14.648,7.271,32.676-1.532,3.521-1.761,10.88-4.613,17.711-8.1,3.2-1.637,7.042-3.081,9.489-4.366,18.873-9.613,43.714-19.19,44.366-28.7S138.3,167.8,132.352,144.4Z" transform="translate(84.975 -26.061)" fill="#f0f0f0"/>
        <path id="Trazado_569" data-name="Trazado 569" d="M60.217,199.825,45.974,157.572s-11.127-28.38,2.1-39.1c7.993.951,13.75,1.866,17.359,4.859s7.042,7.165,12.87,27.711,11.144,47.007,11.144,47.007c1.761,8.38,3.081,11.549-3.521,17.183S45.006,236.6,45.006,236.6s-3.961-12.711-9.489-18.943Z" transform="translate(141.529 -26.274)" fill="#4984ff"/>
        <path id="Trazado_570" data-name="Trazado 570" d="M60.217,199.825,45.974,157.572s-11.127-28.38,2.1-39.1c7.993.951,13.75,1.866,17.359,4.859s7.042,7.165,12.87,27.711,11.144,47.007,11.144,47.007c1.761,8.38,3.081,11.549-3.521,17.183S45.006,236.6,45.006,236.6s-3.961-12.711-9.489-18.943Z" transform="translate(141.529 -26.274)" fill="#fff" opacity="0.6"/>
        <path id="Trazado_571" data-name="Trazado 571" d="M45.834,166.881c5.986-4,14.384-3.944,14.384-3.944s-5.7-3.028-15.458.739Z" transform="translate(155.912 6.67)" opacity="0.15"/>
        <path id="Trazado_572" data-name="Trazado 572" d="M63.849,109.584c-3.116-2.359-6.426-4.7-8.1-8.2a11.532,11.532,0,0,1,3.292-13.715A17.5,17.5,0,0,1,55.029,79.9a7.394,7.394,0,0,1,3.116-7.676A13.151,13.151,0,0,1,63.9,71.169c9.384-.546,18.539-2.782,27.834-4.173,5-.757,13.151-1.884,20.4.792s15.7,7.042,19.366,22.887c4.454,2.57,7.042,11.567,6.479,20.246-.387,5.951-4.877,15.739-9.613,21.461-8.8,10.563-12.676,9.419-15.651,16.831-.986,2.5-4.736-1.285-6.708-1.919-6.567-2.113-13.451-3.838-19.912-6.144-3.644-1.285-6.162-5.106-8.046-8.275-1.021-1.761-1.9-3.521-2.764-5.282s-1.761-3.785-2.729-5.651c-.792-1.532-1.074-2.958-1.761-4.525a18.609,18.609,0,0,0-6.373-7.306Z" transform="translate(60.503 -66.102)" fill="#263238"/>
        <path id="Trazado_573" data-name="Trazado 573" d="M71.3,78.22c-4.841,2.324-9.032,5.51-10.563,29.929-1.25,20.634,5,26.285,8.239,28.028s9.753,1.391,16.127.863l-.475,9.419s-7.887,8.134,4.331,9.665c17.095,2.148,22.993-8.961,22.993-8.961l1.884-24.929s4.278,3.768,9.613-1.285,5.07-12.077,2.165-14.665c-4.313-3.838-8.8-3.134-12.095,2.465-13.5-.722-17.605-18.2-17.993-27.623C88.609,72.9,78.345,92.639,71.3,78.22Z" transform="translate(60.621 -56.886)" fill="#ffa8a7"/>
        <path id="Trazado_574" data-name="Trazado 574" d="M71.355,104.655l3.82-10.4c-2.9-1.162-7.042-.669-7.341,2.359C67.429,99.972,68.468,103.493,71.355,104.655Z" transform="translate(100.479 -45.134)" fill="#263238"/>
        <path id="Trazado_575" data-name="Trazado 575" d="M78.41,77.229s2.271,19.542,29.207,21.637L108.832,77Z" transform="translate(48.055 -57.814)" fill="#263238"/>
        <path id="Trazado_576" data-name="Trazado 576" d="M81.387,93.58a2.676,2.676,0,1,0,3.028-2.412,2.729,2.729,0,0,0-3.028,2.412Z" transform="translate(64.937 -47.052)" fill="#263238"/>
        <path id="Trazado_577" data-name="Trazado 577" d="M92.4,102.19l-9.19,3.187a4.789,4.789,0,0,0,6.127,3.169A5.123,5.123,0,0,0,92.4,102.19Z" transform="translate(55.79 -38.656)" fill="#f28f8f"/>
        <path id="Trazado_578" data-name="Trazado 578" d="M93.94,89.962l5.44-3.134A3.028,3.028,0,0,0,95.173,85.6a3.292,3.292,0,0,0-1.232,4.366Z" transform="translate(30.835 -51.586)" fill="#263238"/>
        <path id="Trazado_579" data-name="Trazado 579" d="M93.238,91.994a2.711,2.711,0,0,0,2.289,3.116,2.8,2.8,0,1,0-2.289-3.116Z" transform="translate(32.03 -48.266)" fill="#263238"/>
        <path id="Trazado_580" data-name="Trazado 580" d="M100.689,89.75l-2.324,17.887L88.26,104.01Z" transform="translate(38.857 -48.117)" fill="#f28f8f"/>
        <path id="Trazado_581" data-name="Trazado 581" d="M72,115.117c6.584-.317,20.246-3.063,22.781-8.187A13.714,13.714,0,0,1,89.5,113.3c-4.278,3.1-17.729,5.88-17.729,5.88Z" transform="translate(73.797 -35.051)" fill="#f28f8f"/>
        <path id="Trazado_582" data-name="Trazado 582" d="M124.278,92.752a23.2,23.2,0,0,0-5.282,8.2,40.949,40.949,0,0,0-1.232,6.2l-.317,3.785s-4.067,8.662-10.563,11.743-24.648,6.866-32.746,2.746S64.4,105.3,65.528,96.924c0,0,11.056-2.465,15.37-1.408s15.123,5.775,19.1,6.69c8.591,2.007,11.62.176,17.377-5.282C122.57,92.118,124.278,92.752,124.278,92.752Z" transform="translate(55.849 -45.855)" fill="#4984ff"/>
        <path id="Trazado_583" data-name="Trazado 583" d="M124.278,92.752a23.2,23.2,0,0,0-5.282,8.2,40.949,40.949,0,0,0-1.232,6.2l-.317,3.785s-4.067,8.662-10.563,11.743-24.648,6.866-32.746,2.746S64.4,105.3,65.528,96.924c0,0,11.056-2.465,15.37-1.408s15.123,5.775,19.1,6.69c8.591,2.007,11.62.176,17.377-5.282C122.57,92.118,124.278,92.752,124.278,92.752Z" transform="translate(55.849 -45.855)" fill="#fff" opacity="0.5"/>
        <path id="Trazado_584" data-name="Trazado 584" d="M124.278,92.752a23.2,23.2,0,0,0-5.282,8.2,40.949,40.949,0,0,0-1.232,6.2l-.317,3.785s-4.067,8.662-10.563,11.743-24.648,6.866-32.746,2.746S64.4,105.3,65.528,96.924c0,0,11.056-2.465,15.37-1.408s15.123,5.775,19.1,6.69c8.591,2.007,11.62.176,17.377-5.282C122.57,92.118,124.278,92.752,124.278,92.752Z" transform="translate(55.849 -45.855)" opacity="0.1"/>
        <path id="Trazado_585" data-name="Trazado 585" d="M65.2,98.891a13.557,13.557,0,0,1,.229-1.937S76.485,94.49,80.8,95.546s15.088,5.775,19.067,6.69c8.591,2.007,11.62.176,17.377-5.282,5.282-4.877,6.919-4.243,6.919-4.243a23.2,23.2,0,0,0-5.282,8.2,40.954,40.954,0,0,0-1.232,6.2l-.317,3.785a25.335,25.335,0,0,1-4.859,7.289,19.366,19.366,0,0,0,3.239-10.863,18.309,18.309,0,0,1,2.923-9.12c-.986,1.18-2.94,5.669-8.574,6.813-7.834,1.567-14.63-2.13-24.894-5.951C77.365,96.162,74.355,96.761,65.2,98.891Z" transform="translate(55.984 -45.885)" fill="#fafafa"/>
      </g>
    </g>
  </g>
</svg>
