<svg xmlns="http://www.w3.org/2000/svg" width="882.1" height="938.004" viewBox="0 0 882.1 938.004">
  <g id="Job_hunt-rafiki_1_" data-name="Job hunt-rafiki (1)" transform="translate(-92.941 75.596)">
    <g id="freepik--Briefcases--inject-21" transform="matrix(0.966, -0.259, 0.259, 0.966, 92.941, 122.78)">
      <rect id="Rectángulo_26" data-name="Rectángulo 26" width="111.93" height="49.855" rx="1.56" transform="translate(168.165 352.873)" fill="#4984ff"/>
      <rect id="Rectángulo_27" data-name="Rectángulo 27" width="111.93" height="49.855" rx="1.56" transform="translate(168.165 352.873)" fill="#fff" opacity="0.6"/>
      <path id="Trazado_32" data-name="Trazado 32" d="M289.685,262.73H183.159a2.719,2.719,0,0,0-2.719,2.719v14.242L235.873,290.6a2.562,2.562,0,0,0,1.028,0l55.451-10.912V265.449a2.719,2.719,0,0,0-2.668-2.719Z" transform="translate(-12.327 90.143)" opacity="0.1"/>
      <path id="Trazado_33" data-name="Trazado 33" d="M292.965,258.223H260.437v-5.456a8.524,8.524,0,0,0-8.507-8.507H222.872a8.524,8.524,0,0,0-8.507,8.507v5.456h-32.51a2.684,2.684,0,0,0-2.684,2.685V287.77a2.7,2.7,0,0,0,2.162,2.632l55.555,10.93a3.384,3.384,0,0,0,1.028,0L293.47,290.4a2.719,2.719,0,0,0,2.179-2.632V260.907A2.684,2.684,0,0,0,292.965,258.223Zm-72.133-5.456a2.074,2.074,0,0,1,2.04-2.057H251.93a2.074,2.074,0,0,1,2.039,2.057v5.456h-33.12Z" transform="translate(-13.271 76.416)" fill="#4984ff"/>
      <path id="Trazado_34" data-name="Trazado 34" d="M292.965,258.223H260.437v-5.456a8.524,8.524,0,0,0-8.507-8.507H222.872a8.524,8.524,0,0,0-8.507,8.507v5.456h-32.51a2.684,2.684,0,0,0-2.684,2.685V287.77a2.7,2.7,0,0,0,2.162,2.632l55.555,10.93a3.384,3.384,0,0,0,1.028,0L293.47,290.4a2.719,2.719,0,0,0,2.179-2.632V260.907A2.684,2.684,0,0,0,292.965,258.223Zm-72.133-5.456a2.074,2.074,0,0,1,2.04-2.057H251.93a2.074,2.074,0,0,1,2.039,2.057v5.456h-33.12Z" transform="translate(-13.271 76.416)" fill="#fff" opacity="0.6"/>
      <rect id="Rectángulo_28" data-name="Rectángulo 28" width="16.63" height="12.411" rx="1.48" transform="translate(215.823 370.409)" fill="#4984ff"/>
      <rect id="Rectángulo_29" data-name="Rectángulo 29" width="16.63" height="12.411" rx="1.48" transform="translate(215.823 370.409)" fill="#fff" opacity="0.3"/>
      <rect id="Rectángulo_30" data-name="Rectángulo 30" width="111.93" height="49.855" rx="1.56" transform="translate(168.165 32.197)" fill="#4984ff"/>
      <rect id="Rectángulo_31" data-name="Rectángulo 31" width="111.93" height="49.855" rx="1.56" transform="translate(168.165 32.197)" fill="#fff" opacity="0.6"/>
      <path id="Trazado_35" data-name="Trazado 35" d="M289.685,78.77H183.159a2.719,2.719,0,0,0-2.719,2.719V95.731l55.433,10.912a2.563,2.563,0,0,0,1.028,0l55.451-10.912V81.489a2.719,2.719,0,0,0-2.668-2.719Z" transform="translate(-12.327 -46.573)" opacity="0.1"/>
      <path id="Trazado_36" data-name="Trazado 36" d="M292.965,74.263H260.437V68.807A8.524,8.524,0,0,0,251.93,60.3H222.872a8.524,8.524,0,0,0-8.507,8.507v5.456h-32.51a2.684,2.684,0,0,0-2.684,2.684V103.81a2.685,2.685,0,0,0,2.162,2.632l55.555,10.86a2.563,2.563,0,0,0,1.028,0l55.555-10.93a2.7,2.7,0,0,0,2.2-2.562V76.947a2.684,2.684,0,0,0-2.7-2.685Zm-72.133-5.456a2.057,2.057,0,0,1,2.04-2.057H251.93a2.057,2.057,0,0,1,2.04,2.04v5.456h-33.12Z" transform="translate(-13.271 -60.3)" fill="#4984ff"/>
      <path id="Trazado_37" data-name="Trazado 37" d="M292.965,74.263H260.437V68.807A8.524,8.524,0,0,0,251.93,60.3H222.872a8.524,8.524,0,0,0-8.507,8.507v5.456h-32.51a2.684,2.684,0,0,0-2.684,2.684V103.81a2.685,2.685,0,0,0,2.162,2.632l55.555,10.86a2.563,2.563,0,0,0,1.028,0l55.555-10.93a2.7,2.7,0,0,0,2.2-2.562V76.947a2.684,2.684,0,0,0-2.7-2.685Zm-72.133-5.456a2.057,2.057,0,0,1,2.04-2.057H251.93a2.057,2.057,0,0,1,2.04,2.04v5.456h-33.12Z" transform="translate(-13.271 -60.3)" fill="#fff" opacity="0.6"/>
      <rect id="Rectángulo_32" data-name="Rectángulo 32" width="16.63" height="12.411" rx="1.48" transform="translate(215.823 49.751)" fill="#4984ff"/>
      <rect id="Rectángulo_33" data-name="Rectángulo 33" width="16.63" height="12.411" rx="1.48" transform="translate(215.823 49.751)" fill="#fff" opacity="0.3"/>
      <rect id="Rectángulo_34" data-name="Rectángulo 34" width="111.93" height="49.855" rx="1.56" transform="translate(2.284 352.873)" fill="#4984ff"/>
      <rect id="Rectángulo_35" data-name="Rectángulo 35" width="111.93" height="49.855" rx="1.56" transform="translate(2.284 352.873)" fill="#fff" opacity="0.6"/>
      <path id="Trazado_38" data-name="Trazado 38" d="M194.59,262.73H88.029a2.719,2.719,0,0,0-2.719,2.719v14.242L140.743,290.6a2.65,2.65,0,0,0,1.046,0l55.451-10.912V265.449A2.719,2.719,0,0,0,194.59,262.73Z" transform="translate(-83.026 90.143)" opacity="0.1"/>
      <path id="Trazado_39" data-name="Trazado 39" d="M197.795,258.223H165.267v-5.456a8.524,8.524,0,0,0-8.507-8.507H127.719a8.524,8.524,0,0,0-8.507,8.507v5.456H86.685A2.684,2.684,0,0,0,84,260.907V287.77a2.7,2.7,0,0,0,2.162,2.632l55.555,10.93a3.489,3.489,0,0,0,1.046,0l55.555-10.93a2.7,2.7,0,0,0,2.162-2.632V260.907A2.684,2.684,0,0,0,197.795,258.223Zm-72.133-5.456a2.092,2.092,0,0,1,2.057-2.057H156.76a2.092,2.092,0,0,1,2.057,2.057v5.456H125.7Z" transform="translate(-84 76.416)" fill="#4984ff"/>
      <path id="Trazado_40" data-name="Trazado 40" d="M197.795,258.223H165.267v-5.456a8.524,8.524,0,0,0-8.507-8.507H127.719a8.524,8.524,0,0,0-8.507,8.507v5.456H86.685A2.684,2.684,0,0,0,84,260.907V287.77a2.7,2.7,0,0,0,2.162,2.632l55.555,10.93a3.489,3.489,0,0,0,1.046,0l55.555-10.93a2.7,2.7,0,0,0,2.162-2.632V260.907A2.684,2.684,0,0,0,197.795,258.223Zm-72.133-5.456a2.092,2.092,0,0,1,2.057-2.057H156.76a2.092,2.092,0,0,1,2.057,2.057v5.456H125.7Z" transform="translate(-84 76.416)" fill="#fff" opacity="0.6"/>
      <rect id="Rectángulo_36" data-name="Rectángulo 36" width="16.63" height="12.411" rx="1.48" transform="translate(49.925 370.409)" fill="#4984ff"/>
      <rect id="Rectángulo_37" data-name="Rectángulo 37" width="16.63" height="12.411" rx="1.48" transform="translate(49.925 370.409)" fill="#fff" opacity="0.3"/>
      <rect id="Rectángulo_38" data-name="Rectángulo 38" width="111.93" height="49.855" rx="1.56" transform="translate(2.284 32.197)" fill="#4984ff"/>
      <rect id="Rectángulo_39" data-name="Rectángulo 39" width="111.93" height="49.855" rx="1.56" transform="translate(2.284 32.197)" fill="#fff" opacity="0.6"/>
      <path id="Trazado_41" data-name="Trazado 41" d="M194.59,78.77H88.029a2.719,2.719,0,0,0-2.719,2.719V95.731l55.433,10.912a2.632,2.632,0,0,0,1.046,0L197.24,95.731V81.489A2.719,2.719,0,0,0,194.59,78.77Z" transform="translate(-83.026 -46.573)" opacity="0.1"/>
      <path id="Trazado_42" data-name="Trazado 42" d="M197.795,74.263H165.267V68.807A8.524,8.524,0,0,0,156.76,60.3H127.719a8.524,8.524,0,0,0-8.507,8.507v5.456H86.685A2.684,2.684,0,0,0,84,76.947V103.81a2.685,2.685,0,0,0,2.162,2.632l55.555,10.86a2.632,2.632,0,0,0,1.046,0l55.555-10.93a2.684,2.684,0,0,0,2.162-2.632V76.947a2.685,2.685,0,0,0-2.684-2.685Zm-72.133-5.456a2.074,2.074,0,0,1,2.057-2.057H156.76a2.074,2.074,0,0,1,2.057,2.04v5.456H125.7Z" transform="translate(-84 -60.3)" fill="#4984ff"/>
      <path id="Trazado_43" data-name="Trazado 43" d="M197.795,74.263H165.267V68.807A8.524,8.524,0,0,0,156.76,60.3H127.719a8.524,8.524,0,0,0-8.507,8.507v5.456H86.685A2.684,2.684,0,0,0,84,76.947V103.81a2.685,2.685,0,0,0,2.162,2.632l55.555,10.86a2.632,2.632,0,0,0,1.046,0l55.555-10.93a2.684,2.684,0,0,0,2.162-2.632V76.947a2.685,2.685,0,0,0-2.684-2.685Zm-72.133-5.456a2.074,2.074,0,0,1,2.057-2.057H156.76a2.074,2.074,0,0,1,2.057,2.04v5.456H125.7Z" transform="translate(-84 -60.3)" fill="#fff" opacity="0.6"/>
      <rect id="Rectángulo_40" data-name="Rectángulo 40" width="16.63" height="12.411" rx="1.48" transform="translate(49.925 49.751)" fill="#4984ff"/>
      <rect id="Rectángulo_41" data-name="Rectángulo 41" width="16.63" height="12.411" rx="1.48" transform="translate(49.925 49.751)" fill="#fff" opacity="0.3"/>
      <path id="Trazado_44" data-name="Trazado 44" d="M180.652,220.605H88.037a2.737,2.737,0,0,1-2.737-2.737v-44.4a2.7,2.7,0,0,1,.227-1.063,3.747,3.747,0,0,1,.244-.453,1.916,1.916,0,0,1,.349-.4,2.719,2.719,0,0,1,1.918-.8H175.7a114.317,114.317,0,0,0-.715,18.338,18.66,18.66,0,0,0,.157,2.963c.122,1.83.261,3.678.471,5.508a116.8,116.8,0,0,0,5.038,23.045Z" transform="translate(-83.034 21.785)" fill="#4984ff"/>
      <path id="Trazado_45" data-name="Trazado 45" d="M180.652,220.605H88.037a2.737,2.737,0,0,1-2.737-2.737v-44.4a2.7,2.7,0,0,1,.227-1.063,3.747,3.747,0,0,1,.244-.453,1.916,1.916,0,0,1,.349-.4,2.719,2.719,0,0,1,1.918-.8H175.7a114.317,114.317,0,0,0-.715,18.338,18.66,18.66,0,0,0,.157,2.963c.122,1.83.261,3.678.471,5.508a116.8,116.8,0,0,0,5.038,23.045Z" transform="translate(-83.034 21.785)" fill="#fff" opacity="0.6"/>
      <path id="Trazado_46" data-name="Trazado 46" d="M175.694,170.75a114.317,114.317,0,0,0-.715,18.338,18.653,18.653,0,0,0,.157,2.963l-25.555,5.02-7.809,1.534a2.057,2.057,0,0,1-1.028,0l-7.792-1.517L85.31,187.711V173.452a2.946,2.946,0,0,1,.209-1.046,3.746,3.746,0,0,1,.244-.453,1.916,1.916,0,0,1,.349-.4,2.719,2.719,0,0,1,1.917-.8Z" transform="translate(-83.026 21.785)" opacity="0.1"/>
      <path id="Trazado_47" data-name="Trazado 47" d="M180.311,166.243H165.285v-5.456a8.542,8.542,0,0,0-8.524-8.507H127.719a8.507,8.507,0,0,0-8.507,8.507v5.456H86.685A2.685,2.685,0,0,0,84,168.927v26.845a2.7,2.7,0,0,0,2.179,2.65h.1l47.641,9.4,7.792,1.517a2.563,2.563,0,0,0,1.028,0l7.809-1.534,25.4-5a114.322,114.322,0,0,1,.715-18.338,115.644,115.644,0,0,1,3.643-18.216Zm-54.649-5.456a2.074,2.074,0,0,1,2.057-2.04H156.76a2.057,2.057,0,0,1,2.039,2.039v5.456h-33.12Z" transform="translate(-84 8.058)" fill="#4984ff"/>
      <path id="Trazado_48" data-name="Trazado 48" d="M180.311,166.243H165.285v-5.456a8.542,8.542,0,0,0-8.524-8.507H127.719a8.507,8.507,0,0,0-8.507,8.507v5.456H86.685A2.685,2.685,0,0,0,84,168.927v26.845a2.7,2.7,0,0,0,2.179,2.65h.1l47.641,9.4,7.792,1.517a2.563,2.563,0,0,0,1.028,0l7.809-1.534,25.4-5a114.322,114.322,0,0,1,.715-18.338,115.644,115.644,0,0,1,3.643-18.216Zm-54.649-5.456a2.074,2.074,0,0,1,2.057-2.04H156.76a2.057,2.057,0,0,1,2.039,2.039v5.456h-33.12Z" transform="translate(-84 8.058)" fill="#fff" opacity="0.6"/>
      <rect id="Rectángulo_42" data-name="Rectángulo 42" width="16.63" height="12.411" rx="1.48" transform="translate(49.925 210.071)" fill="#4984ff"/>
      <rect id="Rectángulo_43" data-name="Rectángulo 43" width="16.63" height="12.411" rx="1.48" transform="translate(49.925 210.071)" fill="#fff" opacity="0.3"/>
      <g id="Grupo_27" data-name="Grupo 27">
        <rect id="Rectángulo_44" data-name="Rectángulo 44" width="111.93" height="49.855" rx="1.56" transform="translate(445.976 402.71) rotate(180)" fill="#4984ff"/>
        <rect id="Rectángulo_45" data-name="Rectángulo 45" width="111.93" height="49.855" rx="1.56" transform="translate(445.976 402.71) rotate(180)" fill="#fff" opacity="0.6"/>
        <path id="Trazado_49" data-name="Trazado 49" d="M278.389,262.73H384.863a2.719,2.719,0,0,1,2.719,2.719v14.242l-55.5,10.912a2.562,2.562,0,0,1-1.028,0L275.6,279.692V265.45a2.719,2.719,0,0,1,2.789-2.719Z" transform="translate(58.394 90.142)" opacity="0.1"/>
        <path id="Trazado_50" data-name="Trazado 50" d="M277.044,258.223h32.528v-5.456a8.524,8.524,0,0,1,8.507-8.507h29.059a8.524,8.524,0,0,1,8.507,8.507v5.456h32.51a2.684,2.684,0,0,1,2.685,2.685V287.77a2.7,2.7,0,0,1-2.161,2.632l-55.625,10.93a3.487,3.487,0,0,1-1.046,0L276.452,290.4a2.7,2.7,0,0,1-2.162-2.632V260.907a2.685,2.685,0,0,1,2.754-2.685Zm72.133-5.456a2.074,2.074,0,0,0-2.04-2.057H318.079a2.092,2.092,0,0,0-2.057,2.057v5.456h33.12Z" transform="translate(57.42 76.416)" fill="#4984ff"/>
        <path id="Trazado_51" data-name="Trazado 51" d="M277.044,258.223h32.528v-5.456a8.524,8.524,0,0,1,8.507-8.507h29.059a8.524,8.524,0,0,1,8.507,8.507v5.456h32.51a2.684,2.684,0,0,1,2.685,2.685V287.77a2.7,2.7,0,0,1-2.161,2.632l-55.625,10.93a3.487,3.487,0,0,1-1.046,0L276.452,290.4a2.7,2.7,0,0,1-2.162-2.632V260.907a2.685,2.685,0,0,1,2.754-2.685Zm72.133-5.456a2.074,2.074,0,0,0-2.04-2.057H318.079a2.092,2.092,0,0,0-2.057,2.057v5.456h33.12Z" transform="translate(57.42 76.416)" fill="#fff" opacity="0.6"/>
        <rect id="Rectángulo_46" data-name="Rectángulo 46" width="16.63" height="12.411" rx="1.48" transform="translate(398.335 382.82) rotate(180)" fill="#4984ff"/>
        <rect id="Rectángulo_47" data-name="Rectángulo 47" width="16.63" height="12.411" rx="1.48" transform="translate(398.335 382.82) rotate(180)" fill="#fff" opacity="0.3"/>
      </g>
      <g id="Grupo_28" data-name="Grupo 28" transform="translate(-332 158)">
        <rect id="Rectángulo_44-2" data-name="Rectángulo 44" width="111.93" height="49.855" rx="1.56" transform="translate(445.976 402.71) rotate(180)" fill="#4984ff"/>
        <rect id="Rectángulo_45-2" data-name="Rectángulo 45" width="111.93" height="49.855" rx="1.56" transform="translate(445.976 402.71) rotate(180)" fill="#fff" opacity="0.6"/>
        <path id="Trazado_49-2" data-name="Trazado 49" d="M278.389,262.73H384.863a2.719,2.719,0,0,1,2.719,2.719v14.242l-55.5,10.912a2.562,2.562,0,0,1-1.028,0L275.6,279.692V265.45a2.719,2.719,0,0,1,2.789-2.719Z" transform="translate(58.394 90.142)" opacity="0.1"/>
        <path id="Trazado_50-2" data-name="Trazado 50" d="M277.044,258.223h32.528v-5.456a8.524,8.524,0,0,1,8.507-8.507h29.059a8.524,8.524,0,0,1,8.507,8.507v5.456h32.51a2.684,2.684,0,0,1,2.685,2.685V287.77a2.7,2.7,0,0,1-2.161,2.632l-55.625,10.93a3.487,3.487,0,0,1-1.046,0L276.452,290.4a2.7,2.7,0,0,1-2.162-2.632V260.907a2.685,2.685,0,0,1,2.754-2.685Zm72.133-5.456a2.074,2.074,0,0,0-2.04-2.057H318.079a2.092,2.092,0,0,0-2.057,2.057v5.456h33.12Z" transform="translate(57.42 76.416)" fill="#4984ff"/>
        <path id="Trazado_51-2" data-name="Trazado 51" d="M277.044,258.223h32.528v-5.456a8.524,8.524,0,0,1,8.507-8.507h29.059a8.524,8.524,0,0,1,8.507,8.507v5.456h32.51a2.684,2.684,0,0,1,2.685,2.685V287.77a2.7,2.7,0,0,1-2.161,2.632l-55.625,10.93a3.487,3.487,0,0,1-1.046,0L276.452,290.4a2.7,2.7,0,0,1-2.162-2.632V260.907a2.685,2.685,0,0,1,2.754-2.685Zm72.133-5.456a2.074,2.074,0,0,0-2.04-2.057H318.079a2.092,2.092,0,0,0-2.057,2.057v5.456h33.12Z" transform="translate(57.42 76.416)" fill="#fff" opacity="0.6"/>
        <rect id="Rectángulo_46-2" data-name="Rectángulo 46" width="16.63" height="12.411" rx="1.48" transform="translate(398.335 382.82) rotate(180)" fill="#4984ff"/>
        <rect id="Rectángulo_47-2" data-name="Rectángulo 47" width="16.63" height="12.411" rx="1.48" transform="translate(398.335 382.82) rotate(180)" fill="#fff" opacity="0.3"/>
      </g>
      <g id="Grupo_41" data-name="Grupo 41" transform="translate(-329.547 314.984)">
        <rect id="Rectángulo_44-3" data-name="Rectángulo 44" width="111.93" height="49.855" rx="1.56" transform="translate(445.976 402.71) rotate(180)" fill="#4984ff"/>
        <rect id="Rectángulo_45-3" data-name="Rectángulo 45" width="111.93" height="49.855" rx="1.56" transform="translate(445.976 402.71) rotate(180)" fill="#fff" opacity="0.6"/>
        <path id="Trazado_49-3" data-name="Trazado 49" d="M278.389,262.73H384.863a2.719,2.719,0,0,1,2.719,2.719v14.242l-55.5,10.912a2.562,2.562,0,0,1-1.028,0L275.6,279.692V265.45a2.719,2.719,0,0,1,2.789-2.719Z" transform="translate(58.394 90.142)" opacity="0.1"/>
        <path id="Trazado_50-3" data-name="Trazado 50" d="M277.044,258.223h32.528v-5.456a8.524,8.524,0,0,1,8.507-8.507h29.059a8.524,8.524,0,0,1,8.507,8.507v5.456h32.51a2.684,2.684,0,0,1,2.685,2.685V287.77a2.7,2.7,0,0,1-2.161,2.632l-55.625,10.93a3.487,3.487,0,0,1-1.046,0L276.452,290.4a2.7,2.7,0,0,1-2.162-2.632V260.907a2.685,2.685,0,0,1,2.754-2.685Zm72.133-5.456a2.074,2.074,0,0,0-2.04-2.057H318.079a2.092,2.092,0,0,0-2.057,2.057v5.456h33.12Z" transform="translate(57.42 76.416)" fill="#4984ff"/>
        <path id="Trazado_51-3" data-name="Trazado 51" d="M277.044,258.223h32.528v-5.456a8.524,8.524,0,0,1,8.507-8.507h29.059a8.524,8.524,0,0,1,8.507,8.507v5.456h32.51a2.684,2.684,0,0,1,2.685,2.685V287.77a2.7,2.7,0,0,1-2.161,2.632l-55.625,10.93a3.487,3.487,0,0,1-1.046,0L276.452,290.4a2.7,2.7,0,0,1-2.162-2.632V260.907a2.685,2.685,0,0,1,2.754-2.685Zm72.133-5.456a2.074,2.074,0,0,0-2.04-2.057H318.079a2.092,2.092,0,0,0-2.057,2.057v5.456h33.12Z" transform="translate(57.42 76.416)" fill="#fff" opacity="0.6"/>
        <rect id="Rectángulo_46-3" data-name="Rectángulo 46" width="16.63" height="12.411" rx="1.48" transform="translate(398.335 382.82) rotate(180)" fill="#4984ff"/>
        <rect id="Rectángulo_47-3" data-name="Rectángulo 47" width="16.63" height="12.411" rx="1.48" transform="translate(398.335 382.82) rotate(180)" fill="#fff" opacity="0.3"/>
      </g>
      <g id="Grupo_29" data-name="Grupo 29" transform="translate(-164 158)">
        <rect id="Rectángulo_44-4" data-name="Rectángulo 44" width="111.93" height="49.855" rx="1.56" transform="translate(445.976 402.71) rotate(180)" fill="#4984ff"/>
        <rect id="Rectángulo_45-4" data-name="Rectángulo 45" width="111.93" height="49.855" rx="1.56" transform="translate(445.976 402.71) rotate(180)" fill="#fff" opacity="0.6"/>
        <path id="Trazado_49-4" data-name="Trazado 49" d="M278.389,262.73H384.863a2.719,2.719,0,0,1,2.719,2.719v14.242l-55.5,10.912a2.562,2.562,0,0,1-1.028,0L275.6,279.692V265.45a2.719,2.719,0,0,1,2.789-2.719Z" transform="translate(58.394 90.142)" opacity="0.1"/>
        <path id="Trazado_50-4" data-name="Trazado 50" d="M277.044,258.223h32.528v-5.456a8.524,8.524,0,0,1,8.507-8.507h29.059a8.524,8.524,0,0,1,8.507,8.507v5.456h32.51a2.684,2.684,0,0,1,2.685,2.685V287.77a2.7,2.7,0,0,1-2.161,2.632l-55.625,10.93a3.487,3.487,0,0,1-1.046,0L276.452,290.4a2.7,2.7,0,0,1-2.162-2.632V260.907a2.685,2.685,0,0,1,2.754-2.685Zm72.133-5.456a2.074,2.074,0,0,0-2.04-2.057H318.079a2.092,2.092,0,0,0-2.057,2.057v5.456h33.12Z" transform="translate(57.42 76.416)" fill="#4984ff"/>
        <path id="Trazado_51-4" data-name="Trazado 51" d="M277.044,258.223h32.528v-5.456a8.524,8.524,0,0,1,8.507-8.507h29.059a8.524,8.524,0,0,1,8.507,8.507v5.456h32.51a2.684,2.684,0,0,1,2.685,2.685V287.77a2.7,2.7,0,0,1-2.161,2.632l-55.625,10.93a3.487,3.487,0,0,1-1.046,0L276.452,290.4a2.7,2.7,0,0,1-2.162-2.632V260.907a2.685,2.685,0,0,1,2.754-2.685Zm72.133-5.456a2.074,2.074,0,0,0-2.04-2.057H318.079a2.092,2.092,0,0,0-2.057,2.057v5.456h33.12Z" transform="translate(57.42 76.416)" fill="#fff" opacity="0.6"/>
        <rect id="Rectángulo_46-4" data-name="Rectángulo 46" width="16.63" height="12.411" rx="1.48" transform="translate(398.335 382.82) rotate(180)" fill="#4984ff"/>
        <rect id="Rectángulo_47-4" data-name="Rectángulo 47" width="16.63" height="12.411" rx="1.48" transform="translate(398.335 382.82) rotate(180)" fill="#fff" opacity="0.3"/>
      </g>
      <g id="Grupo_40" data-name="Grupo 40" transform="translate(-161.547 314.984)">
        <rect id="Rectángulo_44-5" data-name="Rectángulo 44" width="111.93" height="49.855" rx="1.56" transform="translate(445.976 402.71) rotate(180)" fill="#4984ff"/>
        <rect id="Rectángulo_45-5" data-name="Rectángulo 45" width="111.93" height="49.855" rx="1.56" transform="translate(445.976 402.71) rotate(180)" fill="#fff" opacity="0.6"/>
        <path id="Trazado_49-5" data-name="Trazado 49" d="M278.389,262.73H384.863a2.719,2.719,0,0,1,2.719,2.719v14.242l-55.5,10.912a2.562,2.562,0,0,1-1.028,0L275.6,279.692V265.45a2.719,2.719,0,0,1,2.789-2.719Z" transform="translate(58.394 90.142)" opacity="0.1"/>
        <path id="Trazado_50-5" data-name="Trazado 50" d="M277.044,258.223h32.528v-5.456a8.524,8.524,0,0,1,8.507-8.507h29.059a8.524,8.524,0,0,1,8.507,8.507v5.456h32.51a2.684,2.684,0,0,1,2.685,2.685V287.77a2.7,2.7,0,0,1-2.161,2.632l-55.625,10.93a3.487,3.487,0,0,1-1.046,0L276.452,290.4a2.7,2.7,0,0,1-2.162-2.632V260.907a2.685,2.685,0,0,1,2.754-2.685Zm72.133-5.456a2.074,2.074,0,0,0-2.04-2.057H318.079a2.092,2.092,0,0,0-2.057,2.057v5.456h33.12Z" transform="translate(57.42 76.416)" fill="#4984ff"/>
        <path id="Trazado_51-5" data-name="Trazado 51" d="M277.044,258.223h32.528v-5.456a8.524,8.524,0,0,1,8.507-8.507h29.059a8.524,8.524,0,0,1,8.507,8.507v5.456h32.51a2.684,2.684,0,0,1,2.685,2.685V287.77a2.7,2.7,0,0,1-2.161,2.632l-55.625,10.93a3.487,3.487,0,0,1-1.046,0L276.452,290.4a2.7,2.7,0,0,1-2.162-2.632V260.907a2.685,2.685,0,0,1,2.754-2.685Zm72.133-5.456a2.074,2.074,0,0,0-2.04-2.057H318.079a2.092,2.092,0,0,0-2.057,2.057v5.456h33.12Z" transform="translate(57.42 76.416)" fill="#fff" opacity="0.6"/>
        <rect id="Rectángulo_46-5" data-name="Rectángulo 46" width="16.63" height="12.411" rx="1.48" transform="translate(398.335 382.82) rotate(180)" fill="#4984ff"/>
        <rect id="Rectángulo_47-5" data-name="Rectángulo 47" width="16.63" height="12.411" rx="1.48" transform="translate(398.335 382.82) rotate(180)" fill="#fff" opacity="0.3"/>
      </g>
      <g id="Grupo_32" data-name="Grupo 32" transform="translate(161 158)">
        <rect id="Rectángulo_44-6" data-name="Rectángulo 44" width="111.93" height="49.855" rx="1.56" transform="translate(445.976 402.71) rotate(180)" fill="#4984ff"/>
        <rect id="Rectángulo_45-6" data-name="Rectángulo 45" width="111.93" height="49.855" rx="1.56" transform="translate(445.976 402.71) rotate(180)" fill="#fff" opacity="0.6"/>
        <path id="Trazado_49-6" data-name="Trazado 49" d="M278.389,262.73H384.863a2.719,2.719,0,0,1,2.719,2.719v14.242l-55.5,10.912a2.562,2.562,0,0,1-1.028,0L275.6,279.692V265.45a2.719,2.719,0,0,1,2.789-2.719Z" transform="translate(58.394 90.142)" opacity="0.1"/>
        <path id="Trazado_50-6" data-name="Trazado 50" d="M277.044,258.223h32.528v-5.456a8.524,8.524,0,0,1,8.507-8.507h29.059a8.524,8.524,0,0,1,8.507,8.507v5.456h32.51a2.684,2.684,0,0,1,2.685,2.685V287.77a2.7,2.7,0,0,1-2.161,2.632l-55.625,10.93a3.487,3.487,0,0,1-1.046,0L276.452,290.4a2.7,2.7,0,0,1-2.162-2.632V260.907a2.685,2.685,0,0,1,2.754-2.685Zm72.133-5.456a2.074,2.074,0,0,0-2.04-2.057H318.079a2.092,2.092,0,0,0-2.057,2.057v5.456h33.12Z" transform="translate(57.42 76.416)" fill="#4984ff"/>
        <path id="Trazado_51-6" data-name="Trazado 51" d="M277.044,258.223h32.528v-5.456a8.524,8.524,0,0,1,8.507-8.507h29.059a8.524,8.524,0,0,1,8.507,8.507v5.456h32.51a2.684,2.684,0,0,1,2.685,2.685V287.77a2.7,2.7,0,0,1-2.161,2.632l-55.625,10.93a3.487,3.487,0,0,1-1.046,0L276.452,290.4a2.7,2.7,0,0,1-2.162-2.632V260.907a2.685,2.685,0,0,1,2.754-2.685Zm72.133-5.456a2.074,2.074,0,0,0-2.04-2.057H318.079a2.092,2.092,0,0,0-2.057,2.057v5.456h33.12Z" transform="translate(57.42 76.416)" fill="#fff" opacity="0.6"/>
        <rect id="Rectángulo_46-6" data-name="Rectángulo 46" width="16.63" height="12.411" rx="1.48" transform="translate(398.335 382.82) rotate(180)" fill="#4984ff"/>
        <rect id="Rectángulo_47-6" data-name="Rectángulo 47" width="16.63" height="12.411" rx="1.48" transform="translate(398.335 382.82) rotate(180)" fill="#fff" opacity="0.3"/>
      </g>
      <g id="Grupo_34" data-name="Grupo 34" transform="translate(161 5)">
        <rect id="Rectángulo_44-7" data-name="Rectángulo 44" width="111.93" height="49.855" rx="1.56" transform="translate(445.976 402.71) rotate(180)" fill="#4984ff"/>
        <rect id="Rectángulo_45-7" data-name="Rectángulo 45" width="111.93" height="49.855" rx="1.56" transform="translate(445.976 402.71) rotate(180)" fill="#fff" opacity="0.6"/>
        <path id="Trazado_49-7" data-name="Trazado 49" d="M278.389,262.73H384.863a2.719,2.719,0,0,1,2.719,2.719v14.242l-55.5,10.912a2.562,2.562,0,0,1-1.028,0L275.6,279.692V265.45a2.719,2.719,0,0,1,2.789-2.719Z" transform="translate(58.394 90.142)" opacity="0.1"/>
        <path id="Trazado_50-7" data-name="Trazado 50" d="M277.044,258.223h32.528v-5.456a8.524,8.524,0,0,1,8.507-8.507h29.059a8.524,8.524,0,0,1,8.507,8.507v5.456h32.51a2.684,2.684,0,0,1,2.685,2.685V287.77a2.7,2.7,0,0,1-2.161,2.632l-55.625,10.93a3.487,3.487,0,0,1-1.046,0L276.452,290.4a2.7,2.7,0,0,1-2.162-2.632V260.907a2.685,2.685,0,0,1,2.754-2.685Zm72.133-5.456a2.074,2.074,0,0,0-2.04-2.057H318.079a2.092,2.092,0,0,0-2.057,2.057v5.456h33.12Z" transform="translate(57.42 76.416)" fill="#4984ff"/>
        <path id="Trazado_51-7" data-name="Trazado 51" d="M277.044,258.223h32.528v-5.456a8.524,8.524,0,0,1,8.507-8.507h29.059a8.524,8.524,0,0,1,8.507,8.507v5.456h32.51a2.684,2.684,0,0,1,2.685,2.685V287.77a2.7,2.7,0,0,1-2.161,2.632l-55.625,10.93a3.487,3.487,0,0,1-1.046,0L276.452,290.4a2.7,2.7,0,0,1-2.162-2.632V260.907a2.685,2.685,0,0,1,2.754-2.685Zm72.133-5.456a2.074,2.074,0,0,0-2.04-2.057H318.079a2.092,2.092,0,0,0-2.057,2.057v5.456h33.12Z" transform="translate(57.42 76.416)" fill="#fff" opacity="0.6"/>
        <rect id="Rectángulo_46-7" data-name="Rectángulo 46" width="16.63" height="12.411" rx="1.48" transform="translate(398.335 382.82) rotate(180)" fill="#4984ff"/>
        <rect id="Rectángulo_47-7" data-name="Rectángulo 47" width="16.63" height="12.411" rx="1.48" transform="translate(398.335 382.82) rotate(180)" fill="#fff" opacity="0.3"/>
      </g>
      <g id="Grupo_36" data-name="Grupo 36" transform="translate(161 -160)">
        <rect id="Rectángulo_44-8" data-name="Rectángulo 44" width="111.93" height="49.855" rx="1.56" transform="translate(445.976 402.71) rotate(180)" fill="#4984ff"/>
        <rect id="Rectángulo_45-8" data-name="Rectángulo 45" width="111.93" height="49.855" rx="1.56" transform="translate(445.976 402.71) rotate(180)" fill="#fff" opacity="0.6"/>
        <path id="Trazado_49-8" data-name="Trazado 49" d="M278.389,262.73H384.863a2.719,2.719,0,0,1,2.719,2.719v14.242l-55.5,10.912a2.562,2.562,0,0,1-1.028,0L275.6,279.692V265.45a2.719,2.719,0,0,1,2.789-2.719Z" transform="translate(58.394 90.142)" opacity="0.1"/>
        <path id="Trazado_50-8" data-name="Trazado 50" d="M277.044,258.223h32.528v-5.456a8.524,8.524,0,0,1,8.507-8.507h29.059a8.524,8.524,0,0,1,8.507,8.507v5.456h32.51a2.684,2.684,0,0,1,2.685,2.685V287.77a2.7,2.7,0,0,1-2.161,2.632l-55.625,10.93a3.487,3.487,0,0,1-1.046,0L276.452,290.4a2.7,2.7,0,0,1-2.162-2.632V260.907a2.685,2.685,0,0,1,2.754-2.685Zm72.133-5.456a2.074,2.074,0,0,0-2.04-2.057H318.079a2.092,2.092,0,0,0-2.057,2.057v5.456h33.12Z" transform="translate(57.42 76.416)" fill="#4984ff"/>
        <path id="Trazado_51-8" data-name="Trazado 51" d="M277.044,258.223h32.528v-5.456a8.524,8.524,0,0,1,8.507-8.507h29.059a8.524,8.524,0,0,1,8.507,8.507v5.456h32.51a2.684,2.684,0,0,1,2.685,2.685V287.77a2.7,2.7,0,0,1-2.161,2.632l-55.625,10.93a3.487,3.487,0,0,1-1.046,0L276.452,290.4a2.7,2.7,0,0,1-2.162-2.632V260.907a2.685,2.685,0,0,1,2.754-2.685Zm72.133-5.456a2.074,2.074,0,0,0-2.04-2.057H318.079a2.092,2.092,0,0,0-2.057,2.057v5.456h33.12Z" transform="translate(57.42 76.416)" fill="#fff" opacity="0.6"/>
        <rect id="Rectángulo_46-8" data-name="Rectángulo 46" width="16.63" height="12.411" rx="1.48" transform="translate(398.335 382.82) rotate(180)" fill="#4984ff"/>
        <rect id="Rectángulo_47-8" data-name="Rectángulo 47" width="16.63" height="12.411" rx="1.48" transform="translate(398.335 382.82) rotate(180)" fill="#fff" opacity="0.3"/>
      </g>
      <g id="Grupo_38" data-name="Grupo 38" transform="translate(161 -321)">
        <rect id="Rectángulo_44-9" data-name="Rectángulo 44" width="111.93" height="49.855" rx="1.56" transform="translate(445.976 402.71) rotate(180)" fill="#4984ff"/>
        <rect id="Rectángulo_45-9" data-name="Rectángulo 45" width="111.93" height="49.855" rx="1.56" transform="translate(445.976 402.71) rotate(180)" fill="#fff" opacity="0.6"/>
        <path id="Trazado_49-9" data-name="Trazado 49" d="M278.389,262.73H384.863a2.719,2.719,0,0,1,2.719,2.719v14.242l-55.5,10.912a2.562,2.562,0,0,1-1.028,0L275.6,279.692V265.45a2.719,2.719,0,0,1,2.789-2.719Z" transform="translate(58.394 90.142)" opacity="0.1"/>
        <path id="Trazado_50-9" data-name="Trazado 50" d="M277.044,258.223h32.528v-5.456a8.524,8.524,0,0,1,8.507-8.507h29.059a8.524,8.524,0,0,1,8.507,8.507v5.456h32.51a2.684,2.684,0,0,1,2.685,2.685V287.77a2.7,2.7,0,0,1-2.161,2.632l-55.625,10.93a3.487,3.487,0,0,1-1.046,0L276.452,290.4a2.7,2.7,0,0,1-2.162-2.632V260.907a2.685,2.685,0,0,1,2.754-2.685Zm72.133-5.456a2.074,2.074,0,0,0-2.04-2.057H318.079a2.092,2.092,0,0,0-2.057,2.057v5.456h33.12Z" transform="translate(57.42 76.416)" fill="#4984ff"/>
        <path id="Trazado_51-9" data-name="Trazado 51" d="M277.044,258.223h32.528v-5.456a8.524,8.524,0,0,1,8.507-8.507h29.059a8.524,8.524,0,0,1,8.507,8.507v5.456h32.51a2.684,2.684,0,0,1,2.685,2.685V287.77a2.7,2.7,0,0,1-2.161,2.632l-55.625,10.93a3.487,3.487,0,0,1-1.046,0L276.452,290.4a2.7,2.7,0,0,1-2.162-2.632V260.907a2.685,2.685,0,0,1,2.754-2.685Zm72.133-5.456a2.074,2.074,0,0,0-2.04-2.057H318.079a2.092,2.092,0,0,0-2.057,2.057v5.456h33.12Z" transform="translate(57.42 76.416)" fill="#fff" opacity="0.6"/>
        <rect id="Rectángulo_46-9" data-name="Rectángulo 46" width="16.63" height="12.411" rx="1.48" transform="translate(398.335 382.82) rotate(180)" fill="#4984ff"/>
        <rect id="Rectángulo_47-9" data-name="Rectángulo 47" width="16.63" height="12.411" rx="1.48" transform="translate(398.335 382.82) rotate(180)" fill="#fff" opacity="0.3"/>
      </g>
      <g id="Grupo_30" data-name="Grupo 30" transform="translate(-2 158)">
        <rect id="Rectángulo_44-10" data-name="Rectángulo 44" width="111.93" height="49.855" rx="1.56" transform="translate(445.976 402.71) rotate(180)" fill="#4984ff"/>
        <rect id="Rectángulo_45-10" data-name="Rectángulo 45" width="111.93" height="49.855" rx="1.56" transform="translate(445.976 402.71) rotate(180)" fill="#fff" opacity="0.6"/>
        <path id="Trazado_49-10" data-name="Trazado 49" d="M278.389,262.73H384.863a2.719,2.719,0,0,1,2.719,2.719v14.242l-55.5,10.912a2.562,2.562,0,0,1-1.028,0L275.6,279.692V265.45a2.719,2.719,0,0,1,2.789-2.719Z" transform="translate(58.394 90.142)" opacity="0.1"/>
        <path id="Trazado_50-10" data-name="Trazado 50" d="M277.044,258.223h32.528v-5.456a8.524,8.524,0,0,1,8.507-8.507h29.059a8.524,8.524,0,0,1,8.507,8.507v5.456h32.51a2.684,2.684,0,0,1,2.685,2.685V287.77a2.7,2.7,0,0,1-2.161,2.632l-55.625,10.93a3.487,3.487,0,0,1-1.046,0L276.452,290.4a2.7,2.7,0,0,1-2.162-2.632V260.907a2.685,2.685,0,0,1,2.754-2.685Zm72.133-5.456a2.074,2.074,0,0,0-2.04-2.057H318.079a2.092,2.092,0,0,0-2.057,2.057v5.456h33.12Z" transform="translate(57.42 76.416)" fill="#4984ff"/>
        <path id="Trazado_51-10" data-name="Trazado 51" d="M277.044,258.223h32.528v-5.456a8.524,8.524,0,0,1,8.507-8.507h29.059a8.524,8.524,0,0,1,8.507,8.507v5.456h32.51a2.684,2.684,0,0,1,2.685,2.685V287.77a2.7,2.7,0,0,1-2.161,2.632l-55.625,10.93a3.487,3.487,0,0,1-1.046,0L276.452,290.4a2.7,2.7,0,0,1-2.162-2.632V260.907a2.685,2.685,0,0,1,2.754-2.685Zm72.133-5.456a2.074,2.074,0,0,0-2.04-2.057H318.079a2.092,2.092,0,0,0-2.057,2.057v5.456h33.12Z" transform="translate(57.42 76.416)" fill="#fff" opacity="0.6"/>
        <rect id="Rectángulo_46-10" data-name="Rectángulo 46" width="16.63" height="12.411" rx="1.48" transform="translate(398.335 382.82) rotate(180)" fill="#4984ff"/>
        <rect id="Rectángulo_47-10" data-name="Rectángulo 47" width="16.63" height="12.411" rx="1.48" transform="translate(398.335 382.82) rotate(180)" fill="#fff" opacity="0.3"/>
      </g>
      <g id="Grupo_42" data-name="Grupo 42" transform="translate(0.453 314.984)">
        <rect id="Rectángulo_44-11" data-name="Rectángulo 44" width="111.93" height="49.855" rx="1.56" transform="translate(445.976 402.71) rotate(180)" fill="#4984ff"/>
        <rect id="Rectángulo_45-11" data-name="Rectángulo 45" width="111.93" height="49.855" rx="1.56" transform="translate(445.976 402.71) rotate(180)" fill="#fff" opacity="0.6"/>
        <path id="Trazado_49-11" data-name="Trazado 49" d="M278.389,262.73H384.863a2.719,2.719,0,0,1,2.719,2.719v14.242l-55.5,10.912a2.562,2.562,0,0,1-1.028,0L275.6,279.692V265.45a2.719,2.719,0,0,1,2.789-2.719Z" transform="translate(58.394 90.142)" opacity="0.1"/>
        <path id="Trazado_50-11" data-name="Trazado 50" d="M277.044,258.223h32.528v-5.456a8.524,8.524,0,0,1,8.507-8.507h29.059a8.524,8.524,0,0,1,8.507,8.507v5.456h32.51a2.684,2.684,0,0,1,2.685,2.685V287.77a2.7,2.7,0,0,1-2.161,2.632l-55.625,10.93a3.487,3.487,0,0,1-1.046,0L276.452,290.4a2.7,2.7,0,0,1-2.162-2.632V260.907a2.685,2.685,0,0,1,2.754-2.685Zm72.133-5.456a2.074,2.074,0,0,0-2.04-2.057H318.079a2.092,2.092,0,0,0-2.057,2.057v5.456h33.12Z" transform="translate(57.42 76.416)" fill="#4984ff"/>
        <path id="Trazado_51-11" data-name="Trazado 51" d="M277.044,258.223h32.528v-5.456a8.524,8.524,0,0,1,8.507-8.507h29.059a8.524,8.524,0,0,1,8.507,8.507v5.456h32.51a2.684,2.684,0,0,1,2.685,2.685V287.77a2.7,2.7,0,0,1-2.161,2.632l-55.625,10.93a3.487,3.487,0,0,1-1.046,0L276.452,290.4a2.7,2.7,0,0,1-2.162-2.632V260.907a2.685,2.685,0,0,1,2.754-2.685Zm72.133-5.456a2.074,2.074,0,0,0-2.04-2.057H318.079a2.092,2.092,0,0,0-2.057,2.057v5.456h33.12Z" transform="translate(57.42 76.416)" fill="#fff" opacity="0.6"/>
        <rect id="Rectángulo_46-11" data-name="Rectángulo 46" width="16.63" height="12.411" rx="1.48" transform="translate(398.335 382.82) rotate(180)" fill="#4984ff"/>
        <rect id="Rectángulo_47-11" data-name="Rectángulo 47" width="16.63" height="12.411" rx="1.48" transform="translate(398.335 382.82) rotate(180)" fill="#fff" opacity="0.3"/>
      </g>
      <g id="Grupo_43" data-name="Grupo 43" transform="translate(164.906 315.567)">
        <rect id="Rectángulo_44-12" data-name="Rectángulo 44" width="111.93" height="49.855" rx="1.56" transform="translate(445.976 402.71) rotate(180)" fill="#4984ff"/>
        <rect id="Rectángulo_45-12" data-name="Rectángulo 45" width="111.93" height="49.855" rx="1.56" transform="translate(445.976 402.71) rotate(180)" fill="#fff" opacity="0.6"/>
        <path id="Trazado_49-12" data-name="Trazado 49" d="M278.389,262.73H384.863a2.719,2.719,0,0,1,2.719,2.719v14.242l-55.5,10.912a2.562,2.562,0,0,1-1.028,0L275.6,279.692V265.45a2.719,2.719,0,0,1,2.789-2.719Z" transform="translate(58.394 90.142)" opacity="0.1"/>
        <path id="Trazado_50-12" data-name="Trazado 50" d="M277.044,258.223h32.528v-5.456a8.524,8.524,0,0,1,8.507-8.507h29.059a8.524,8.524,0,0,1,8.507,8.507v5.456h32.51a2.684,2.684,0,0,1,2.685,2.685V287.77a2.7,2.7,0,0,1-2.161,2.632l-55.625,10.93a3.487,3.487,0,0,1-1.046,0L276.452,290.4a2.7,2.7,0,0,1-2.162-2.632V260.907a2.685,2.685,0,0,1,2.754-2.685Zm72.133-5.456a2.074,2.074,0,0,0-2.04-2.057H318.079a2.092,2.092,0,0,0-2.057,2.057v5.456h33.12Z" transform="translate(57.42 76.416)" fill="#4984ff"/>
        <path id="Trazado_51-12" data-name="Trazado 51" d="M277.044,258.223h32.528v-5.456a8.524,8.524,0,0,1,8.507-8.507h29.059a8.524,8.524,0,0,1,8.507,8.507v5.456h32.51a2.684,2.684,0,0,1,2.685,2.685V287.77a2.7,2.7,0,0,1-2.161,2.632l-55.625,10.93a3.487,3.487,0,0,1-1.046,0L276.452,290.4a2.7,2.7,0,0,1-2.162-2.632V260.907a2.685,2.685,0,0,1,2.754-2.685Zm72.133-5.456a2.074,2.074,0,0,0-2.04-2.057H318.079a2.092,2.092,0,0,0-2.057,2.057v5.456h33.12Z" transform="translate(57.42 76.416)" fill="#fff" opacity="0.6"/>
        <rect id="Rectángulo_46-12" data-name="Rectángulo 46" width="16.63" height="12.411" rx="1.48" transform="translate(398.335 382.82) rotate(180)" fill="#4984ff"/>
        <rect id="Rectángulo_47-12" data-name="Rectángulo 47" width="16.63" height="12.411" rx="1.48" transform="translate(398.335 382.82) rotate(180)" fill="#fff" opacity="0.3"/>
      </g>
      <g id="Grupo_31" data-name="Grupo 31" transform="translate(317 158)">
        <rect id="Rectángulo_44-13" data-name="Rectángulo 44" width="111.93" height="49.855" rx="1.56" transform="translate(445.976 402.71) rotate(180)" fill="#4984ff"/>
        <rect id="Rectángulo_45-13" data-name="Rectángulo 45" width="111.93" height="49.855" rx="1.56" transform="translate(445.976 402.71) rotate(180)" fill="#fff" opacity="0.6"/>
        <path id="Trazado_49-13" data-name="Trazado 49" d="M278.389,262.73H384.863a2.719,2.719,0,0,1,2.719,2.719v14.242l-55.5,10.912a2.562,2.562,0,0,1-1.028,0L275.6,279.692V265.45a2.719,2.719,0,0,1,2.789-2.719Z" transform="translate(58.394 90.142)" opacity="0.1"/>
        <path id="Trazado_50-13" data-name="Trazado 50" d="M277.044,258.223h32.528v-5.456a8.524,8.524,0,0,1,8.507-8.507h29.059a8.524,8.524,0,0,1,8.507,8.507v5.456h32.51a2.684,2.684,0,0,1,2.685,2.685V287.77a2.7,2.7,0,0,1-2.161,2.632l-55.625,10.93a3.487,3.487,0,0,1-1.046,0L276.452,290.4a2.7,2.7,0,0,1-2.162-2.632V260.907a2.685,2.685,0,0,1,2.754-2.685Zm72.133-5.456a2.074,2.074,0,0,0-2.04-2.057H318.079a2.092,2.092,0,0,0-2.057,2.057v5.456h33.12Z" transform="translate(57.42 76.416)" fill="#4984ff"/>
        <path id="Trazado_51-13" data-name="Trazado 51" d="M277.044,258.223h32.528v-5.456a8.524,8.524,0,0,1,8.507-8.507h29.059a8.524,8.524,0,0,1,8.507,8.507v5.456h32.51a2.684,2.684,0,0,1,2.685,2.685V287.77a2.7,2.7,0,0,1-2.161,2.632l-55.625,10.93a3.487,3.487,0,0,1-1.046,0L276.452,290.4a2.7,2.7,0,0,1-2.162-2.632V260.907a2.685,2.685,0,0,1,2.754-2.685Zm72.133-5.456a2.074,2.074,0,0,0-2.04-2.057H318.079a2.092,2.092,0,0,0-2.057,2.057v5.456h33.12Z" transform="translate(57.42 76.416)" fill="#fff" opacity="0.6"/>
        <rect id="Rectángulo_46-13" data-name="Rectángulo 46" width="16.63" height="12.411" rx="1.48" transform="translate(398.335 382.82) rotate(180)" fill="#4984ff"/>
        <rect id="Rectángulo_47-13" data-name="Rectángulo 47" width="16.63" height="12.411" rx="1.48" transform="translate(398.335 382.82) rotate(180)" fill="#fff" opacity="0.3"/>
      </g>
      <g id="Grupo_33" data-name="Grupo 33" transform="translate(317 5)">
        <rect id="Rectángulo_44-14" data-name="Rectángulo 44" width="111.93" height="49.855" rx="1.56" transform="translate(445.976 402.71) rotate(180)" fill="#4984ff"/>
        <rect id="Rectángulo_45-14" data-name="Rectángulo 45" width="111.93" height="49.855" rx="1.56" transform="translate(445.976 402.71) rotate(180)" fill="#fff" opacity="0.6"/>
        <path id="Trazado_49-14" data-name="Trazado 49" d="M278.389,262.73H384.863a2.719,2.719,0,0,1,2.719,2.719v14.242l-55.5,10.912a2.562,2.562,0,0,1-1.028,0L275.6,279.692V265.45a2.719,2.719,0,0,1,2.789-2.719Z" transform="translate(58.394 90.142)" opacity="0.1"/>
        <path id="Trazado_50-14" data-name="Trazado 50" d="M277.044,258.223h32.528v-5.456a8.524,8.524,0,0,1,8.507-8.507h29.059a8.524,8.524,0,0,1,8.507,8.507v5.456h32.51a2.684,2.684,0,0,1,2.685,2.685V287.77a2.7,2.7,0,0,1-2.161,2.632l-55.625,10.93a3.487,3.487,0,0,1-1.046,0L276.452,290.4a2.7,2.7,0,0,1-2.162-2.632V260.907a2.685,2.685,0,0,1,2.754-2.685Zm72.133-5.456a2.074,2.074,0,0,0-2.04-2.057H318.079a2.092,2.092,0,0,0-2.057,2.057v5.456h33.12Z" transform="translate(57.42 76.416)" fill="#4984ff"/>
        <path id="Trazado_51-14" data-name="Trazado 51" d="M277.044,258.223h32.528v-5.456a8.524,8.524,0,0,1,8.507-8.507h29.059a8.524,8.524,0,0,1,8.507,8.507v5.456h32.51a2.684,2.684,0,0,1,2.685,2.685V287.77a2.7,2.7,0,0,1-2.161,2.632l-55.625,10.93a3.487,3.487,0,0,1-1.046,0L276.452,290.4a2.7,2.7,0,0,1-2.162-2.632V260.907a2.685,2.685,0,0,1,2.754-2.685Zm72.133-5.456a2.074,2.074,0,0,0-2.04-2.057H318.079a2.092,2.092,0,0,0-2.057,2.057v5.456h33.12Z" transform="translate(57.42 76.416)" fill="#fff" opacity="0.6"/>
        <rect id="Rectángulo_46-14" data-name="Rectángulo 46" width="16.63" height="12.411" rx="1.48" transform="translate(398.335 382.82) rotate(180)" fill="#4984ff"/>
        <rect id="Rectángulo_47-14" data-name="Rectángulo 47" width="16.63" height="12.411" rx="1.48" transform="translate(398.335 382.82) rotate(180)" fill="#fff" opacity="0.3"/>
      </g>
      <g id="Grupo_35" data-name="Grupo 35" transform="translate(317 -160)">
        <rect id="Rectángulo_44-15" data-name="Rectángulo 44" width="111.93" height="49.855" rx="1.56" transform="translate(445.976 402.71) rotate(180)" fill="#4984ff"/>
        <rect id="Rectángulo_45-15" data-name="Rectángulo 45" width="111.93" height="49.855" rx="1.56" transform="translate(445.976 402.71) rotate(180)" fill="#fff" opacity="0.6"/>
        <path id="Trazado_49-15" data-name="Trazado 49" d="M278.389,262.73H384.863a2.719,2.719,0,0,1,2.719,2.719v14.242l-55.5,10.912a2.562,2.562,0,0,1-1.028,0L275.6,279.692V265.45a2.719,2.719,0,0,1,2.789-2.719Z" transform="translate(58.394 90.142)" opacity="0.1"/>
        <path id="Trazado_50-15" data-name="Trazado 50" d="M277.044,258.223h32.528v-5.456a8.524,8.524,0,0,1,8.507-8.507h29.059a8.524,8.524,0,0,1,8.507,8.507v5.456h32.51a2.684,2.684,0,0,1,2.685,2.685V287.77a2.7,2.7,0,0,1-2.161,2.632l-55.625,10.93a3.487,3.487,0,0,1-1.046,0L276.452,290.4a2.7,2.7,0,0,1-2.162-2.632V260.907a2.685,2.685,0,0,1,2.754-2.685Zm72.133-5.456a2.074,2.074,0,0,0-2.04-2.057H318.079a2.092,2.092,0,0,0-2.057,2.057v5.456h33.12Z" transform="translate(57.42 76.416)" fill="#4984ff"/>
        <path id="Trazado_51-15" data-name="Trazado 51" d="M277.044,258.223h32.528v-5.456a8.524,8.524,0,0,1,8.507-8.507h29.059a8.524,8.524,0,0,1,8.507,8.507v5.456h32.51a2.684,2.684,0,0,1,2.685,2.685V287.77a2.7,2.7,0,0,1-2.161,2.632l-55.625,10.93a3.487,3.487,0,0,1-1.046,0L276.452,290.4a2.7,2.7,0,0,1-2.162-2.632V260.907a2.685,2.685,0,0,1,2.754-2.685Zm72.133-5.456a2.074,2.074,0,0,0-2.04-2.057H318.079a2.092,2.092,0,0,0-2.057,2.057v5.456h33.12Z" transform="translate(57.42 76.416)" fill="#fff" opacity="0.6"/>
        <rect id="Rectángulo_46-15" data-name="Rectángulo 46" width="16.63" height="12.411" rx="1.48" transform="translate(398.335 382.82) rotate(180)" fill="#4984ff"/>
        <rect id="Rectángulo_47-15" data-name="Rectángulo 47" width="16.63" height="12.411" rx="1.48" transform="translate(398.335 382.82) rotate(180)" fill="#fff" opacity="0.3"/>
      </g>
      <g id="Grupo_37" data-name="Grupo 37" transform="translate(317 -321)">
        <rect id="Rectángulo_44-16" data-name="Rectángulo 44" width="111.93" height="49.855" rx="1.56" transform="translate(445.976 402.71) rotate(180)" fill="#4984ff"/>
        <rect id="Rectángulo_45-16" data-name="Rectángulo 45" width="111.93" height="49.855" rx="1.56" transform="translate(445.976 402.71) rotate(180)" fill="#fff" opacity="0.6"/>
        <path id="Trazado_49-16" data-name="Trazado 49" d="M278.389,262.73H384.863a2.719,2.719,0,0,1,2.719,2.719v14.242l-55.5,10.912a2.562,2.562,0,0,1-1.028,0L275.6,279.692V265.45a2.719,2.719,0,0,1,2.789-2.719Z" transform="translate(58.394 90.142)" opacity="0.1"/>
        <path id="Trazado_50-16" data-name="Trazado 50" d="M277.044,258.223h32.528v-5.456a8.524,8.524,0,0,1,8.507-8.507h29.059a8.524,8.524,0,0,1,8.507,8.507v5.456h32.51a2.684,2.684,0,0,1,2.685,2.685V287.77a2.7,2.7,0,0,1-2.161,2.632l-55.625,10.93a3.487,3.487,0,0,1-1.046,0L276.452,290.4a2.7,2.7,0,0,1-2.162-2.632V260.907a2.685,2.685,0,0,1,2.754-2.685Zm72.133-5.456a2.074,2.074,0,0,0-2.04-2.057H318.079a2.092,2.092,0,0,0-2.057,2.057v5.456h33.12Z" transform="translate(57.42 76.416)" fill="#4984ff"/>
        <path id="Trazado_51-16" data-name="Trazado 51" d="M277.044,258.223h32.528v-5.456a8.524,8.524,0,0,1,8.507-8.507h29.059a8.524,8.524,0,0,1,8.507,8.507v5.456h32.51a2.684,2.684,0,0,1,2.685,2.685V287.77a2.7,2.7,0,0,1-2.161,2.632l-55.625,10.93a3.487,3.487,0,0,1-1.046,0L276.452,290.4a2.7,2.7,0,0,1-2.162-2.632V260.907a2.685,2.685,0,0,1,2.754-2.685Zm72.133-5.456a2.074,2.074,0,0,0-2.04-2.057H318.079a2.092,2.092,0,0,0-2.057,2.057v5.456h33.12Z" transform="translate(57.42 76.416)" fill="#fff" opacity="0.6"/>
        <rect id="Rectángulo_46-16" data-name="Rectángulo 46" width="16.63" height="12.411" rx="1.48" transform="translate(398.335 382.82) rotate(180)" fill="#4984ff"/>
        <rect id="Rectángulo_47-16" data-name="Rectángulo 47" width="16.63" height="12.411" rx="1.48" transform="translate(398.335 382.82) rotate(180)" fill="#fff" opacity="0.3"/>
      </g>
      <rect id="Rectángulo_48" data-name="Rectángulo 48" width="111.93" height="49.855" rx="1.56" transform="translate(445.976 82.034) rotate(180)" fill="#4984ff"/>
      <rect id="Rectángulo_49" data-name="Rectángulo 49" width="111.93" height="49.855" rx="1.56" transform="translate(445.976 82.034) rotate(180)" fill="#fff" opacity="0.6"/>
      <path id="Trazado_52" data-name="Trazado 52" d="M278.359,78.77H384.833a2.719,2.719,0,0,1,2.719,2.719V95.731l-55.5,10.912a2.563,2.563,0,0,1-1.028,0L275.64,95.731V81.489a2.719,2.719,0,0,1,2.719-2.719Z" transform="translate(58.423 -46.573)" opacity="0.1"/>
      <path id="Trazado_53" data-name="Trazado 53" d="M277.044,74.263h32.528V68.807a8.524,8.524,0,0,1,8.507-8.507h29.059a8.524,8.524,0,0,1,8.576,8.507v5.456h32.51a2.684,2.684,0,0,1,2.685,2.684V103.81a2.685,2.685,0,0,1-2.162,2.632L333.053,117.3a2.632,2.632,0,0,1-1.046,0l-55.555-10.93a2.685,2.685,0,0,1-2.162-2.632V76.947a2.685,2.685,0,0,1,2.754-2.685Zm72.133-5.456a2.057,2.057,0,0,0-2.04-2.057H318.079a2.074,2.074,0,0,0-2.057,2.04v5.456h33.12Z" transform="translate(57.42 -60.3)" fill="#4984ff"/>
      <path id="Trazado_54" data-name="Trazado 54" d="M277.044,74.263h32.528V68.807a8.524,8.524,0,0,1,8.507-8.507h29.059a8.524,8.524,0,0,1,8.576,8.507v5.456h32.51a2.684,2.684,0,0,1,2.685,2.684V103.81a2.685,2.685,0,0,1-2.162,2.632L333.053,117.3a2.632,2.632,0,0,1-1.046,0l-55.555-10.93a2.685,2.685,0,0,1-2.162-2.632V76.947a2.685,2.685,0,0,1,2.754-2.685Zm72.133-5.456a2.057,2.057,0,0,0-2.04-2.057H318.079a2.074,2.074,0,0,0-2.057,2.04v5.456h33.12Z" transform="translate(57.42 -60.3)" fill="#fff" opacity="0.6"/>
      <rect id="Rectángulo_50" data-name="Rectángulo 50" width="16.63" height="12.411" rx="1.48" transform="translate(398.335 62.145) rotate(180)" fill="#4984ff"/>
      <rect id="Rectángulo_51" data-name="Rectángulo 51" width="16.63" height="12.411" rx="1.48" transform="translate(398.335 62.145) rotate(180)" fill="#fff" opacity="0.3"/>
      <path id="Trazado_55" data-name="Trazado 55" d="M285.19,220.605h92.563a2.737,2.737,0,0,0,2.719-2.737v-44.4a2.7,2.7,0,0,0-.227-1.063,2.266,2.266,0,0,0-.244-.453,1.917,1.917,0,0,0-.349-.4,2.684,2.684,0,0,0-1.918-.8H290.088a114.324,114.324,0,0,1,.715,18.338,18.653,18.653,0,0,1-.157,2.963c-.1,1.83-.261,3.678-.471,5.508a116.8,116.8,0,0,1-4.986,23.045Z" transform="translate(65.521 21.785)" fill="#4984ff"/>
      <path id="Trazado_56" data-name="Trazado 56" d="M285.19,220.605h92.563a2.737,2.737,0,0,0,2.719-2.737v-44.4a2.7,2.7,0,0,0-.227-1.063,2.266,2.266,0,0,0-.244-.453,1.917,1.917,0,0,0-.349-.4,2.684,2.684,0,0,0-1.918-.8H290.088a114.324,114.324,0,0,1,.715,18.338,18.653,18.653,0,0,1-.157,2.963c-.1,1.83-.261,3.678-.471,5.508a116.8,116.8,0,0,1-4.986,23.045Z" transform="translate(65.521 21.785)" fill="#fff" opacity="0.6"/>
      <path id="Trazado_57" data-name="Trazado 57" d="M288,170.75a114.324,114.324,0,0,1,.715,18.338,18.653,18.653,0,0,1-.157,2.963l25.59,5.02,7.81,1.534a2.057,2.057,0,0,0,1.029,0l7.792-1.517,47.641-9.378V173.452a2.947,2.947,0,0,0-.209-1.046,2.265,2.265,0,0,0-.244-.453,1.917,1.917,0,0,0-.349-.4,2.685,2.685,0,0,0-1.918-.8Z" transform="translate(67.609 21.785)" opacity="0.1"/>
      <path id="Trazado_58" data-name="Trazado 58" d="M285.93,166.243h15.044v-5.456a8.524,8.524,0,0,1,8.507-8.507h29.041a8.524,8.524,0,0,1,8.524,8.507v5.456h32.51a2.684,2.684,0,0,1,2.685,2.684v26.845a2.7,2.7,0,0,1-2.161,2.65h-.122l-47.641,9.4-7.862,1.5a2.562,2.562,0,0,1-1.028,0l-7.81-1.534-25.4-5a116.792,116.792,0,0,0-4.358-36.607Zm54.649-5.456a2.074,2.074,0,0,0-2.057-2.04H309.48a2.057,2.057,0,0,0-2.04,2.039v5.456h33.12Z" transform="translate(66.019 8.058)" fill="#4984ff"/>
      <path id="Trazado_59" data-name="Trazado 59" d="M285.93,166.243h15.044v-5.456a8.524,8.524,0,0,1,8.507-8.507h29.041a8.524,8.524,0,0,1,8.524,8.507v5.456h32.51a2.684,2.684,0,0,1,2.685,2.684v26.845a2.7,2.7,0,0,1-2.161,2.65h-.122l-47.641,9.4-7.862,1.5a2.562,2.562,0,0,1-1.028,0l-7.81-1.534-25.4-5a116.792,116.792,0,0,0-4.358-36.607Zm54.649-5.456a2.074,2.074,0,0,0-2.057-2.04H309.48a2.057,2.057,0,0,0-2.04,2.039v5.456h33.12Z" transform="translate(66.019 8.058)" fill="#fff" opacity="0.6"/>
      <rect id="Rectángulo_52" data-name="Rectángulo 52" width="16.63" height="12.411" rx="1.48" transform="translate(398.335 222.5) rotate(180)" fill="#4984ff"/>
      <rect id="Rectángulo_53" data-name="Rectángulo 53" width="16.63" height="12.411" rx="1.48" transform="translate(398.335 222.5) rotate(180)" fill="#fff" opacity="0.3"/>
      <g id="Grupo_39" data-name="Grupo 39">
        <rect id="Rectángulo_54" data-name="Rectángulo 54" width="160.826" height="71.627" rx="2.24" transform="translate(149.356 181.709)" fill="#4984ff"/>
        <path id="Trazado_60" data-name="Trazado 60" d="M250.67,172.752H208.921a11.958,11.958,0,0,1-11.941-11.941V150.091a11.958,11.958,0,0,1,11.941-11.941H250.67a11.941,11.941,0,0,1,11.941,11.941v10.668a11.941,11.941,0,0,1-11.941,11.993Zm-41.749-25.834a3.225,3.225,0,0,0-3.19,3.173v10.668a3.225,3.225,0,0,0,3.225,3.225H250.7a3.225,3.225,0,0,0,3.225-3.225V150.091a3.225,3.225,0,0,0-3.225-3.225Z" transform="translate(-0.035 -2.443)" fill="#4984ff"/>
        <path id="Trazado_61" data-name="Trazado 61" d="M326.584,164.54H173.6a3.9,3.9,0,0,0-3.922,3.9v20.482l79.663,15.689a3.486,3.486,0,0,0,1.482,0l79.681-15.689V168.445a3.9,3.9,0,0,0-3.922-3.9Z" transform="translate(-20.324 17.17)" opacity="0.2"/>
        <path id="Trazado_62" data-name="Trazado 62" d="M332.03,195.679l-79.82,15.689a4.323,4.323,0,0,1-1.5,0l-79.82-15.689a3.87,3.87,0,0,1-3.12-3.783V153.372a3.852,3.852,0,0,1,3.852-3.852h159.71a3.852,3.852,0,0,1,3.852,3.852v38.594a3.852,3.852,0,0,1-3.155,3.713Z" transform="translate(-21.744 6.007)" fill="#4984ff"/>
        <rect id="Rectángulo_55" data-name="Rectángulo 55" width="23.899" height="17.833" rx="2.12" transform="translate(217.828 206.933)" fill="#4984ff"/>
        <rect id="Rectángulo_56" data-name="Rectángulo 56" width="23.899" height="17.833" rx="2.12" transform="translate(217.828 206.933)" opacity="0.4"/>
      </g>
    </g>
    <g id="freepik--Character--inject-21" transform="translate(177.567 62.282)">
      <path id="Trazado_63" data-name="Trazado 63" d="M397.691,187.21c3.052,6.291,5.309,12.236,7.963,18.448s4.592,12.4,6.662,18.74a239.358,239.358,0,0,1,9.264,39.443c.266,1.672.4,3.477.584,5.309l.265,2.654v3.106a55.736,55.736,0,0,1-1.035,12,128.7,128.7,0,0,1-5.6,20.173,220.326,220.326,0,0,1-16.882,35.966l-13.484-5.707c3-12.1,6.025-24.446,8.308-36.364A152.617,152.617,0,0,0,396.1,283.7a40.3,40.3,0,0,0-.159-7.114l-.292-1.672-.372-2.124c-.292-1.407-.478-2.814-.823-4.247a270.7,270.7,0,0,0-10.246-34.506c-2.017-5.76-4.247-11.493-6.477-17.253s-4.7-11.546-6.981-16.855Z" transform="translate(174.286 4.995)" fill="#7f3e3b"/>
      <path id="Trazado_64" data-name="Trazado 64" d="M382.952,242.44,372.6,252.526l22.588,10.617s5.468-9.556,1.7-18.209Z" transform="translate(177.347 96.363)" fill="#7f3e3b"/>
      <path id="Trazado_65" data-name="Trazado 65" d="M369.46,261.29l19.058,7.8,11.865-12.343L377.795,246.24Z" transform="translate(172.152 102.65)" fill="#7f3e3b"/>
      <g id="Grupo_45" data-name="Grupo 45" transform="translate(26.987 38.126)">
        <path id="Trazado_66" data-name="Trazado 66" d="M303.524,390.819a143.724,143.724,0,1,0-158.835-126.9,143.724,143.724,0,0,0,158.835,126.9Z" transform="translate(-128.663 -83.05)" fill="#4984ff" opacity="0.2"/>
        <path id="Trazado_67" data-name="Trazado 67" d="M171.42,131.036,390,305.621c.938-2,1.816-3.992,2.675-5.989a141.85,141.85,0,0,0,10.38-40.882h0L214.258,108a142.508,142.508,0,0,0-42.838,23.036Z" transform="translate(-101.138 -79.316)" fill="#fff" opacity="0.1"/>
        <path id="Trazado_68" data-name="Trazado 68" d="M146.16,186.629,351.646,350.814a143.723,143.723,0,0,0,49.465-42.479L176.7,129A143.723,143.723,0,0,0,146.16,186.629Z" transform="translate(-126.301 -58.396)" fill="#fff" opacity="0.1"/>
        <path id="Trazado_69" data-name="Trazado 69" d="M652.637,420.482a21.317,21.317,0,0,0-3.453-10.18,14.733,14.733,0,0,0-5.889-5.21L629.661,398.4c-9.063-4.491-18.185-8.863-27.307-13.235s-18.3-8.663-27.447-13S556.542,363.632,547.3,359.5q-27.667-12.536-55.693-24.393c-9.342-3.992-18.7-7.825-28.146-11.578h0a11.678,11.678,0,0,1-6.847-14.412,165.822,165.822,0,1,0-22.2,44.934,11.7,11.7,0,0,1,15.63-3.334h0q13.095,7.785,26.31,15.311,26.409,15.051,53.218,29.344c8.923,4.831,17.965,9.482,26.849,14.213s17.965,9.342,27.008,13.973,17.965,9.162,27.128,13.634l13.594,6.747a14.652,14.652,0,0,0,7.725,1.517A21.12,21.12,0,0,0,642.037,442,22.5,22.5,0,0,0,652.637,420.482ZM240.688,376.327a130.829,130.829,0,1,1,175.2-59.406,130.829,130.829,0,0,1-175.2,59.406Z" transform="translate(-139.705 -94.129)" fill="#4984ff"/>
      </g>
      <path id="Trazado_70" data-name="Trazado 70" d="M345.506,158.087c0,1.566-.823,2.84-1.858,2.84s-1.858-1.274-1.858-2.84.823-2.867,1.858-2.867S345.506,156.494,345.506,158.087Z" transform="translate(126.377 -47.928)" fill="#263238"/>
      <path id="Trazado_71" data-name="Trazado 71" d="M347.6,157.37a56.167,56.167,0,0,1-7.485,13.457,9.051,9.051,0,0,0,7.512,1.407Z" transform="translate(123.598 -44.371)" fill="#630f0f"/>
      <path id="Trazado_72" data-name="Trazado 72" d="M350.564,155.2a.929.929,0,0,0,.531-1.672,9.264,9.264,0,0,0-8.308-1.433.929.929,0,1,0,.664,1.725h0a7.406,7.406,0,0,1,6.583,1.195A.823.823,0,0,0,350.564,155.2Z" transform="translate(126.893 -53.796)" fill="#263238"/>
      <path id="Trazado_73" data-name="Trazado 73" d="M390.8,160.76c-2.814,14.28-5.6,40.425,4.38,49.928,0,0-3.9,14.466-30.392,14.466-29.2,0-13.935-14.466-13.935-14.466,15.926-3.8,15.5-15.607,12.714-26.543Z" transform="translate(134.777 -38.763)" fill="#7f3e3b"/>
      <path id="Trazado_74" data-name="Trazado 74" d="M399.113,176.841c2.2.717-.664,13.829-.664,13.829s-3.636,9.157-48.813,5.972c-3.477-.265-2.15-12.847,1.168-14.678C361.5,176.124,392,174.5,399.113,176.841Z" transform="translate(135.969 -13.86)" fill="#263238"/>
      <path id="Trazado_75" data-name="Trazado 75" d="M402.843,387.215c2.442-.239,6-4.725,7.008-6.37a.452.452,0,0,0,0-.478.425.425,0,0,0-.451-.212c-.266,0-6.689,1.221-8.255,3.716a2.228,2.228,0,0,0-.266,1.778c.345,1.168,1.009,1.487,1.54,1.566Zm5.6-5.919c-1.725,2.389-4.565,5.176-5.919,4.99-.133,0-.531,0-.77-.9a1.221,1.221,0,0,1,.159-1.035,12.5,12.5,0,0,1,6.53-3.053Z" transform="translate(223.999 324.177)" fill="#4984ff"/>
      <path id="Trazado_76" data-name="Trazado 76" d="M408.607,383.436a8.547,8.547,0,0,0,1.407-.239.459.459,0,0,0,.159-.8c-.159-.159-4.459-3.822-7.379-3.53h0a2.5,2.5,0,0,0-1.8.956,1.46,1.46,0,0,0-.186,1.885C401.758,383.223,405.952,383.7,408.607,383.436Zm.212-.929c-2.654.319-6.53-.212-7.273-1.3a.735.735,0,0,1,.159-.823,1.751,1.751,0,0,1,1.194-.61h0A11.2,11.2,0,0,1,408.819,382.507Z" transform="translate(223.571 322.037)" fill="#4984ff"/>
      <path id="Trazado_77" data-name="Trazado 77" d="M336.559,412.036a35.638,35.638,0,0,0,6-.531.531.531,0,0,0,.372-.372.451.451,0,0,0-.239-.478c-.292-.186-7.087-4.061-10.352-3.185a2.388,2.388,0,0,0-1.46,1.088,1.752,1.752,0,0,0,0,2.017C331.729,411.744,334.064,412.036,336.559,412.036Zm4.512-1.221c-3.636.5-8.574.478-9.476-.77-.133-.159-.239-.451,0-1.035a1.353,1.353,0,0,1,.9-.637c2.1-.557,6.185,1.221,8.573,2.442Z" transform="translate(107.798 369.165)" fill="#4984ff"/>
      <path id="Trazado_78" data-name="Trazado 78" d="M339.329,414.367a.349.349,0,0,0,.478-.425c0-.212-.557-5.468-3.026-7.512a3.53,3.53,0,0,0-2.654-.8c-1.274.133-1.619.77-1.725,1.3-.345,2.2,4.327,6.423,6.662,7.485Zm-4.751-7.963a2.655,2.655,0,0,1,1.619.611,11.016,11.016,0,0,1,2.654,6c-2.415-1.433-5.574-4.751-5.309-6.078,0,0,0-.425.9-.5Z" transform="translate(110.815 366.303)" fill="#4984ff"/>
      <path id="Trazado_79" data-name="Trazado 79" d="M356.487,436.9H337L335.04,391.72h19.509Z" transform="translate(115.21 343.322)" fill="#7f3e3b"/>
      <path id="Trazado_80" data-name="Trazado 80" d="M444.229,391.772,429.02,403.955l-38.7-26.862,15.236-12.183Z" transform="translate(206.662 298.969)" fill="#7f3e3b"/>
      <path id="Trazado_81" data-name="Trazado 81" d="M412.147,389.242,427.7,373.821a1.725,1.725,0,0,1,2.124-.212l14.944,9.609a2.84,2.84,0,0,1,.4,4.459c-5.521,5.309-8.467,7.591-15.315,14.36-4.194,4.194-14.466,16.669-20.279,22.429s-12.29.77-10.405-2.123c8.361-12.9,11.2-23.544,11.573-30.02a4.805,4.805,0,0,1,1.407-3.079Z" transform="translate(220.748 312.912)" fill="#263238"/>
      <path id="Trazado_82" data-name="Trazado 82" d="M365.206,407.89h21.235a1.672,1.672,0,0,1,1.646,1.327l3.849,17.333A2.813,2.813,0,0,1,389.148,430c-7.7,0-18.793-.557-28.454-.557-11.281,0-21.022.611-34.267.611-7.963,0-10.219-8.1-6.875-8.839,15.262-3.318,27.711-3.69,40.877-11.812A9.131,9.131,0,0,1,365.206,407.89Z" transform="translate(87.114 370.072)" fill="#263238"/>
      <path id="Trazado_83" data-name="Trazado 83" d="M398.637,183.147c16.908,7.963,23.889,62.536,23.889,62.536L383.64,260.946a311.092,311.092,0,0,1-14.625-45.522C363.574,190.792,381.251,174.866,398.637,183.147Z" transform="translate(169.757 -5.382)" fill="#4984ff"/>
      <path id="Trazado_84" data-name="Trazado 84" d="M398.637,183.147c16.908,7.963,23.889,62.536,23.889,62.536L383.64,260.946a311.092,311.092,0,0,1-14.625-45.522C363.574,190.792,381.251,174.866,398.637,183.147Z" transform="translate(169.757 -5.382)" fill="#fff" opacity="0.3"/>
      <path id="Trazado_85" data-name="Trazado 85" d="M373.392,188.743a21.708,21.708,0,0,0-4.141-1.513,35.725,35.725,0,0,0-.159,17.784,309.149,309.149,0,0,0,14.6,45.522l12.82-5.017C394.149,231.265,386.9,195.22,373.392,188.743Z" transform="translate(169.813 5.028)" opacity="0.2"/>
      <path id="Trazado_86" data-name="Trazado 86" d="M343.042,185.382s-20.757,23.438-1.168,168.55H446.189c.717-15.926-9.343-94.123,6.1-169.559a273.027,273.027,0,0,0-34.931-4.406,385.593,385.593,0,0,0-44.327,0,195.1,195.1,0,0,0-29.994,5.415Z" transform="translate(112.597 -8.042)" fill="#4984ff"/>
      <path id="Trazado_87" data-name="Trazado 87" d="M343.042,185.382s-20.757,23.438-1.168,168.55H446.189c.717-15.926-9.343-94.123,6.1-169.559a273.027,273.027,0,0,0-34.931-4.406,385.593,385.593,0,0,0-44.327,0,195.1,195.1,0,0,0-29.994,5.415Z" transform="translate(112.597 -8.042)" fill="#fff" opacity="0.3"/>
      <path id="Trazado_88" data-name="Trazado 88" d="M364.056,202.379c-4.725-14.174-16.085-18.713-27.658-10.3-2.336,13.749-3.981,35.913-2.1,71.056l20.359-.186S371.037,223.481,364.056,202.379Z" transform="translate(112.631 6.07)" opacity="0.2"/>
      <path id="Trazado_89" data-name="Trazado 89" d="M406.987,193.572c-.849,7.114-2.017,13.564-3.318,20.279s-2.814,13.272-4.539,19.881a227.88,227.88,0,0,1-13.856,39.337c-1.513,3.265-3.265,6.477-5.123,9.688-.956,1.619-1.911,3.238-3,4.831a33.561,33.561,0,0,1-4.964,6.078,35.223,35.223,0,0,1-12.741,7.565,57.434,57.434,0,0,1-11.865,2.787,97.993,97.993,0,0,1-21.739.266,102.011,102.011,0,0,1-10.352-1.354c-3.451-.61-6.715-1.247-10.272-2.177l1.725-14.546a173.226,173.226,0,0,0,35.887-5.309,40.847,40.847,0,0,0,6.928-2.761,9.952,9.952,0,0,0,3.716-2.946c-.212.186,1.725-3.026,2.867-5.309s2.415-5.309,3.5-7.963c2.23-5.468,4.141-11.254,5.893-17.174s3.291-11.944,4.725-18.049,2.654-12.263,3.982-18.58,2.283-12.582,3.238-18.448Z" transform="translate(65.878 9.064)" fill="#7f3e3b"/>
      <path id="Trazado_90" data-name="Trazado 90" d="M386.627,196.645c5.494,17.811-16.8,70.9-16.8,70.9L322.87,255.731a217.173,217.173,0,0,1,14.413-48.813C352.413,173.791,380.018,175.172,386.627,196.645Z" transform="translate(95.077 -4.998)" fill="#4984ff"/>
      <path id="Trazado_91" data-name="Trazado 91" d="M386.627,196.645c5.494,17.811-16.8,70.9-16.8,70.9L322.87,255.731a217.173,217.173,0,0,1,14.413-48.813C352.413,173.791,380.018,175.172,386.627,196.645Z" transform="translate(95.077 -4.998)" fill="#fff" opacity="0.3"/>
      <path id="Trazado_92" data-name="Trazado 92" d="M319.884,226.417,297.8,225.86l10.617,22.96s8.972,1.194,16.351-10.936l7.777-9.264-8.945-1.8a21.8,21.8,0,0,0-3.716-.4Z" transform="translate(53.603 68.934)" fill="#7f3e3b"/>
      <path id="Trazado_93" data-name="Trazado 93" d="M292.55,230.133l12.661,19.032,11.918-.345-10.644-22.96Z" transform="translate(44.918 68.934)" fill="#7f3e3b"/>
      <path id="Trazado_94" data-name="Trazado 94" d="M335.05,391.73l.982,23.278h19.509l-1.009-23.278Z" transform="translate(115.227 343.338)" opacity="0.2"/>
      <path id="Trazado_95" data-name="Trazado 95" d="M405.556,364.91,390.32,377.093l19.961,13.856,15.236-12.183Z" transform="translate(206.662 298.969)" opacity="0.2"/>
      <path id="Trazado_96" data-name="Trazado 96" d="M397.563,172.709c-1.168,19.324-.849,30.684-10.617,40.611-14.652,14.917-38.514,6.1-43.133-13.272-4.167-17.359-1.539-46.026,17.359-53.75a26.384,26.384,0,0,1,36.391,26.411Z" transform="translate(126.902 -66.001)" fill="#7f3e3b"/>
      <path id="Trazado_99" data-name="Trazado 99" d="M351.623,245.11s-6.583,131.443,6.238,187.13c20.306,88.177,109.571,158.835,109.571,158.835l28.667-22.96s-73.445-54.653-80.055-128.071c-5.919-65.934,2.84-141.662,2.84-194.934Z" transform="translate(139.849 100.78)" fill="#4984ff"/>
      <path id="Trazado_100" data-name="Trazado 100" d="M351.623,245.11s-6.583,131.443,6.238,187.13c20.306,88.177,109.571,158.835,109.571,158.835l28.667-22.96s-73.445-54.653-80.055-128.071c-5.919-65.934,2.84-141.662,2.84-194.934Z" transform="translate(139.849 100.78)" opacity="0.2"/>
      <path id="Trazado_101" data-name="Trazado 101" d="M361.39,260.4c-2.654-5.123-7.83,10.14-11.44,29.729,0,27.021.478,57.758,2.84,83.8C370.813,340.617,366.991,271.021,361.39,260.4Z" transform="translate(139.876 124.426)" opacity="0.2"/>
      <path id="Trazado_102" data-name="Trazado 102" d="M389.3,390.393l10.883,8.441L433.282,372l-9.927-9Z" transform="translate(204.974 295.809)" fill="#2c6bdb"/>
      <path id="Trazado_103" data-name="Trazado 103" d="M389.3,390.393l10.883,8.441L433.282,372l-9.927-9Z" transform="translate(204.974 295.809)" fill="#fafafa" opacity="0.4"/>
      <path id="Trazado_104" data-name="Trazado 104" d="M356.318,245.11S326.961,369.6,324.891,429.055c-2.309,66.7,20.943,224,20.943,224H378.88s4.061-158.517,5.547-219.274c1.593-66.226,40.452-188.67,40.452-188.67Z" transform="translate(98.153 100.78)" fill="#4984ff"/>
      <path id="Trazado_105" data-name="Trazado 105" d="M356.318,245.11S326.961,369.6,324.891,429.055c-2.309,66.7,20.943,224,20.943,224H378.88s4.061-158.517,5.547-219.274c1.593-66.226,40.452-188.67,40.452-188.67Z" transform="translate(98.153 100.78)" opacity="0.2"/>
      <path id="Trazado_106" data-name="Trazado 106" d="M330.3,393.84c-.159,0,1.858,13.723,1.858,13.723H372.34l1.088-12.236Z" transform="translate(107.346 346.829)" fill="#2c6bdb"/>
      <path id="Trazado_107" data-name="Trazado 107" d="M330.3,393.84c-.159,0,1.858,13.723,1.858,13.723H372.34l1.088-12.236Z" transform="translate(107.346 346.829)" fill="#fafafa" opacity="0.4"/>
      <path id="Trazado_604" data-name="Trazado 604" d="M1222.053-783.076s-3.479,6.009-3.163,10.753,18.826,27.792,22.857,22.178,7.188-9.527,6.24-15.536-11.386-14.232-11.386-14.232Z" transform="translate(-755.771 902.158)" fill="#93ade5" stroke="#fff" stroke-width="1"/>
      <path id="Trazado_605" data-name="Trazado 605" d="M1242.894-798.481l-6.271,18.854,9.544,9.544,6.55-8.421Z" transform="translate(-755.771 902.158)" fill="none" stroke="#fff" stroke-width="1"/>
      <path id="Trazado_97" data-name="Trazado 97" d="M412.1,163.788s10.166,3.026,6.981,14.625c-4.8,17.625-16.112,37.9-30.711,39.178-18.182,1.619-26.384-17.147-28.773-36.55-10.883-7.459-18.952-14.44-16.351-22.19,3.982-11.944,18.421-22.243,41.408-19.589S419.08,156.781,412.1,163.788Z" transform="translate(127.973 -75.023)" fill="#263238"/>
      <path id="Trazado_98" data-name="Trazado 98" d="M362.664,161.309a21.872,21.872,0,0,1-5.468,12.927c-4.247,4.672-8.706,1.752-9.449-3.928-.664-5.149.717-13.776,5.919-16.351S363.009,155.523,362.664,161.309Z" transform="translate(135.975 -51.309)" fill="#7f3e3b"/>
    </g>
  </g>
</svg>
