<svg xmlns="http://www.w3.org/2000/svg" width="456.717" height="539.001" viewBox="0 0 456.717 539.001">
  <g id="home-menu" transform="translate(-176.458 78.977)">
    <g id="Grupo_39" data-name="Grupo 39" transform="matrix(1, -0.017, 0.017, 1, 130.136, -101.675)">
      <rect id="Rectángulo_54" data-name="Rectángulo 54" width="127.775" height="56.907" rx="2.24" transform="translate(148.672 172.255)" fill="#4984ff"/>
      <path id="Trazado_60" data-name="Trazado 60" d="M239.636,165.641H206.467a9.5,9.5,0,0,1-9.487-9.487v-8.517a9.5,9.5,0,0,1,9.487-9.487h33.169a9.487,9.487,0,0,1,9.487,9.487v8.476a9.487,9.487,0,0,1-9.487,9.528Zm-33.169-20.525a2.562,2.562,0,0,0-2.534,2.521v8.476a2.562,2.562,0,0,0,2.562,2.562h33.169a2.562,2.562,0,0,0,2.562-2.562v-8.476a2.562,2.562,0,0,0-2.562-2.562Z" transform="translate(-10.5 -2.443)" fill="#4984ff"/>
      <path id="Trazado_61" data-name="Trazado 61" d="M294.339,164.54H172.8a3.1,3.1,0,0,0-3.116,3.1v16.273l63.292,12.464a2.769,2.769,0,0,0,1.177,0l63.306-12.464V167.642a3.1,3.1,0,0,0-3.116-3.1Z" transform="translate(-21.008 7.716)" opacity="0.2"/>
      <path id="Trazado_62" data-name="Trazado 62" d="M298.273,186.193l-63.416,12.464a3.435,3.435,0,0,1-1.191,0l-63.416-12.464a3.074,3.074,0,0,1-2.479-3.005V152.581a3.061,3.061,0,0,1,3.061-3.061H297.719a3.061,3.061,0,0,1,3.061,3.061v30.663a3.061,3.061,0,0,1-2.507,2.95Z" transform="translate(-21.744 1.934)" fill="#4984ff"/>
      <rect id="Rectángulo_55" data-name="Rectángulo 55" width="18.988" height="14.168" rx="2.12" transform="translate(203.072 192.296)" fill="#4984ff"/>
      <rect id="Rectángulo_56" data-name="Rectángulo 56" width="18.988" height="14.168" rx="2.12" transform="translate(203.072 192.296)" opacity="0.4"/>
    </g>
    <g id="freepik--Character--inject-21" transform="translate(176.458 -78.977)">
      <path id="Trazado_63" data-name="Trazado 63" d="M19.838,0c2.248,4.632,3.909,9.01,5.863,13.584s3.381,9.128,4.906,13.8a176.25,176.25,0,0,1,6.821,29.044c.2,1.231.293,2.56.43,3.909l.2,1.955v2.287a41.042,41.042,0,0,1-.762,8.834,94.768,94.768,0,0,1-4.124,14.854,162.235,162.235,0,0,1-12.431,26.483l-9.929-4.2c2.209-8.913,4.437-18,6.118-26.777a112.375,112.375,0,0,0,1.74-12.724,29.675,29.675,0,0,0-.117-5.238l-.215-1.231-.274-1.564c-.215-1.036-.352-2.072-.606-3.127A199.324,199.324,0,0,0,9.909,34.478c-1.485-4.241-3.127-8.463-4.769-12.7S1.681,13.271,0,9.362Z" transform="matrix(0.951, 0.309, -0.309, 0.951, 403.813, 242.689)" fill="#7f3e3b"/>
      <path id="Trazado_64" data-name="Trazado 64" d="M7.623,0,0,7.427l16.633,7.818s4.026-7.036,1.251-13.408Z" transform="matrix(0.951, 0.309, -0.309, 0.951, 373.894, 346.47)" fill="#7f3e3b"/>
      <path id="Trazado_65" data-name="Trazado 65" d="M0,11.082l14.033,5.746L22.77,7.74,6.137,0Z" transform="matrix(0.951, 0.309, -0.309, 0.951, 365.762, 351.637)" fill="#7f3e3b"/>
      <g id="Grupo_45" data-name="Grupo 45" transform="translate(109.655 0) rotate(25)">
        <path id="Trazado_66" data-name="Trazado 66" d="M117.619,211.013A105.831,105.831,0,1,0,.662,117.573a105.831,105.831,0,0,0,116.958,93.44Z" transform="translate(16.293 16.347)" fill="#4984ff" opacity="0.2"/>
        <path id="Trazado_67" data-name="Trazado 67" d="M0,16.962,160.951,145.517c.691-1.47,1.338-2.94,1.97-4.41a104.451,104.451,0,0,0,7.643-30.1h0L31.543,0A104.935,104.935,0,0,0,0,16.962Z" transform="translate(56.906 21.858)" fill="#fff" opacity="0.1"/>
        <path id="Trazado_68" data-name="Trazado 68" d="M0,42.435l151.308,120.9a105.83,105.83,0,0,0,36.423-31.279L22.489,0A105.83,105.83,0,0,0,0,42.435Z" transform="translate(19.777 52.725)" fill="#fff" opacity="0.1"/>
        <path id="Trazado_69" data-name="Trazado 69" d="M382.85,241.045a15.7,15.7,0,0,0-2.543-7.5,10.849,10.849,0,0,0-4.336-3.836l-10.039-4.924c-6.673-3.307-13.39-6.526-20.108-9.745s-13.479-6.379-20.211-9.569-13.523-6.291-20.328-9.334q-20.372-9.231-41.009-17.962c-6.879-2.94-13.773-5.762-20.725-8.525h0a8.6,8.6,0,0,1-5.042-10.612,122.1,122.1,0,1,0-16.345,33.087,8.614,8.614,0,0,1,11.509-2.455h0q9.642,5.732,19.373,11.274,19.446,11.083,39.187,21.607c6.57,3.557,13.229,6.982,19.77,10.465s13.229,6.879,19.887,10.289,13.229,6.747,19.976,10.039l10.01,4.968a10.789,10.789,0,0,0,5.688,1.117,15.552,15.552,0,0,0,7.482-2.543A16.565,16.565,0,0,0,382.85,241.045ZM79.513,208.531a96.335,96.335,0,1,1,129.011-43.743A96.335,96.335,0,0,1,79.513,208.531Z" transform="translate(0 0)" fill="#4984ff"/>
      </g>
      <path id="Trazado_70" data-name="Trazado 70" d="M344.526,157.331c0,1.153-.606,2.091-1.368,2.091s-1.368-.938-1.368-2.091.606-2.111,1.368-2.111S344.526,156.158,344.526,157.331Z" transform="translate(3.759 27.8)" fill="#263238"/>
      <path id="Trazado_71" data-name="Trazado 71" d="M345.622,157.37a41.36,41.36,0,0,1-5.512,9.909,6.665,6.665,0,0,0,5.531,1.036Z" transform="translate(2.156 29.852)" fill="#630f0f"/>
      <path id="Trazado_72" data-name="Trazado 72" d="M348.333,154.267a.684.684,0,0,0,.391-1.231,6.821,6.821,0,0,0-6.118-1.055.684.684,0,1,0,.489,1.27h0a5.453,5.453,0,0,1,4.847.88A.606.606,0,0,0,348.333,154.267Z" transform="translate(4.057 24.414)" fill="#263238"/>
      <path id="Trazado_73" data-name="Trazado 73" d="M379.219,160.76c-2.072,10.515-4.124,29.767,3.225,36.764,0,0-2.873,10.652-22.379,10.652-21.5,0-10.261-10.652-10.261-10.652,11.727-2.795,11.414-11.493,9.362-19.545Z" transform="translate(8.606 33.088)" fill="#7f3e3b"/>
      <path id="Trazado_74" data-name="Trazado 74" d="M385.528,176.57c1.622.528-.489,10.183-.489,10.183s-2.678,6.743-35.943,4.4c-2.56-.2-1.583-9.46.86-10.808C357.833,176.042,380.29,174.85,385.528,176.57Z" transform="translate(9.294 47.456)" fill="#263238"/>
      <path id="Trazado_83" data-name="Trazado 83" d="M22.55,1.627C35,7.491,40.141,47.675,40.141,47.675L11.508,58.914A229.073,229.073,0,0,1,.738,25.394C-3.268,7.256,9.749-4.471,22.55,1.627Z" transform="matrix(0.951, 0.309, -0.309, 0.951, 402.512, 229.376)" fill="#4984ff"/>
      <path id="Trazado_84" data-name="Trazado 84" d="M22.55,1.627C35,7.491,40.141,47.675,40.141,47.675L11.508,58.914A229.073,229.073,0,0,1,.738,25.394C-3.268,7.256,9.749-4.471,22.55,1.627Z" transform="matrix(0.951, 0.309, -0.309, 0.951, 402.512, 229.376)" fill="#fff" opacity="0.3"/>
      <path id="Trazado_85" data-name="Trazado 85" d="M3.937,1.114A15.985,15.985,0,0,0,.888,0,26.306,26.306,0,0,0,.77,13.1a227.642,227.642,0,0,0,10.75,33.52l9.44-3.694C19.221,32.425,13.885,5.883,3.937,1.114Z" transform="matrix(0.951, 0.309, -0.309, 0.951, 398.774, 241.093)" opacity="0.2"/>
      <path id="Trazado_86" data-name="Trazado 86" d="M340.515,183.786s-15.284,17.258-.86,124.111h76.812c.528-11.727-6.88-69.307,4.5-124.854a201.026,201.026,0,0,0-25.721-3.244,283.91,283.91,0,0,0-32.64,0,143.649,143.649,0,0,0-22.086,3.987Z" transform="translate(-4.191 50.813)" fill="#4984ff"/>
      <path id="Trazado_87" data-name="Trazado 87" d="M340.515,183.786s-15.284,17.258-.86,124.111h76.812c.528-11.727-6.88-69.307,4.5-124.854a201.026,201.026,0,0,0-25.721-3.244,283.91,283.91,0,0,0-32.64,0,143.649,143.649,0,0,0-22.086,3.987Z" transform="translate(-4.191 50.813)" fill="#fff" opacity="0.3"/>
      <path id="Trazado_88" data-name="Trazado 88" d="M22.514,10.691C19.035.254,10.669-3.088,2.148,3.108.428,13.232-.784,29.552.6,55.43l14.991-.137S27.654,26.23,22.514,10.691Z" transform="translate(335.766 241.788) rotate(30)" opacity="0.2"/>
      <path id="Trazado_89" data-name="Trazado 89" d="M74.936,2.873c-.626,5.238-1.485,9.988-2.443,14.932s-2.072,9.773-3.342,14.639a167.8,167.8,0,0,1-10.2,28.966c-1.114,2.4-2.4,4.769-3.772,7.134-.7,1.192-1.407,2.384-2.209,3.557a24.711,24.711,0,0,1-3.655,4.476,25.936,25.936,0,0,1-9.382,5.57A42.291,42.291,0,0,1,31.194,84.2a72.156,72.156,0,0,1-16.007.2,75.113,75.113,0,0,1-7.623-1C5.023,82.949,2.619,82.48,0,81.8L1.271,71.085A127.555,127.555,0,0,0,27.7,67.176a30.078,30.078,0,0,0,5.1-2.033,7.328,7.328,0,0,0,2.736-2.169c-.156.137,1.27-2.228,2.111-3.909s1.779-3.909,2.58-5.864c1.642-4.026,3.049-8.287,4.339-12.646s2.424-8.8,3.479-13.291S50,18.236,50.973,13.584,52.654,4.319,53.358,0Z" transform="translate(286.161 217.234) rotate(30)" fill="#7f3e3b"/>
      <path id="Trazado_90" data-name="Trazado 90" d="M46.947,11.4C50.993,24.51,34.575,63.6,34.575,63.6L0,54.9A159.914,159.914,0,0,1,10.613,18.959C21.754-5.433,42.08-4.417,46.947,11.4Z" transform="translate(324.343 220.094) rotate(30)" fill="#4984ff"/>
      <path id="Trazado_91" data-name="Trazado 91" d="M46.947,11.4C50.993,24.51,34.575,63.6,34.575,63.6L0,54.9A159.914,159.914,0,0,1,10.613,18.959C21.754-5.433,42.08-4.417,46.947,11.4Z" transform="translate(324.343 220.094) rotate(30)" fill="#fff" opacity="0.3"/>
      <path id="Trazado_92" data-name="Trazado 92" d="M16.261.41,0,0,7.818,16.906s6.606.88,12.04-8.053l5.727-6.821L19,.7A16.055,16.055,0,0,0,16.261.41Z" transform="matrix(0.695, 0.719, -0.719, 0.695, 244.347, 269.553)" fill="#7f3e3b"/>
      <path id="Trazado_93" data-name="Trazado 93" d="M0,3.147,9.323,17.161l8.776-.254L10.261,0Z" transform="matrix(0.695, 0.719, -0.719, 0.695, 237.219, 262.172)" fill="#7f3e3b"/>
      <path id="Trazado_96" data-name="Trazado 96" d="M382.942,165.218c-.86,14.229-.625,22.594-7.818,29.9-10.789,10.984-28.36,4.5-31.761-9.773-3.069-12.782-1.134-33.891,12.783-39.579a19.428,19.428,0,0,1,26.8,19.447Z" transform="translate(4.062 17.372)" fill="#7f3e3b"/>
      <path id="Sustracción_9" data-name="Sustracción 9" d="M-1715.939,2032.29h-36.678c-8.16-14.411-13.907-28.709-17.082-42.5-2.153-9.355-3.734-22.419-4.7-38.83-.772-13.129-1.155-28.419-1.137-45.444.031-28.475,1.194-52.5,1.243-53.508V1852h49.527c0,13.729-.791,29.51-1.629,46.219-1.545,30.82-3.3,65.747-.463,97.32a103.307,103.307,0,0,0,10.917,36.749Z" transform="translate(2137.739 -1493.29)" fill="#4984ff"/>
      <path id="Sustracción_8" data-name="Sustracción 8" d="M-1715.977,2032.29h-36.64c-8.161-14.414-13.907-28.712-17.082-42.5-2.153-9.353-3.735-22.417-4.7-38.83-.773-13.135-1.155-28.424-1.136-45.444.032-29.161,1.232-53.289,1.244-53.519h49.527c0,13.709-.791,29.479-1.627,46.173l0,.05v.016c-1.544,30.814-3.294,65.74-.461,97.3a103.534,103.534,0,0,0,10.878,36.749Z" transform="translate(2137.002 -1493.29)" opacity="0.2"/>
      <path id="Trazado_101" data-name="Trazado 101" d="M358.374,260.14c-1.955-3.772-5.766,7.466-8.424,21.89,0,19.9.352,42.53,2.091,61.7C365.312,319.2,362.5,267.958,358.374,260.14Z" transform="translate(11.548 127.243)" opacity="0.2"/>
      <path id="Sustracción_7" data-name="Sustracción 7" d="M-1725.868,2032.291h-41.242c-1.417-18.872-1.944-33.959-1.567-44.843.348-9.986,1.781-23.321,4.259-39.634,1.983-13.051,4.635-28.025,7.883-44.508,5.557-28.2,10.945-51.078,11-51.306h50.485c-.065.207-7.221,22.807-14.453,51.176-6.661,26.127-14.727,62.56-15.333,87.75-.233,9.536-.58,23.453-1.031,41.364Z" transform="translate(2081 -1493.29)" fill="#4984ff"/>
      <path id="Sustracción_6" data-name="Sustracción 6" d="M-1725.868,2032.291h-41.242c-1.417-18.872-1.944-33.959-1.567-44.843.348-9.986,1.781-23.321,4.259-39.634,1.983-13.051,4.635-28.025,7.883-44.508,5.557-28.2,10.945-51.078,11-51.306h50.485c-.065.207-7.221,22.807-14.453,51.176-6.661,26.127-14.727,62.56-15.333,87.75-.233,9.536-.58,23.453-1.031,41.364Z" transform="translate(2081 -1493.29)" opacity="0.2"/>
      <path id="Trazado_604" data-name="Trazado 604" d="M1221.214-783.075s-2.562,4.425-2.329,7.918,13.863,20.465,16.83,16.331,5.293-7.016,4.595-11.44-8.384-10.48-8.384-10.48Z" transform="translate(-877.052 974.777)" fill="#93ade5" stroke="#fff" stroke-width="1"/>
      <path id="Trazado_605" data-name="Trazado 605" d="M1241.241-798.481l-4.618,13.883,7.028,7.028,4.823-6.2Z" transform="translate(-881.733 978.839)" fill="none" stroke="#fff" stroke-width="1"/>
      <path id="Trazado_97" data-name="Trazado 97" d="M393.816,157.211s7.486,2.228,5.14,10.769c-3.538,12.978-11.864,27.91-22.614,28.848-13.388,1.192-19.428-12.626-21.187-26.913-8.013-5.492-13.955-10.633-12.04-16.34,2.932-8.8,13.564-16.379,30.49-14.424S398.957,152.051,393.816,157.211Z" transform="translate(4.681 12.166)" fill="#263238"/>
      <path id="Trazado_98" data-name="Trazado 98" d="M358.69,159.165a16.105,16.105,0,0,1-4.026,9.518c-3.127,3.44-6.411,1.29-6.958-2.893-.489-3.792.528-10.144,4.359-12.04S358.944,154.9,358.69,159.165Z" transform="translate(9.297 25.849)" fill="#7f3e3b"/>
    </g>
  </g>
</svg>
