<svg xmlns="http://www.w3.org/2000/svg" width="829.161" height="796.503" viewBox="0 0 829.161 796.503">
  <g id="Posts-rafiki" transform="translate(-115.912 -25.974)">
    <g id="freepik--Graphics--inject-51" transform="translate(115.657 104.017) rotate(-2)">
      <rect id="Rectángulo_92" data-name="Rectángulo 92" width="416.721" height="104.983" rx="8.94" transform="translate(0 493.232)" fill="#4984ff"/>
      <rect id="Rectángulo_93" data-name="Rectángulo 93" width="416.721" height="104.983" rx="8.94" transform="translate(4.401 497.633)" fill="#4984ff"/>
      <rect id="Rectángulo_94" data-name="Rectángulo 94" width="416.721" height="104.983" rx="8.94" transform="translate(4.401 497.633)" fill="#fafafa" opacity="0.6"/>
      <rect id="Rectángulo_95" data-name="Rectángulo 95" width="416.721" height="105.004" rx="8.94" transform="translate(8.802 502.034)" fill="#4984ff"/>
      <rect id="Rectángulo_96" data-name="Rectángulo 96" width="416.721" height="105.004" rx="8.94" transform="translate(8.802 502.034)" fill="#fafafa" opacity="0.8"/>
      <rect id="Rectángulo_97" data-name="Rectángulo 97" width="210.53" height="15.895" rx="1.91" transform="translate(117.102 519.785)" fill="#4984ff"/>
      <rect id="Rectángulo_98" data-name="Rectángulo 98" width="98.705" height="15.895" rx="1.91" transform="translate(117.102 546.589)" fill="#4984ff"/>
      <rect id="Rectángulo_99" data-name="Rectángulo 99" width="77.616" height="15.895" rx="1.91" transform="translate(225.798 546.589)" fill="#4984ff"/>
      <rect id="Rectángulo_100" data-name="Rectángulo 100" width="249.202" height="5.987" rx="1.04" transform="translate(117.102 573.393)" fill="#4984ff"/>
      <rect id="Rectángulo_101" data-name="Rectángulo 101" width="249.202" height="5.987" rx="1.04" transform="translate(117.102 573.393)" fill="#fafafa" opacity="0.5"/>
      <circle id="Elipse_3" data-name="Elipse 3" cx="37.4" cy="37.4" r="37.4" transform="translate(14.387 582.296) rotate(-76.61)" fill="#4984ff"/>
      <path id="Trazado_115" data-name="Trazado 115" d="M61.743,30.872a30.6,30.6,0,1,1-8.961-21.91A30.871,30.871,0,0,1,61.743,30.872Z" transform="translate(28.556 523.664)" fill="#fafafa"/>
      <path id="Trazado_116" data-name="Trazado 116" d="M54.233,8.2A30.871,30.871,0,0,1,27.117,24.32,30.871,30.871,0,0,1,0,8.2a48.915,48.915,0,0,1,54.233,0Z" transform="translate(32.331 561.037)" fill="#4984ff"/>
      <path id="Trazado_117" data-name="Trazado 117" d="M54.233,8.2A30.871,30.871,0,0,1,27.117,24.32,30.871,30.871,0,0,1,0,8.2a48.915,48.915,0,0,1,54.233,0Z" transform="translate(32.331 561.037)" fill="#fafafa" opacity="0.7"/>
      <ellipse id="Elipse_4" data-name="Elipse 4" cx="13.746" cy="13.746" rx="13.746" ry="13.746" transform="translate(45.681 530.235)" fill="#4984ff"/>
      <ellipse id="Elipse_5" data-name="Elipse 5" cx="13.746" cy="13.746" rx="13.746" ry="13.746" transform="translate(45.681 530.235)" fill="#fafafa" opacity="0.7"/>
      <rect id="Rectángulo_102" data-name="Rectángulo 102" width="416.721" height="104.983" rx="8.94" transform="translate(0 371.749)" fill="#4984ff"/>
      <rect id="Rectángulo_103" data-name="Rectángulo 103" width="416.721" height="105.004" rx="8.94" transform="translate(4.401 376.15)" fill="#4984ff"/>
      <rect id="Rectángulo_104" data-name="Rectángulo 104" width="416.721" height="105.004" rx="8.94" transform="translate(4.401 376.15)" fill="#fafafa" opacity="0.6"/>
      <rect id="Rectángulo_105" data-name="Rectángulo 105" width="416.721" height="104.983" rx="8.94" transform="translate(8.802 380.551)" fill="#4984ff"/>
      <rect id="Rectángulo_106" data-name="Rectángulo 106" width="416.721" height="104.983" rx="8.94" transform="translate(8.802 380.551)" fill="#fafafa" opacity="0.8"/>
      <rect id="Rectángulo_107" data-name="Rectángulo 107" width="68.334" height="15.895" rx="1.91" transform="translate(117.102 398.302)" fill="#4984ff"/>
      <rect id="Rectángulo_108" data-name="Rectángulo 108" width="54.588" height="15.895" rx="1.91" transform="translate(194.301 398.302)" fill="#4984ff"/>
      <rect id="Rectángulo_109" data-name="Rectángulo 109" width="219.916" height="15.895" rx="1.91" transform="translate(117.102 425.106)" fill="#4984ff"/>
      <rect id="Rectángulo_110" data-name="Rectángulo 110" width="152.125" height="5.987" rx="1.04" transform="translate(117.102 451.91)" fill="#4984ff"/>
      <rect id="Rectángulo_111" data-name="Rectángulo 111" width="152.125" height="5.987" rx="1.04" transform="translate(117.102 451.91)" fill="#fafafa" opacity="0.5"/>
      <circle id="Elipse_6" data-name="Elipse 6" cx="37.4" cy="37.4" r="37.4" transform="translate(14.393 460.819) rotate(-76.61)" fill="#4984ff"/>
      <path id="Trazado_118" data-name="Trazado 118" d="M61.743,30.873a30.6,30.6,0,1,1-8.961-21.91,30.871,30.871,0,0,1,8.961,21.91Z" transform="translate(28.556 402.181)" fill="#fafafa"/>
      <path id="Trazado_119" data-name="Trazado 119" d="M54.233,8.2A30.871,30.871,0,0,1,27.117,24.32,30.871,30.871,0,0,1,0,8.2a48.914,48.914,0,0,1,54.233,0Z" transform="translate(32.331 439.555)" fill="#4984ff"/>
      <path id="Trazado_120" data-name="Trazado 120" d="M54.233,8.2A30.871,30.871,0,0,1,27.117,24.32,30.871,30.871,0,0,1,0,8.2a48.914,48.914,0,0,1,54.233,0Z" transform="translate(32.331 439.555)" fill="#fafafa" opacity="0.7"/>
      <ellipse id="Elipse_7" data-name="Elipse 7" cx="13.746" cy="13.746" rx="13.746" ry="13.746" transform="translate(45.681 408.753)" fill="#4984ff"/>
      <ellipse id="Elipse_8" data-name="Elipse 8" cx="13.746" cy="13.746" rx="13.746" ry="13.746" transform="translate(45.681 408.753)" fill="#fafafa" opacity="0.7"/>
      <rect id="Rectángulo_112" data-name="Rectángulo 112" width="416.721" height="105.004" rx="8.94" transform="translate(0 250.266)" fill="#4984ff"/>
      <rect id="Rectángulo_113" data-name="Rectángulo 113" width="416.721" height="104.983" rx="8.94" transform="translate(4.401 254.667)" fill="#4984ff"/>
      <rect id="Rectángulo_114" data-name="Rectángulo 114" width="416.721" height="104.983" rx="8.94" transform="translate(4.401 254.667)" fill="#fafafa" opacity="0.6"/>
      <rect id="Rectángulo_115" data-name="Rectángulo 115" width="416.721" height="105.004" rx="8.94" transform="translate(8.802 259.069)" fill="#4984ff"/>
      <rect id="Rectángulo_116" data-name="Rectángulo 116" width="416.721" height="105.004" rx="8.94" transform="translate(8.802 259.069)" fill="#fafafa" opacity="0.8"/>
      <rect id="Rectángulo_117" data-name="Rectángulo 117" width="209.028" height="15.895" rx="1.91" transform="translate(117.102 276.82)" fill="#4984ff"/>
      <rect id="Rectángulo_118" data-name="Rectángulo 118" width="141.34" height="15.895" rx="1.91" transform="translate(117.102 303.623)" fill="#4984ff"/>
      <rect id="Rectángulo_119" data-name="Rectángulo 119" width="20.358" height="15.895" rx="1.91" transform="translate(270.249 303.623)" fill="#4984ff"/>
      <rect id="Rectángulo_120" data-name="Rectángulo 120" width="111.908" height="5.987" rx="1.04" transform="translate(117.102 330.427)" fill="#4984ff"/>
      <rect id="Rectángulo_121" data-name="Rectángulo 121" width="111.908" height="5.987" rx="1.04" transform="translate(117.102 330.427)" fill="#fafafa" opacity="0.5"/>
      <rect id="Rectángulo_122" data-name="Rectángulo 122" width="127.678" height="5.987" rx="1.04" transform="translate(240.4 330.427)" fill="#4984ff"/>
      <rect id="Rectángulo_123" data-name="Rectángulo 123" width="127.678" height="5.987" rx="1.04" transform="translate(240.4 330.427)" fill="#fafafa" opacity="0.5"/>
      <circle id="Elipse_9" data-name="Elipse 9" cx="37.4" cy="37.4" r="37.4" transform="translate(6.542 311.563) rotate(-45)" fill="#4984ff"/>
      <path id="Trazado_121" data-name="Trazado 121" d="M61.743,30.872a30.6,30.6,0,1,1-8.961-21.91A30.871,30.871,0,0,1,61.743,30.872Z" transform="translate(28.556 280.698)" fill="#fafafa"/>
      <path id="Trazado_122" data-name="Trazado 122" d="M54.233,8.2A30.871,30.871,0,0,1,27.117,24.32,30.871,30.871,0,0,1,0,8.2a48.914,48.914,0,0,1,54.233,0Z" transform="translate(32.331 318.072)" fill="#4984ff"/>
      <path id="Trazado_123" data-name="Trazado 123" d="M54.233,8.2A30.871,30.871,0,0,1,27.117,24.32,30.871,30.871,0,0,1,0,8.2a48.914,48.914,0,0,1,54.233,0Z" transform="translate(32.331 318.072)" fill="#fafafa" opacity="0.7"/>
      <path id="Trazado_124" data-name="Trazado 124" d="M27.492,13.767a13.746,13.746,0,1,1-4.019-9.733,13.746,13.746,0,0,1,4.019,9.733Z" transform="translate(45.681 287.166)" fill="#4984ff"/>
      <path id="Trazado_125" data-name="Trazado 125" d="M27.492,13.767a13.746,13.746,0,1,1-4.019-9.733,13.746,13.746,0,0,1,4.019,9.733Z" transform="translate(45.681 287.166)" fill="#fafafa" opacity="0.7"/>
      <rect id="Rectángulo_124" data-name="Rectángulo 124" width="9.512" height="2.086" transform="translate(94.595 0)" fill="#4984ff"/>
      <rect id="Rectángulo_125" data-name="Rectángulo 125" width="22.486" height="2.086" transform="translate(57.049 0)" fill="#4984ff"/>
      <rect id="Rectángulo_126" data-name="Rectángulo 126" width="416.721" height="105.004" rx="8.94" transform="translate(0 7.301)" fill="#4984ff"/>
      <rect id="Rectángulo_127" data-name="Rectángulo 127" width="416.721" height="105.004" rx="8.94" transform="translate(4.401 11.702)" fill="#4984ff"/>
      <rect id="Rectángulo_128" data-name="Rectángulo 128" width="416.721" height="105.004" rx="8.94" transform="translate(4.401 11.702)" fill="#fafafa" opacity="0.6"/>
      <rect id="Rectángulo_129" data-name="Rectángulo 129" width="416.721" height="105.004" rx="8.94" transform="translate(8.802 16.103)" fill="#4984ff"/>
      <rect id="Rectángulo_130" data-name="Rectángulo 130" width="416.721" height="105.004" rx="8.94" transform="translate(8.802 16.103)" fill="#fafafa" opacity="0.8"/>
      <rect id="Rectángulo_131" data-name="Rectángulo 131" width="192.445" height="15.895" rx="1.91" transform="translate(117.102 33.854)" fill="#4984ff"/>
      <rect id="Rectángulo_132" data-name="Rectángulo 132" width="256.065" height="15.895" rx="1.91" transform="translate(117.102 60.658)" fill="#4984ff"/>
      <rect id="Rectángulo_133" data-name="Rectángulo 133" width="72.047" height="5.987" rx="1.04" transform="translate(117.102 87.462)" fill="#4984ff"/>
      <rect id="Rectángulo_134" data-name="Rectángulo 134" width="72.047" height="5.987" rx="1.04" transform="translate(117.102 87.462)" fill="#fafafa" opacity="0.5"/>
      <circle id="Elipse_10" data-name="Elipse 10" cx="37.4" cy="37.4" r="37.4" transform="translate(14.391 96.346) rotate(-76.61)" fill="#4984ff"/>
      <path id="Trazado_126" data-name="Trazado 126" d="M61.743,30.872A30.725,30.725,0,1,1,52.744,9a30.871,30.871,0,0,1,9,21.872Z" transform="translate(28.556 37.734)" fill="#fafafa"/>
      <path id="Trazado_127" data-name="Trazado 127" d="M54.233,8.2A30.871,30.871,0,0,1,27.117,24.32,30.871,30.871,0,0,1,0,8.2a48.914,48.914,0,0,1,54.233,0Z" transform="translate(32.331 75.106)" fill="#4984ff"/>
      <path id="Trazado_128" data-name="Trazado 128" d="M54.233,8.2A30.871,30.871,0,0,1,27.117,24.32,30.871,30.871,0,0,1,0,8.2a48.914,48.914,0,0,1,54.233,0Z" transform="translate(32.331 75.106)" fill="#fafafa" opacity="0.7"/>
      <ellipse id="Elipse_11" data-name="Elipse 11" cx="13.746" cy="13.746" rx="13.746" ry="13.746" transform="translate(45.681 44.284)" fill="#4984ff"/>
      <ellipse id="Elipse_12" data-name="Elipse 12" cx="13.746" cy="13.746" rx="13.746" ry="13.746" transform="translate(45.681 44.284)" fill="#fafafa" opacity="0.7"/>
    </g>
    <g id="freepik--Character--inject-51" transform="translate(265.018 153.266) rotate(-16)">
      <path id="Trazado_129" data-name="Trazado 129" d="M18.791,0,0,9.768,21.054,26.124S35.2,14.265,29.647,6.073Z" transform="translate(438.487 331.426)" fill="#e4897b"/>
      <path id="Trazado_130" data-name="Trazado 130" d="M0,19.908,17.96,32.4,31.8,16.356,10.742,0Z" transform="translate(427.745 341.194)" fill="#e4897b"/>
      <path id="Trazado_131" data-name="Trazado 131" d="M25.35,0c2.578,3.38,4.784,6.416,7.018,9.71s4.354,6.474,6.474,9.739c4.182,6.588,8.164,13.348,11.83,20.28a235.7,235.7,0,0,1,10.2,21.54L63.132,67l2.034,5.729c.716,1.891,1.26,3.9,1.862,5.872l.888,2.864.2.745.344,1.232a26.007,26.007,0,0,1,.516,2.693,42.45,42.45,0,0,1-1.146,16.213,94.529,94.529,0,0,1-4.039,12.432A179.328,179.328,0,0,1,53.25,136.347a291.84,291.84,0,0,1-26.038,38.326L14.036,166.08c6.33-13.205,12.518-26.811,17.931-40.1a197.62,197.62,0,0,0,6.9-19.85A65.879,65.879,0,0,0,40.9,96.9a16.891,16.891,0,0,0,0-6.13h0l-.229-.573-.945-2.377c-.6-1.575-1.174-3.122-1.919-4.7l-2.062-4.7L33.485,73.7q-4.7-9.367-10.083-18.619c-3.638-6.13-7.39-12.26-11.458-18.275S3.838,24.691,0,19.163Z" transform="translate(439.203 168.984)" fill="#fbd2cc"/>
      <path id="Trazado_132" data-name="Trazado 132" d="M74.089,58.087,26.912,91.171s-2.864-6.187-6.846-15.21C16.829,68.771,12.79,59.806,8.78,50.754,7.147,47.087,5.543,43.421,3.968,39.84-6.946,14.977,5.8-2.925,28.2.4,47.937,3.348,74.089,58.087,74.089,58.087Z" transform="translate(429.592 154.866)" fill="#263238"/>
      <path id="Trazado_133" data-name="Trazado 133" d="M13.549,0c.917,8.88,1,36.35-2.263,52.3C8.049,45.115,4.01,36.149,0,27.1Z" transform="translate(438.372 178.523)" fill="#4984ff"/>
      <path id="Trazado_134" data-name="Trazado 134" d="M13.549,0c.917,8.88,1,36.35-2.263,52.3C8.049,45.115,4.01,36.149,0,27.1Z" transform="translate(438.372 178.523)" fill="#4984ff" opacity="0.8"/>
      <g id="Grupo_24" data-name="Grupo 24" transform="translate(438.372 178.523)" opacity="0.8">
        <path id="Trazado_135" data-name="Trazado 135" d="M13.549,0c.917,8.88,1,36.35-2.263,52.3C8.049,45.115,4.01,36.149,0,27.1Z"/>
        <path id="Trazado_136" data-name="Trazado 136" d="M13.549,0c.917,8.88,1,36.35-2.263,52.3C8.049,45.115,4.01,36.149,0,27.1Z" opacity="0.8"/>
      </g>
      <path id="Trazado_137" data-name="Trazado 137" d="M522.5,274.017,18.991,140.076A25.78,25.78,0,0,1,.831,108.739L24.72,18.911A25.78,25.78,0,0,1,56.057.836L559.566,134.748a25.78,25.78,0,0,1,18.161,31.366l-23.889,89.657A25.78,25.78,0,0,1,522.5,274.017Z" transform="translate(0 129.764)" fill="#4984ff"/>
      <path id="Trazado_138" data-name="Trazado 138" d="M522.5,274.017,18.991,140.076A25.78,25.78,0,0,1,.831,108.739L24.72,18.911A25.78,25.78,0,0,1,56.057.836L559.566,134.748a25.78,25.78,0,0,1,18.161,31.366l-23.889,89.657A25.78,25.78,0,0,1,522.5,274.017Z" transform="translate(0 129.764)" fill="#fafafa" opacity="0.8"/>
      <path id="Trazado_139" data-name="Trazado 139" d="M522.5,274.239,19.018,140.155A25.78,25.78,0,0,1,.829,108.818l23.918-89.8A25.78,25.78,0,0,1,56.084.829L559.564,134.769a25.78,25.78,0,0,1,18.189,31.337l-23.889,89.828A25.78,25.78,0,0,1,522.5,274.239Z" transform="translate(4.27 137.076)" fill="#4984ff"/>
      <path id="Trazado_140" data-name="Trazado 140" d="M522.5,274.239,19.018,140.155A25.78,25.78,0,0,1,.829,108.818l23.918-89.8A25.78,25.78,0,0,1,56.084.829L559.564,134.769a25.78,25.78,0,0,1,18.189,31.337l-23.889,89.828A25.78,25.78,0,0,1,522.5,274.239Z" transform="translate(4.27 137.076)" fill="#fafafa" opacity="0.4"/>
      <path id="Trazado_141" data-name="Trazado 141" d="M522.5,274.1,19.018,140.163A25.78,25.78,0,0,1,.829,108.827L24.718,19A25.78,25.78,0,0,1,56.084.838L559.565,134.75a25.78,25.78,0,0,1,18.189,31.509l-23.918,89.8A25.78,25.78,0,0,1,522.5,274.1Z" transform="translate(8.566 144.486)" fill="#4984ff"/>
      <path id="Trazado_142" data-name="Trazado 142" d="M522.5,274.1,19.018,140.163A25.78,25.78,0,0,1,.829,108.827L24.718,19A25.78,25.78,0,0,1,56.084.838L559.565,134.75a25.78,25.78,0,0,1,18.189,31.509l-23.918,89.8A25.78,25.78,0,0,1,522.5,274.1Z" transform="translate(8.566 144.486)" opacity="0.2"/>
      <rect id="Rectángulo_135" data-name="Rectángulo 135" width="342.213" height="21.827" rx="1.91" transform="matrix(0.966, 0.257, -0.257, 0.966, 177.287, 200.575)" fill="#4984ff"/>
      <rect id="Rectángulo_136" data-name="Rectángulo 136" width="342.213" height="21.827" rx="1.91" transform="matrix(0.966, 0.257, -0.257, 0.966, 177.287, 200.575)" fill="#fafafa" opacity="0.7"/>
      <rect id="Rectángulo_137" data-name="Rectángulo 137" width="220.189" height="21.827" rx="1.91" transform="matrix(0.966, 0.257, -0.257, 0.966, 167.842, 236.124)" fill="#4984ff"/>
      <rect id="Rectángulo_138" data-name="Rectángulo 138" width="220.189" height="21.827" rx="1.91" transform="matrix(0.966, 0.257, -0.257, 0.966, 167.842, 236.124)" fill="#fafafa" opacity="0.7"/>
      <rect id="Rectángulo_139" data-name="Rectángulo 139" width="311.277" height="8.221" rx="1.04" transform="matrix(0.966, 0.257, -0.257, 0.966, 158.376, 271.678)" fill="#fafafa"/>
      <circle id="Elipse_13" data-name="Elipse 13" cx="51.29" cy="51.29" r="51.29" transform="matrix(0.571, -0.821, 0.821, 0.571, 15.162, 237.05)" fill="#4984ff"/>
      <path id="Trazado_143" data-name="Trazado 143" d="M83.371,53.308a42.136,42.136,0,1,1-4.2-32.222,42.394,42.394,0,0,1,4.2,32.222Z" transform="translate(46.129 183.849)" fill="#fafafa"/>
      <path id="Trazado_144" data-name="Trazado 144" d="M72.069,22.743A42.365,42.365,0,0,1,30.316,34.667,42.365,42.365,0,0,1,0,3.58,67.229,67.229,0,0,1,72.04,22.743Z" transform="translate(47.292 232.604)" fill="#4984ff"/>
      <path id="Trazado_145" data-name="Trazado 145" d="M72.069,22.743A42.365,42.365,0,0,1,30.316,34.667,42.365,42.365,0,0,1,0,3.58,67.229,67.229,0,0,1,72.04,22.743Z" transform="translate(47.292 232.604)" fill="#fafafa" opacity="0.7"/>
      <path id="Trazado_146" data-name="Trazado 146" d="M37.119,23.75A18.876,18.876,0,1,1,35.211,9.411,18.877,18.877,0,0,1,37.119,23.75Z" transform="translate(73.391 193.357)" fill="#4984ff"/>
      <path id="Trazado_147" data-name="Trazado 147" d="M37.119,23.75A18.876,18.876,0,1,1,35.211,9.411,18.877,18.877,0,0,1,37.119,23.75Z" transform="translate(73.391 193.357)" fill="#fafafa" opacity="0.7"/>
      <path id="Trazado_148" data-name="Trazado 148" d="M56.2,0C50.84,14.609,43.45,41.763,52.387,53.508c0,0-6.559,14.637-34.574,10.14C-13.008,58.692,5.525,46,5.525,46,23,44.685,24.545,32.139,23.513,19.936Z" transform="translate(371.892 93.707)" fill="#fbd2cc"/>
      <path id="Trazado_149" data-name="Trazado 149" d="M0,13.885C1.575,11.221.172.824.172.824s44.57-3.294,60.153,3.294c8.336,3.523,0,18.361,0,18.361Z" transform="translate(370.972 130.694)" fill="#4984ff"/>
      <path id="Trazado_150" data-name="Trazado 150" d="M0,13.885C1.575,11.221.172.824.172.824s44.57-3.294,60.153,3.294c8.336,3.523,0,18.361,0,18.361Z" transform="translate(370.972 130.694)" fill="#80a9ff" opacity="0.1"/>
      <path id="Trazado_151" data-name="Trazado 151" d="M4.009,3.339C3.722,5,2.634,6.2,1.545,6.032S-.2,4.37.056,2.709,1.431-.156,2.519.016,4.181,1.678,4.009,3.339Z" transform="translate(372.693 64.703)" fill="#263238"/>
      <path id="Trazado_152" data-name="Trazado 152" d="M10.226,0A59.471,59.471,0,0,1,0,12.919a9.682,9.682,0,0,0,7.705,2.864Z" transform="translate(366.275 68.872)" fill="#fbd2cc"/>
      <path id="Trazado_153" data-name="Trazado 153" d="M7.389,6.76A.945.945,0,0,1,6.5,6.245,7.82,7.82,0,0,0,.772,1.977,1,1,0,0,1,.944,0a9.853,9.853,0,0,1,7.3,5.3,1,1,0,0,1-.4,1.346A.916.916,0,0,1,7.389,6.76Z" transform="translate(376.015 56.126)" fill="#263238"/>
      <path id="Trazado_154" data-name="Trazado 154" d="M20.681,51.416,0,48.638.974,0,21.655,2.778Z" transform="translate(225.946 675.644)" fill="#e4897b"/>
      <path id="Trazado_155" data-name="Trazado 155" d="M37.123,48.352H16.241L0,0H20.853Z" transform="translate(363.897 701.567)" fill="#e4897b"/>
      <path id="Trazado_156" data-name="Trazado 156" d="M32.578,0H58.042a1.862,1.862,0,0,1,1.776,1.432l4.125,18.562a3.065,3.065,0,0,1-3.065,3.7c-8.192-.143-14.15-.6-24.462-.6-6.359,0-19.421.659-28.186.659s-9.911-8.593-6.33-9.453c16.1-3.523,22.142-8.364,27.3-13A5.069,5.069,0,0,1,32.578,0Z" transform="translate(344.782 747.484)" fill="#263238"/>
      <path id="Trazado_157" data-name="Trazado 157" d="M49.792.05l22.6,3.036a1.8,1.8,0,0,1,1.547,1.661l1.6,18.934a3.036,3.036,0,0,1-3.466,3.266c-8.135-1.26-19.822-3.323-30.077-4.7-11.973-1.633-20.051-2.521-34-4.411C-.594,16.692-1.682,7.784,1.984,7.469c16.642-1.346,27.47.229,42.594-6.5A9.74,9.74,0,0,1,49.792.05Z" transform="translate(175.438 719.506)" fill="#263238"/>
      <path id="Trazado_158" data-name="Trazado 158" d="M.516,0,0,25.092l20.71,2.779L21.2,2.807Z" transform="translate(226.405 675.644)" fill="#ce6f64"/>
      <path id="Trazado_159" data-name="Trazado 159" d="M20.882,0H0L8.393,24.921H29.275Z" transform="translate(363.897 701.596)" fill="#ce6f64"/>
      <path id="Trazado_160" data-name="Trazado 160" d="M26.465,1.578s-32.855,59.15-25.35,178.6L111.71,195.1c3.065-16.872,3.581-101.143,30.764-178.941a287.265,287.265,0,0,0-36.407-9.682A405.9,405.9,0,0,0,59.062.117,208.614,208.614,0,0,0,26.465,1.578Z" transform="translate(318.728 140.223)" fill="#263238"/>
      <path id="Trazado_161" data-name="Trazado 161" d="M161.668,16.385c-4.583,7.934-9.453,15.611-14.322,23.4L132.537,62.7c-4.927,7.677-10.083,15.239-15.267,22.915-2.578,3.781-5.242,7.534-7.906,11.286l-4.039,5.729c-1.49,2.034-3.237,4.354-4.9,6.273a162.841,162.841,0,0,1-21.483,20.452c-7.476,5.958-15.067,11.458-22.915,16.614a415.927,415.927,0,0,1-48.38,27.556L0,159.921c14.322-10.512,28.644-21.6,42.279-32.855,6.789-5.729,13.434-11.458,19.65-17.444A148.955,148.955,0,0,0,78.6,91.232a47.752,47.752,0,0,0,3.208-4.669l3.523-5.729,7.018-11.458,14.036-23.116,14.036-23.2C125.2,15.382,129.873,7.591,134.743,0Z" transform="translate(196.242 155.55)" fill="#fbd2cc"/>
      <path id="Trazado_162" data-name="Trazado 162" d="M85.389,25.377c-2.664,19.765-37.238,66.8-37.238,66.8L0,51.529S25.178,23.372,45.831,7.3,88.253,3.664,85.389,25.377Z" transform="translate(282.719 141.831)" fill="#263238"/>
      <path id="Trazado_163" data-name="Trazado 163" d="M18.017,0,0,6.13,18.046,24.949s11-1.318,10-16.5Z" transform="translate(188.594 309.513)" fill="#fbd2cc"/>
      <path id="Trazado_164" data-name="Trazado 164" d="M0,14.322,20.6,24.434l9.4-5.614L11.945,0Z" transform="translate(176.649 315.643)" fill="#fbd2cc"/>
      <path id="Trazado_165" data-name="Trazado 165" d="M61.644,34.757c-4.526,20.223-6.159,32.282-18.132,41.1C25.466,89.124,1.777,75.862.173,54.579-1.287,35.531,6.361,5.683,27.672.756a28.243,28.243,0,0,1,33.972,34Z" transform="translate(371.887 36.55)" fill="#fbd2cc"/>
      <path id="Trazado_166" data-name="Trazado 166" d="M119.436,70.62a11.142,11.142,0,0,0-5.127-7.591c9.8-4.3,4.9-9.281-3.466-16.556h0c-10.8-9.653-15.3-29.189-14.809-33.371-3.409,5.185-2.492,12.833.4,19.707a47.434,47.434,0,0,1-8.593-13.463c-8.364-21-26.439-2.635-43.883-2.034-29.3,1-6.1-14.322,15.411-13.864C27.316-6.376-4.651,5.8.562,27.224s41.076-5.729,40.875,14.036c0,4.01,4.383,7.963,10.885,11.085C43.3,70.906,65.3,108.2,78.1,109.4s35.232-21.082,36.178-40.388a14.323,14.323,0,0,1,5.156,1.6Z" transform="translate(342.081 0)" fill="#263238"/>
      <path id="Trazado_168" data-name="Trazado 168" d="M94.447,396.065H56.121S5.65,267.366.294,200.6c-1.146-14.322,1.146-33.2,5.385-53.508C12.9,112.372,25.73,73.215,36.042,43.969,45.294,18.189,52.713,0,52.713,0l71.41,9.653C117.105,61.471,60.447,143.88,59.788,214.746,59.244,280.113,94.447,396.065,94.447,396.065Z" transform="translate(306.258 325.611)" fill="#4984ff"/>
      <path id="Trazado_169" data-name="Trazado 169" d="M94.447,396.065H56.121S5.65,267.366.294,200.6c-1.146-14.322,1.146-33.2,5.385-53.508C12.9,112.372,25.73,73.215,36.042,43.969,45.294,18.189,52.713,0,52.713,0l71.41,9.653C117.105,61.471,60.447,143.88,59.788,214.746,59.244,280.113,94.447,396.065,94.447,396.065Z" transform="translate(306.258 325.611)" fill="#80a9ff" opacity="0.1"/>
      <path id="Trazado_170" data-name="Trazado 170" d="M48.438,16.3C45.945,50.93,19.306,87.766,0,103.148,7.218,68.432,20.051,29.275,30.363.029,35.777-.63,44.341,10.055,48.438,16.3Z" transform="translate(312.022 369.551)" fill="#4984ff"/>
      <path id="Trazado_171" data-name="Trazado 171" d="M48.438,16.3C45.945,50.93,19.306,87.766,0,103.148,7.218,68.432,20.051,29.275,30.363.029,35.777-.63,44.341,10.055,48.438,16.3Z" transform="translate(312.022 369.551)" opacity="0.2"/>
      <path id="Trazado_172" data-name="Trazado 172" d="M106.612,0S8.42,130.761,2.147,194.037C-4.384,259.918,6.071,374.5,6.071,374.5L41.1,379.222s10.57-107.588,20.853-171.866C73.127,137.349,179.4,64.965,186.816,10.77Z" transform="translate(213.23 320.398)" fill="#4984ff"/>
      <path id="Trazado_173" data-name="Trazado 173" d="M106.612,0S8.42,130.761,2.147,194.037C-4.384,259.918,6.071,374.5,6.071,374.5L41.1,379.222s10.57-107.588,20.853-171.866C73.127,137.349,179.4,64.965,186.816,10.77Z" transform="translate(213.23 320.398)" fill="#80a9ff" opacity="0.1"/>
      <path id="Trazado_174" data-name="Trazado 174" d="M5.872,14.322H55.856V.859L0,0Z" transform="translate(349.833 708.184)" fill="#4984ff"/>
      <path id="Trazado_175" data-name="Trazado 175" d="M5.872,14.322H55.856V.859L0,0Z" transform="translate(349.833 708.184)" fill="#fafafa" opacity="0.4"/>
      <path id="Trazado_176" data-name="Trazado 176" d="M3.924,14.981l48.667,6.674L54.4,8.192,0,0Z" transform="translate(208.301 679.683)" fill="#4984ff"/>
      <path id="Trazado_177" data-name="Trazado 177" d="M3.924,14.981l48.667,6.674L54.4,8.192,0,0Z" transform="translate(208.301 679.683)" fill="#fafafa" opacity="0.4"/>
      <path id="Trazado_178" data-name="Trazado 178" d="M5.067,5.3a6.273,6.273,0,0,1-4.01-1.089A2.865,2.865,0,0,1,.026,1.608,1.575,1.575,0,0,1,.885.2c2.291-1.146,9.052,2.865,9.8,3.438a.516.516,0,0,1,.229.487.459.459,0,0,1-.372.4A23.278,23.278,0,0,1,5.067,5.3ZM1.974.978a1.376,1.376,0,0,0-.63,0,.821.821,0,0,0-.315.573,2.033,2.033,0,0,0,.659,1.8,10.14,10.14,0,0,0,7.419.372A20.052,20.052,0,0,0,1.974.978Z" transform="translate(365.389 745.847)" fill="#4984ff"/>
      <path id="Trazado_179" data-name="Trazado 179" d="M6.161,9.394H5.932C3.755,8.219-.4,3.665.031,1.316A1.6,1.6,0,0,1,1.606.027,2.579,2.579,0,0,1,3.7.657c2.435,1.977,2.864,7.992,2.864,8.25a.43.43,0,0,1-.229.458ZM1.95.8H1.721c-.63,0-.687.372-.716.487C.747,2.663,3.411,6.128,5.559,7.761A12.031,12.031,0,0,0,3.1,1.23,1.718,1.718,0,0,0,1.95.915Z" transform="translate(369.652 741.012)" fill="#4984ff"/>
      <path id="Trazado_180" data-name="Trazado 180" d="M9.274,6.033C6.008,6.033,2.112,5.6.68,3.856a2.865,2.865,0,0,1-.6-2.521,1.718,1.718,0,0,1,1-1.2C3.774-.9,11.508,4.429,12.4,5.03a.516.516,0,0,1,.2.544.487.487,0,0,1-.459.344C11.336,5.976,10.3,6.033,9.274,6.033ZM1.883.992a1.147,1.147,0,0,0-.544,0,.544.544,0,0,0-.373.458,1.861,1.861,0,0,0,.373,1.661c1.117,1.289,4.526,1.977,9.166,1.8A23.857,23.857,0,0,0,1.883.992Z" transform="translate(210.686 716.216)" fill="#4984ff"/>
      <path id="Trazado_181" data-name="Trazado 181" d="M6.318,10.025H6.06C3.711,8.565-.614,3.437.073,1.146.216.63.675,0,1.935,0h.143A3.752,3.752,0,0,1,4.685,1.232,14.035,14.035,0,0,1,6.8,9.625a.458.458,0,0,1-.258.43ZM1.935.917c-.8,0-.888.315-.917.43C.589,2.721,3.482,6.674,5.831,8.565A11.69,11.69,0,0,0,3.94,1.8,2.578,2.578,0,0,0,2.05.917Z" transform="translate(216.392 712.137)" fill="#4984ff"/>
      <path id="Trazado_604" data-name="Trazado 604" d="M1222.053-783.076s-3.479,6.009-3.163,10.753,18.826,27.792,22.857,22.178,7.188-9.527,6.24-15.536-11.386-14.232-11.386-14.232Z" transform="translate(-1019.565 488.88) rotate(16)" fill="#93ade5" stroke="#fff" stroke-width="1"/>
      <path id="Trazado_605" data-name="Trazado 605" d="M1240.366-796.657l-3.743,17.03,9.544,9.544,6.55-8.421Z" transform="translate(-1019.565 488.88) rotate(16)" fill="none" stroke="#fff" stroke-width="1"/>
      <path id="Trazado_167" data-name="Trazado 167" d="M19.481,11.536a19.821,19.821,0,0,1-8.937,12.088C4.586,27.118-.14,22.249,0,15.689.146,9.817,3.441.88,10.115.049a8.851,8.851,0,0,1,9.367,11.486Z" transform="translate(388.658 62.326)" fill="#fbd2cc"/>
    </g>
  </g>
</svg>
