<svg xmlns="http://www.w3.org/2000/svg" width="595.796" height="747.539" viewBox="0 0 595.796 747.539">
  <g id="Posts-rafiki" transform="translate(-217.983 2.651)">
    <g id="freepik--Graphics--inject-51" transform="matrix(1, -0.017, 0.017, 1, 217.856, -0.834)">
      <rect id="Rectángulo_92" data-name="Rectángulo 92" width="416.721" height="104.983" rx="8.94" transform="translate(0 493.232)" fill="#4984ff"/>
      <rect id="Rectángulo_93" data-name="Rectángulo 93" width="416.721" height="104.983" rx="8.94" transform="translate(4.401 497.633)" fill="#4984ff"/>
      <rect id="Rectángulo_94" data-name="Rectángulo 94" width="416.721" height="104.983" rx="8.94" transform="translate(4.401 497.633)" fill="#fafafa" opacity="0.6"/>
      <rect id="Rectángulo_95" data-name="Rectángulo 95" width="416.721" height="105.004" rx="8.94" transform="translate(8.802 502.034)" fill="#4984ff"/>
      <rect id="Rectángulo_96" data-name="Rectángulo 96" width="416.721" height="105.004" rx="8.94" transform="translate(8.802 502.034)" fill="#fafafa" opacity="0.8"/>
      <rect id="Rectángulo_97" data-name="Rectángulo 97" width="210.53" height="15.895" rx="1.91" transform="translate(117.102 519.785)" fill="#4984ff"/>
      <rect id="Rectángulo_98" data-name="Rectángulo 98" width="98.705" height="15.895" rx="1.91" transform="translate(117.102 546.589)" fill="#4984ff"/>
      <rect id="Rectángulo_99" data-name="Rectángulo 99" width="77.616" height="15.895" rx="1.91" transform="translate(225.798 546.589)" fill="#4984ff"/>
      <rect id="Rectángulo_100" data-name="Rectángulo 100" width="249.202" height="5.987" rx="1.04" transform="translate(117.102 573.393)" fill="#4984ff"/>
      <rect id="Rectángulo_101" data-name="Rectángulo 101" width="249.202" height="5.987" rx="1.04" transform="translate(117.102 573.393)" fill="#fafafa" opacity="0.5"/>
      <circle id="Elipse_3" data-name="Elipse 3" cx="37.4" cy="37.4" r="37.4" transform="translate(14.387 582.296) rotate(-76.61)" fill="#4984ff"/>
      <path id="Trazado_115" data-name="Trazado 115" d="M61.743,30.872a30.6,30.6,0,1,1-8.961-21.91A30.871,30.871,0,0,1,61.743,30.872Z" transform="translate(28.556 523.664)" fill="#fafafa"/>
      <path id="Trazado_116" data-name="Trazado 116" d="M54.233,8.2A30.871,30.871,0,0,1,27.117,24.32,30.871,30.871,0,0,1,0,8.2a48.915,48.915,0,0,1,54.233,0Z" transform="translate(32.331 561.037)" fill="#4984ff"/>
      <path id="Trazado_117" data-name="Trazado 117" d="M54.233,8.2A30.871,30.871,0,0,1,27.117,24.32,30.871,30.871,0,0,1,0,8.2a48.915,48.915,0,0,1,54.233,0Z" transform="translate(32.331 561.037)" fill="#fafafa" opacity="0.7"/>
      <ellipse id="Elipse_4" data-name="Elipse 4" cx="13.746" cy="13.746" rx="13.746" ry="13.746" transform="translate(45.681 530.235)" fill="#4984ff"/>
      <ellipse id="Elipse_5" data-name="Elipse 5" cx="13.746" cy="13.746" rx="13.746" ry="13.746" transform="translate(45.681 530.235)" fill="#fafafa" opacity="0.7"/>
      <rect id="Rectángulo_102" data-name="Rectángulo 102" width="416.721" height="104.983" rx="8.94" transform="translate(0 371.749)" fill="#4984ff"/>
      <rect id="Rectángulo_103" data-name="Rectángulo 103" width="416.721" height="105.004" rx="8.94" transform="translate(4.401 376.15)" fill="#4984ff"/>
      <rect id="Rectángulo_104" data-name="Rectángulo 104" width="416.721" height="105.004" rx="8.94" transform="translate(4.401 376.15)" fill="#fafafa" opacity="0.6"/>
      <rect id="Rectángulo_105" data-name="Rectángulo 105" width="416.721" height="104.983" rx="8.94" transform="translate(8.802 380.551)" fill="#4984ff"/>
      <rect id="Rectángulo_106" data-name="Rectángulo 106" width="416.721" height="104.983" rx="8.94" transform="translate(8.802 380.551)" fill="#fafafa" opacity="0.8"/>
      <rect id="Rectángulo_107" data-name="Rectángulo 107" width="68.334" height="15.895" rx="1.91" transform="translate(117.102 398.302)" fill="#4984ff"/>
      <rect id="Rectángulo_108" data-name="Rectángulo 108" width="54.588" height="15.895" rx="1.91" transform="translate(194.301 398.302)" fill="#4984ff"/>
      <rect id="Rectángulo_109" data-name="Rectángulo 109" width="219.916" height="15.895" rx="1.91" transform="translate(117.102 425.106)" fill="#4984ff"/>
      <rect id="Rectángulo_110" data-name="Rectángulo 110" width="152.125" height="5.987" rx="1.04" transform="translate(117.102 451.91)" fill="#4984ff"/>
      <rect id="Rectángulo_111" data-name="Rectángulo 111" width="152.125" height="5.987" rx="1.04" transform="translate(117.102 451.91)" fill="#fafafa" opacity="0.5"/>
      <circle id="Elipse_6" data-name="Elipse 6" cx="37.4" cy="37.4" r="37.4" transform="translate(14.393 460.819) rotate(-76.61)" fill="#4984ff"/>
      <path id="Trazado_118" data-name="Trazado 118" d="M61.743,30.873a30.6,30.6,0,1,1-8.961-21.91,30.871,30.871,0,0,1,8.961,21.91Z" transform="translate(28.556 402.181)" fill="#fafafa"/>
      <path id="Trazado_119" data-name="Trazado 119" d="M54.233,8.2A30.871,30.871,0,0,1,27.117,24.32,30.871,30.871,0,0,1,0,8.2a48.914,48.914,0,0,1,54.233,0Z" transform="translate(32.331 439.555)" fill="#4984ff"/>
      <path id="Trazado_120" data-name="Trazado 120" d="M54.233,8.2A30.871,30.871,0,0,1,27.117,24.32,30.871,30.871,0,0,1,0,8.2a48.914,48.914,0,0,1,54.233,0Z" transform="translate(32.331 439.555)" fill="#fafafa" opacity="0.7"/>
      <ellipse id="Elipse_7" data-name="Elipse 7" cx="13.746" cy="13.746" rx="13.746" ry="13.746" transform="translate(45.681 408.753)" fill="#4984ff"/>
      <ellipse id="Elipse_8" data-name="Elipse 8" cx="13.746" cy="13.746" rx="13.746" ry="13.746" transform="translate(45.681 408.753)" fill="#fafafa" opacity="0.7"/>
      <rect id="Rectángulo_112" data-name="Rectángulo 112" width="416.721" height="105.004" rx="8.94" transform="translate(0 250.266)" fill="#4984ff"/>
      <rect id="Rectángulo_113" data-name="Rectángulo 113" width="416.721" height="104.983" rx="8.94" transform="translate(4.401 254.667)" fill="#4984ff"/>
      <rect id="Rectángulo_114" data-name="Rectángulo 114" width="416.721" height="104.983" rx="8.94" transform="translate(4.401 254.667)" fill="#fafafa" opacity="0.6"/>
      <rect id="Rectángulo_115" data-name="Rectángulo 115" width="416.721" height="105.004" rx="8.94" transform="translate(8.802 259.069)" fill="#4984ff"/>
      <rect id="Rectángulo_116" data-name="Rectángulo 116" width="416.721" height="105.004" rx="8.94" transform="translate(8.802 259.069)" fill="#fafafa" opacity="0.8"/>
      <rect id="Rectángulo_117" data-name="Rectángulo 117" width="209.028" height="15.895" rx="1.91" transform="translate(117.102 276.82)" fill="#4984ff"/>
      <rect id="Rectángulo_118" data-name="Rectángulo 118" width="141.34" height="15.895" rx="1.91" transform="translate(117.102 303.623)" fill="#4984ff"/>
      <rect id="Rectángulo_119" data-name="Rectángulo 119" width="20.358" height="15.895" rx="1.91" transform="translate(270.249 303.623)" fill="#4984ff"/>
      <rect id="Rectángulo_120" data-name="Rectángulo 120" width="111.908" height="5.987" rx="1.04" transform="translate(117.102 330.427)" fill="#4984ff"/>
      <rect id="Rectángulo_121" data-name="Rectángulo 121" width="111.908" height="5.987" rx="1.04" transform="translate(117.102 330.427)" fill="#fafafa" opacity="0.5"/>
      <rect id="Rectángulo_122" data-name="Rectángulo 122" width="127.678" height="5.987" rx="1.04" transform="translate(240.4 330.427)" fill="#4984ff"/>
      <rect id="Rectángulo_123" data-name="Rectángulo 123" width="127.678" height="5.987" rx="1.04" transform="translate(240.4 330.427)" fill="#fafafa" opacity="0.5"/>
      <circle id="Elipse_9" data-name="Elipse 9" cx="37.4" cy="37.4" r="37.4" transform="translate(6.542 311.563) rotate(-45)" fill="#4984ff"/>
      <path id="Trazado_121" data-name="Trazado 121" d="M61.743,30.872a30.6,30.6,0,1,1-8.961-21.91A30.871,30.871,0,0,1,61.743,30.872Z" transform="translate(28.556 280.698)" fill="#fafafa"/>
      <path id="Trazado_122" data-name="Trazado 122" d="M54.233,8.2A30.871,30.871,0,0,1,27.117,24.32,30.871,30.871,0,0,1,0,8.2a48.914,48.914,0,0,1,54.233,0Z" transform="translate(32.331 318.072)" fill="#4984ff"/>
      <path id="Trazado_123" data-name="Trazado 123" d="M54.233,8.2A30.871,30.871,0,0,1,27.117,24.32,30.871,30.871,0,0,1,0,8.2a48.914,48.914,0,0,1,54.233,0Z" transform="translate(32.331 318.072)" fill="#fafafa" opacity="0.7"/>
      <path id="Trazado_124" data-name="Trazado 124" d="M27.492,13.767a13.746,13.746,0,1,1-4.019-9.733,13.746,13.746,0,0,1,4.019,9.733Z" transform="translate(45.681 287.166)" fill="#4984ff"/>
      <path id="Trazado_125" data-name="Trazado 125" d="M27.492,13.767a13.746,13.746,0,1,1-4.019-9.733,13.746,13.746,0,0,1,4.019,9.733Z" transform="translate(45.681 287.166)" fill="#fafafa" opacity="0.7"/>
      <rect id="Rectángulo_124" data-name="Rectángulo 124" width="9.512" height="2.086" transform="translate(94.595 0)" fill="#4984ff"/>
      <rect id="Rectángulo_125" data-name="Rectángulo 125" width="22.486" height="2.086" transform="translate(57.049 0)" fill="#4984ff"/>
      <rect id="Rectángulo_126" data-name="Rectángulo 126" width="416.721" height="105.004" rx="8.94" transform="translate(0 7.301)" fill="#4984ff"/>
      <rect id="Rectángulo_127" data-name="Rectángulo 127" width="416.721" height="105.004" rx="8.94" transform="translate(4.401 11.702)" fill="#4984ff"/>
      <rect id="Rectángulo_128" data-name="Rectángulo 128" width="416.721" height="105.004" rx="8.94" transform="translate(4.401 11.702)" fill="#fafafa" opacity="0.6"/>
      <rect id="Rectángulo_129" data-name="Rectángulo 129" width="416.721" height="105.004" rx="8.94" transform="translate(8.802 16.103)" fill="#4984ff"/>
      <rect id="Rectángulo_130" data-name="Rectángulo 130" width="416.721" height="105.004" rx="8.94" transform="translate(8.802 16.103)" fill="#fafafa" opacity="0.8"/>
      <rect id="Rectángulo_131" data-name="Rectángulo 131" width="192.445" height="15.895" rx="1.91" transform="translate(117.102 33.854)" fill="#4984ff"/>
      <rect id="Rectángulo_132" data-name="Rectángulo 132" width="256.065" height="15.895" rx="1.91" transform="translate(117.102 60.658)" fill="#4984ff"/>
      <rect id="Rectángulo_133" data-name="Rectángulo 133" width="72.047" height="5.987" rx="1.04" transform="translate(117.102 87.462)" fill="#4984ff"/>
      <rect id="Rectángulo_134" data-name="Rectángulo 134" width="72.047" height="5.987" rx="1.04" transform="translate(117.102 87.462)" fill="#fafafa" opacity="0.5"/>
      <circle id="Elipse_10" data-name="Elipse 10" cx="37.4" cy="37.4" r="37.4" transform="translate(14.391 96.346) rotate(-76.61)" fill="#4984ff"/>
      <path id="Trazado_126" data-name="Trazado 126" d="M61.743,30.872A30.725,30.725,0,1,1,52.744,9a30.871,30.871,0,0,1,9,21.872Z" transform="translate(28.556 37.734)" fill="#fafafa"/>
      <path id="Trazado_127" data-name="Trazado 127" d="M54.233,8.2A30.871,30.871,0,0,1,27.117,24.32,30.871,30.871,0,0,1,0,8.2a48.914,48.914,0,0,1,54.233,0Z" transform="translate(32.331 75.106)" fill="#4984ff"/>
      <path id="Trazado_128" data-name="Trazado 128" d="M54.233,8.2A30.871,30.871,0,0,1,27.117,24.32,30.871,30.871,0,0,1,0,8.2a48.914,48.914,0,0,1,54.233,0Z" transform="translate(32.331 75.106)" fill="#fafafa" opacity="0.7"/>
      <ellipse id="Elipse_11" data-name="Elipse 11" cx="13.746" cy="13.746" rx="13.746" ry="13.746" transform="translate(45.681 44.284)" fill="#4984ff"/>
      <ellipse id="Elipse_12" data-name="Elipse 12" cx="13.746" cy="13.746" rx="13.746" ry="13.746" transform="translate(45.681 44.284)" fill="#fafafa" opacity="0.7"/>
    </g>
    <g id="freepik--Character--inject-51" transform="translate(269.466 20.248) rotate(1)">
      <path id="Trazado_129" data-name="Trazado 129" d="M17.5,0,0,9.095,19.6,24.324s13.176-11.042,8-18.67Z" transform="translate(408.283 308.596)" fill="#e4897b"/>
      <path id="Trazado_130" data-name="Trazado 130" d="M0,18.537,16.723,30.165,29.605,15.229,10,0Z" transform="translate(398.281 317.691)" fill="#e4897b"/>
      <path id="Trazado_131" data-name="Trazado 131" d="M23.6,0c2.4,3.147,4.454,5.974,6.535,9.041s4.054,6.028,6.028,9.068c3.894,6.134,7.6,12.429,11.015,18.883A219.46,219.46,0,0,1,56.676,57.05l2.107,5.334,1.894,5.334c.667,1.76,1.173,3.627,1.733,5.468l.827,2.667.187.693.32,1.147a24.215,24.215,0,0,1,.48,2.507,39.526,39.526,0,0,1-1.067,15.1A88.018,88.018,0,0,1,59.4,106.872a166.977,166.977,0,0,1-9.815,20.083,271.736,271.736,0,0,1-24.244,35.686l-12.269-8c5.894-12.3,11.655-24.964,16.7-37.34a184.007,184.007,0,0,0,6.428-18.483,61.341,61.341,0,0,0,1.894-8.588,15.727,15.727,0,0,0,0-5.708h0l-.213-.533-.88-2.214c-.56-1.467-1.093-2.907-1.787-4.374l-1.92-4.374-2.107-4.4Q26.8,59.9,21.79,51.289C18.4,45.581,14.909,39.873,11.122,34.272S3.574,22.991,0,17.843Z" transform="translate(408.95 157.344)" fill="#fbd2cc"/>
      <path id="Trazado_132" data-name="Trazado 132" d="M68.986,54.086,25.058,84.891s-2.667-5.761-6.374-14.162C15.67,64.034,11.909,55.686,8.175,47.258,6.655,43.844,5.161,40.43,3.694,37.1-6.467,13.946,5.4-2.724,26.258.37,44.635,3.117,68.986,54.086,68.986,54.086Z" transform="translate(400.001 144.199)" fill="#263238"/>
      <path id="Trazado_133" data-name="Trazado 133" d="M12.616,0c.853,8.268.934,33.846-2.107,48.7C7.495,42.007,3.734,33.659,0,25.231Z" transform="translate(408.176 166.226)" fill="#4984ff"/>
      <path id="Trazado_134" data-name="Trazado 134" d="M12.616,0c.853,8.268.934,33.846-2.107,48.7C7.495,42.007,3.734,33.659,0,25.231Z" transform="translate(408.176 166.226)" fill="#4984ff" opacity="0.8"/>
      <g id="Grupo_24" data-name="Grupo 24" transform="translate(408.176 166.226)" opacity="0.8">
        <path id="Trazado_135" data-name="Trazado 135" d="M12.616,0c.853,8.268.934,33.846-2.107,48.7C7.495,42.007,3.734,33.659,0,25.231Z" transform="translate(0 0)"/>
        <path id="Trazado_136" data-name="Trazado 136" d="M12.616,0c.853,8.268.934,33.846-2.107,48.7C7.495,42.007,3.734,33.659,0,25.231Z" transform="translate(0 0)" opacity="0.8"/>
      </g>
      <path id="Trazado_137" data-name="Trazado 137" d="M486.509,255.142,17.683,130.427A24,24,0,0,1,.773,101.249L23.017,17.608A24,24,0,0,1,52.2.779L521.022,125.467a24,24,0,0,1,16.91,29.205l-22.244,83.481A24,24,0,0,1,486.509,255.142Z" transform="translate(0 120.826)" fill="#4984ff"/>
      <path id="Trazado_138" data-name="Trazado 138" d="M486.509,255.142,17.683,130.427A24,24,0,0,1,.773,101.249L23.017,17.608A24,24,0,0,1,52.2.779L521.022,125.467a24,24,0,0,1,16.91,29.205l-22.244,83.481A24,24,0,0,1,486.509,255.142Z" transform="translate(0 120.826)" fill="#fafafa" opacity="0.8"/>
      <path id="Trazado_139" data-name="Trazado 139" d="M486.507,255.348,17.708,130.5A24,24,0,0,1,.772,101.322l22.27-83.614A24,24,0,0,1,52.22.772l468.8,124.714a24,24,0,0,1,16.936,29.178l-22.244,83.641A24,24,0,0,1,486.507,255.348Z" transform="translate(3.976 127.634)" fill="#4984ff"/>
      <path id="Trazado_140" data-name="Trazado 140" d="M486.507,255.348,17.708,130.5A24,24,0,0,1,.772,101.322l22.27-83.614A24,24,0,0,1,52.22.772l468.8,124.714a24,24,0,0,1,16.936,29.178l-22.244,83.641A24,24,0,0,1,486.507,255.348Z" transform="translate(3.976 127.634)" fill="#fafafa" opacity="0.4"/>
      <path id="Trazado_141" data-name="Trazado 141" d="M486.508,255.223,17.708,130.509A24,24,0,0,1,.772,101.33L23.016,17.69A24,24,0,0,1,52.221.78l468.8,124.688a24,24,0,0,1,16.937,29.338L515.686,238.42A24,24,0,0,1,486.508,255.223Z" transform="translate(7.976 134.534)" fill="#4984ff"/>
      <path id="Trazado_142" data-name="Trazado 142" d="M486.508,255.223,17.708,130.509A24,24,0,0,1,.772,101.33L23.016,17.69A24,24,0,0,1,52.221.78l468.8,124.688a24,24,0,0,1,16.937,29.338L515.686,238.42A24,24,0,0,1,486.508,255.223Z" transform="translate(7.976 134.534)" opacity="0.2"/>
      <rect id="Rectángulo_135" data-name="Rectángulo 135" width="318.641" height="20.323" rx="1.91" transform="matrix(0.966, 0.257, -0.257, 0.966, 165.075, 186.759)" fill="#4984ff"/>
      <rect id="Rectángulo_136" data-name="Rectángulo 136" width="318.641" height="20.323" rx="1.91" transform="matrix(0.966, 0.257, -0.257, 0.966, 165.075, 186.759)" fill="#fafafa" opacity="0.7"/>
      <rect id="Rectángulo_137" data-name="Rectángulo 137" width="205.021" height="20.323" rx="1.91" transform="matrix(0.966, 0.257, -0.257, 0.966, 156.281, 219.86)" fill="#4984ff"/>
      <rect id="Rectángulo_138" data-name="Rectángulo 138" width="205.021" height="20.323" rx="1.91" transform="matrix(0.966, 0.257, -0.257, 0.966, 156.281, 219.86)" fill="#fafafa" opacity="0.7"/>
      <rect id="Rectángulo_139" data-name="Rectángulo 139" width="289.836" height="7.655" rx="1.04" transform="matrix(0.966, 0.257, -0.257, 0.966, 147.467, 252.964)" fill="#fafafa"/>
      <circle id="Elipse_13" data-name="Elipse 13" cx="47.757" cy="47.757" r="47.757" transform="matrix(0.571, -0.821, 0.821, 0.571, 14.118, 220.721)" fill="#4984ff"/>
      <path id="Trazado_143" data-name="Trazado 143" d="M77.629,49.636a39.233,39.233,0,1,1-3.91-30,39.473,39.473,0,0,1,3.91,30Z" transform="translate(42.952 171.185)" fill="#fafafa"/>
      <path id="Trazado_144" data-name="Trazado 144" d="M67.1,21.176a39.447,39.447,0,0,1-38.877,11.1A39.447,39.447,0,0,1,0,3.333,62.6,62.6,0,0,1,67.078,21.176Z" transform="translate(44.034 216.581)" fill="#4984ff"/>
      <path id="Trazado_145" data-name="Trazado 145" d="M67.1,21.176a39.447,39.447,0,0,1-38.877,11.1A39.447,39.447,0,0,1,0,3.333,62.6,62.6,0,0,1,67.078,21.176Z" transform="translate(44.034 216.581)" fill="#fafafa" opacity="0.7"/>
      <path id="Trazado_146" data-name="Trazado 146" d="M34.562,22.114A17.576,17.576,0,1,1,32.785,8.763,17.576,17.576,0,0,1,34.562,22.114Z" transform="translate(68.335 180.038)" fill="#4984ff"/>
      <path id="Trazado_147" data-name="Trazado 147" d="M34.562,22.114A17.576,17.576,0,1,1,32.785,8.763,17.576,17.576,0,0,1,34.562,22.114Z" transform="translate(68.335 180.038)" fill="#fafafa" opacity="0.7"/>
      <path id="Trazado_148" data-name="Trazado 148" d="M52.326,0c-4.987,13.6-11.869,38.887-3.547,49.822,0,0-6.108,13.629-32.192,9.442-28.7-4.614-11.442-16.429-11.442-16.429,16.269-1.227,17.71-12.909,16.75-24.271Z" transform="translate(346.276 87.252)" fill="#fbd2cc"/>
      <path id="Trazado_149" data-name="Trazado 149" d="M0,12.929C1.467,10.448.16.767.16.767S41.66-2.3,56.17,3.834c7.761,3.28,0,17.1,0,17.1Z" transform="translate(345.419 121.691)" fill="#4984ff"/>
      <path id="Trazado_150" data-name="Trazado 150" d="M0,12.929C1.467,10.448.16.767.16.767S41.66-2.3,56.17,3.834c7.761,3.28,0,17.1,0,17.1Z" transform="translate(345.419 121.691)" fill="#80a9ff" opacity="0.1"/>
      <path id="Trazado_151" data-name="Trazado 151" d="M3.733,3.109c-.267,1.547-1.28,2.667-2.294,2.507S-.188,4.069.052,2.522,1.332-.145,2.346.015,3.893,1.562,3.733,3.109Z" transform="translate(347.02 60.246)" fill="#263238"/>
      <path id="Trazado_152" data-name="Trazado 152" d="M9.522,0A55.375,55.375,0,0,1,0,12.029,9.015,9.015,0,0,0,7.174,14.7Z" transform="translate(341.045 64.128)" fill="#fbd2cc"/>
      <path id="Trazado_153" data-name="Trazado 153" d="M6.88,6.294a.88.88,0,0,1-.827-.48A7.282,7.282,0,0,0,.719,1.84.933.933,0,0,1,.879,0a9.175,9.175,0,0,1,6.8,4.934.934.934,0,0,1-.373,1.254A.853.853,0,0,1,6.88,6.294Z" transform="translate(350.114 52.26)" fill="#263238"/>
      <path id="Trazado_154" data-name="Trazado 154" d="M19.257,47.875,0,45.288.907,0,20.163,2.587Z" transform="translate(210.382 629.104)" fill="#e4897b"/>
      <path id="Trazado_155" data-name="Trazado 155" d="M34.566,45.021H15.123L0,0H19.417Z" transform="translate(338.831 653.242)" fill="#e4897b"/>
      <path id="Trazado_156" data-name="Trazado 156" d="M30.334,0H54.044A1.733,1.733,0,0,1,55.7,1.333l3.841,17.283a2.854,2.854,0,0,1-2.854,3.441c-7.628-.133-13.176-.56-22.777-.56-5.921,0-18.083.613-26.244.613s-9.228-8-5.894-8.8C16.758,10.028,22.386,5.521,27.186,1.2A4.72,4.72,0,0,1,30.334,0Z" transform="translate(321.033 695.995)" fill="#263238"/>
      <path id="Trazado_157" data-name="Trazado 157" d="M46.362.046,67.406,2.874a1.68,1.68,0,0,1,1.44,1.547l1.494,17.63a2.827,2.827,0,0,1-3.227,3.041c-7.575-1.174-18.456-3.094-28-4.374-11.149-1.52-18.67-2.347-31.659-4.107-8-1.067-9.015-9.362-5.6-9.655C17.344,5.7,27.425,7.167,41.508.9A9.069,9.069,0,0,1,46.362.046Z" transform="translate(163.354 669.945)" fill="#263238"/>
      <path id="Trazado_158" data-name="Trazado 158" d="M.48,0,0,23.364l19.283,2.587.453-23.337Z" transform="translate(210.809 629.104)" fill="#ce6f64"/>
      <path id="Trazado_159" data-name="Trazado 159" d="M19.443,0H0L7.815,23.2H27.258Z" transform="translate(338.831 653.268)" fill="#ce6f64"/>
      <path id="Trazado_160" data-name="Trazado 160" d="M24.642,1.469S-5.95,56.545,1.038,167.764l102.977,13.9c2.854-15.709,3.334-94.176,28.645-166.615a267.477,267.477,0,0,0-33.9-9.015A377.94,377.94,0,0,0,54.994.109,194.244,194.244,0,0,0,24.642,1.469Z" transform="translate(296.773 130.564)" fill="#263238"/>
      <path id="Trazado_161" data-name="Trazado 161" d="M150.532,15.256c-4.267,7.388-8.8,14.536-13.336,21.79L123.408,58.383c-4.587,7.148-9.388,14.189-14.216,21.337-2.4,3.521-4.881,7.015-7.361,10.509L98.07,95.563c-1.387,1.894-3.014,4.054-4.561,5.841a151.625,151.625,0,0,1-20,19.043c-6.961,5.548-14.029,10.669-21.337,15.469A387.277,387.277,0,0,1,7.121,161.574L0,148.905c13.336-9.788,26.671-20.11,39.367-30.592,6.321-5.334,12.509-10.669,18.3-16.243A138.7,138.7,0,0,0,73.186,84.948,44.464,44.464,0,0,0,76.173,80.6l3.281-5.334L85.988,64.6,99.057,43.074l13.069-21.6c4.454-7.148,8.8-14.4,13.336-21.47Z" transform="translate(182.724 144.835)" fill="#fbd2cc"/>
      <path id="Trazado_162" data-name="Trazado 162" d="M79.507,23.629c-2.48,18.4-34.673,62.2-34.673,62.2L0,47.98S23.444,21.762,42.674,6.8,82.174,3.412,79.507,23.629Z" transform="translate(263.245 132.062)" fill="#263238"/>
      <path id="Trazado_163" data-name="Trazado 163" d="M16.776,0,0,5.708,16.8,23.231S27.045,22,26.111,7.868Z" transform="translate(175.603 288.193)" fill="#fbd2cc"/>
      <path id="Trazado_164" data-name="Trazado 164" d="M0,13.336l19.177,9.415,8.748-5.228L11.122,0Z" transform="translate(164.481 293.901)" fill="#fbd2cc"/>
      <path id="Trazado_165" data-name="Trazado 165" d="M57.4,32.363c-4.214,18.83-5.734,30.058-16.883,38.273-16.8,12.349-38.86,0-40.354-19.817C-1.2,33.083,5.923,5.292,25.766.7A26.3,26.3,0,0,1,57.4,32.363Z" transform="translate(346.271 34.032)" fill="#fbd2cc"/>
      <path id="Trazado_166" data-name="Trazado 166" d="M111.209,65.755a10.375,10.375,0,0,0-4.774-7.068c9.122-4,4.561-8.641-3.227-15.416h0C93.152,34.283,88.965,16.093,89.418,12.2c-3.174,4.828-2.32,11.949.373,18.35a44.167,44.167,0,0,1-8-12.535C74-1.536,57.173,15.56,40.93,16.12c-27.285.933-5.681-13.336,14.349-12.909C25.434-5.937-4.331,5.4.523,25.348s38.247-5.334,38.06,13.069c0,3.734,4.081,7.415,10.135,10.322-8.4,17.283,12.082,52.009,24,53.129s32.806-19.63,33.686-37.606a13.336,13.336,0,0,1,4.8,1.494Z" transform="translate(318.518 0)" fill="#263238"/>
      <path id="Trazado_168" data-name="Trazado 168" d="M87.942,368.783H52.256S5.261,248.949.274,186.778c-1.067-13.336,1.067-30.912,5.014-49.822,6.721-32.325,18.67-68.785,28.271-96.016C42.174,16.936,49.082,0,49.082,0l66.491,8.988c-6.534,48.248-59.29,124.981-59.9,190.966C55.163,260.818,87.942,368.783,87.942,368.783Z" transform="translate(285.162 303.182)" fill="#4984ff"/>
      <path id="Trazado_169" data-name="Trazado 169" d="M87.942,368.783H52.256S5.261,248.949.274,186.778c-1.067-13.336,1.067-30.912,5.014-49.822,6.721-32.325,18.67-68.785,28.271-96.016C42.174,16.936,49.082,0,49.082,0l66.491,8.988c-6.534,48.248-59.29,124.981-59.9,190.966C55.163,260.818,87.942,368.783,87.942,368.783Z" transform="translate(285.162 303.182)" fill="#80a9ff" opacity="0.1"/>
      <path id="Trazado_170" data-name="Trazado 170" d="M45.1,15.176C42.781,47.422,17.976,81.721,0,96.043,6.721,63.718,18.67,27.258,28.272.027,33.312-.586,41.287,9.362,45.1,15.176Z" transform="translate(290.529 344.095)" fill="#4984ff"/>
      <path id="Trazado_171" data-name="Trazado 171" d="M45.1,15.176C42.781,47.422,17.976,81.721,0,96.043,6.721,63.718,18.67,27.258,28.272.027,33.312-.586,41.287,9.362,45.1,15.176Z" transform="translate(290.529 344.095)" opacity="0.2"/>
      <path id="Trazado_172" data-name="Trazado 172" d="M99.269,0S7.84,121.754,2,180.671C-4.082,242.015,5.653,348.7,5.653,348.7l32.619,4.4s9.842-100.177,19.417-160.027C68.09,127.888,167.04,60.49,173.948,10.028Z" transform="translate(198.542 298.328)" fill="#4984ff"/>
      <path id="Trazado_173" data-name="Trazado 173" d="M99.269,0S7.84,121.754,2,180.671C-4.082,242.015,5.653,348.7,5.653,348.7l32.619,4.4s9.842-100.177,19.417-160.027C68.09,127.888,167.04,60.49,173.948,10.028Z" transform="translate(198.542 298.328)" fill="#80a9ff" opacity="0.1"/>
      <path id="Trazado_174" data-name="Trazado 174" d="M5.468,13.336H52.009V.8L0,0Z" transform="translate(325.735 659.403)" fill="#4984ff"/>
      <path id="Trazado_175" data-name="Trazado 175" d="M5.468,13.336H52.009V.8L0,0Z" transform="translate(325.735 659.403)" fill="#fafafa" opacity="0.4"/>
      <path id="Trazado_176" data-name="Trazado 176" d="M3.654,13.949l45.314,6.214,1.68-12.536L0,0Z" transform="translate(193.953 632.865)" fill="#4984ff"/>
      <path id="Trazado_177" data-name="Trazado 177" d="M3.654,13.949l45.314,6.214,1.68-12.536L0,0Z" transform="translate(193.953 632.865)" fill="#fafafa" opacity="0.4"/>
      <path id="Trazado_178" data-name="Trazado 178" d="M4.718,4.938A5.841,5.841,0,0,1,.984,3.925,2.667,2.667,0,0,1,.024,1.5,1.467,1.467,0,0,1,.824.191c2.134-1.067,8.428,2.667,9.122,3.2a.48.48,0,0,1,.213.453.427.427,0,0,1-.347.373,21.675,21.675,0,0,1-5.094.72ZM1.838.911a1.281,1.281,0,0,0-.587,0,.764.764,0,0,0-.293.533,1.893,1.893,0,0,0,.613,1.68,9.442,9.442,0,0,0,6.908.347A18.67,18.67,0,0,0,1.838.911Z" transform="translate(340.22 694.471)" fill="#4984ff"/>
      <path id="Trazado_179" data-name="Trazado 179" d="M5.736,8.747H5.523C3.5,7.653-.371,3.412.029,1.225A1.494,1.494,0,0,1,1.5.025,2.4,2.4,0,0,1,3.443.612C5.71,2.452,6.11,8.053,6.11,8.293A.4.4,0,0,1,5.9,8.72Zm-3.921-8H1.6c-.587,0-.64.347-.667.453C.7,2.479,3.176,5.706,5.176,7.227A11.2,11.2,0,0,0,2.883,1.145,1.6,1.6,0,0,0,1.816.852Z" transform="translate(344.19 689.969)" fill="#4984ff"/>
      <path id="Trazado_180" data-name="Trazado 180" d="M8.635,5.617c-3.041,0-6.668-.4-8-2.027a2.667,2.667,0,0,1-.56-2.347A1.6,1.6,0,0,1,1.007.123c2.507-.96,9.708,4,10.535,4.561a.48.48,0,0,1,.187.507.454.454,0,0,1-.427.32C10.555,5.564,9.6,5.617,8.635,5.617ZM1.754.923a1.068,1.068,0,0,0-.507,0A.507.507,0,0,0,.9,1.35,1.733,1.733,0,0,0,1.247,2.9c1.04,1.2,4.214,1.84,8.535,1.68A22.214,22.214,0,0,0,1.754.923Z" transform="translate(196.173 666.881)" fill="#4984ff"/>
      <path id="Trazado_181" data-name="Trazado 181" d="M5.883,9.335h-.24C3.455,7.975-.572,3.2.068,1.067.2.587.628,0,1.8,0h.133A3.493,3.493,0,0,1,4.362,1.147,13.069,13.069,0,0,1,6.336,8.962a.426.426,0,0,1-.24.4ZM1.8.853c-.747,0-.827.293-.853.4-.4,1.28,2.294,4.961,4.481,6.721A10.884,10.884,0,0,0,3.669,1.68,2.4,2.4,0,0,0,1.908.853Z" transform="translate(201.486 663.083)" fill="#4984ff"/>
      <path id="Trazado_604" data-name="Trazado 604" d="M2.964,0S-.275,5.6.019,10.012,17.548,35.89,21.3,30.663s6.693-8.871,5.81-14.466S16.51,2.945,16.51,2.945Z" transform="translate(342.589 67.138) rotate(16)" fill="#93ade5" stroke="#fff" stroke-width="1"/>
      <path id="Trazado_605" data-name="Trazado 605" d="M3.485,0,0,15.857l8.887,8.887,6.1-7.841Z" transform="translate(361.965 59.539) rotate(16)" fill="none" stroke="#fff" stroke-width="1"/>
      <path id="Trazado_167" data-name="Trazado 167" d="M18.139,10.741A18.456,18.456,0,0,1,9.818,22C4.27,25.25-.13,20.716,0,14.608.136,9.141,3.2.819,9.418.046a8.241,8.241,0,0,1,8.722,10.7Z" transform="translate(361.886 58.033)" fill="#fbd2cc"/>
    </g>
  </g>
</svg>
