<svg xmlns="http://www.w3.org/2000/svg" width="289.248" height="410.265" viewBox="0 0 289.248 410.265">
  <g id="publish-menu" transform="translate(4.068 -3.533) rotate(1)">
    <path id="Trazado_129" data-name="Trazado 129" d="M11.121,0,0,5.781l12.46,9.68s8.375-7.019,5.086-11.867Z" transform="translate(259.515 196.152)" fill="#e4897b"/>
    <path id="Trazado_130" data-name="Trazado 130" d="M0,11.782l10.629,7.391L18.818,9.68,6.357,0Z" transform="translate(253.158 201.933)" fill="#e4897b"/>
    <path id="Sustracción_10" data-name="Sustracción 10" d="M-1913.38,1832.993h0l-7.8-5.085c4.227-8.817,7.7-16.58,10.613-23.734a117.434,117.434,0,0,0,4.086-11.749,39.137,39.137,0,0,0,1.2-5.459,9.956,9.956,0,0,0,0-3.628l-.136-.339-.559-1.407-.109-.285c-.325-.853-.632-1.658-1.027-2.5l-1.221-2.78-1.339-2.8c-1.845-3.679-3.852-7.386-5.967-11.019-1.776-2.993-4.152-6.928-6.781-10.816-.78-1.153-1.582-2.348-2.29-3.4-1.661-2.473-3.229-4.808-4.779-7.041l15-11.342c1.6,2.1,2.88,3.87,4.153,5.747,1.407,2.075,2.661,3.961,3.831,5.764.528.831,1.053,1.673,1.562,2.5l1.325,75.913c-3.027,4.62-6.313,9.147-9.769,13.453Z" transform="translate(2189.425 -1629.603)" fill="#fbd2cc"/>
    <path id="Sustracción_11" data-name="Sustracción 11" d="M-1914.567,1775.218h0l0,0c-.071-.155-1.775-3.844-4.05-9l-.3-.663c-1.836-4.078-4.12-9.153-6.38-14.255-.745-1.672-1.481-3.348-2.194-4.969l-.655-1.49a25.224,25.224,0,0,1-2.348-10.174,14.145,14.145,0,0,1,2.164-7.812c2.356-3.607,6.419-5.593,11.442-5.593a21.108,21.108,0,0,1,3.084.235c3.723.557,8.216,4.283,13.354,11.075l.565,32.352-14.681,10.3Z" transform="translate(2184.746 -1629.603)" fill="#263238"/>
    <path id="Trazado_133" data-name="Trazado 133" d="M8.019,0c.542,5.255.593,21.513-1.339,30.956C4.764,26.7,2.373,21.395,0,16.037Z" transform="translate(259.447 105.657)" fill="#4984ff"/>
    <path id="Trazado_134" data-name="Trazado 134" d="M8.019,0c.542,5.255.593,21.513-1.339,30.956C4.764,26.7,2.373,21.395,0,16.037Z" transform="translate(259.447 105.657)" fill="#4984ff" opacity="0.8"/>
    <g id="Grupo_24" data-name="Grupo 24" transform="translate(259.447 105.657)" opacity="0.8">
      <path id="Trazado_135" data-name="Trazado 135" d="M8.019,0c.542,5.255.593,21.513-1.339,30.956C4.764,26.7,2.373,21.395,0,16.037Z" transform="translate(0 0)"/>
      <path id="Trazado_136" data-name="Trazado 136" d="M8.019,0c.542,5.255.593,21.513-1.339,30.956C4.764,26.7,2.373,21.395,0,16.037Z" transform="translate(0 0)" opacity="0.8"/>
    </g>
    <path id="Sustracción_17" data-name="Sustracción 17" d="M-1642.331,1881.6h0l-275.325-73.24a15.167,15.167,0,0,1-9.179-7.068,15.17,15.17,0,0,1-1.569-11.479l14.139-53.164a15.112,15.112,0,0,1,5.537-8.127,15.356,15.356,0,0,1,9.159-3.065,15.31,15.31,0,0,1,3.851.495l251.84,66.979,1.548,88.669Z" transform="translate(1928.896 -1648.653)" fill="#4984ff"/>
    <path id="Sustracción_16" data-name="Sustracción 16" d="M-1642.331,1881.6h0l-275.325-73.24a15.167,15.167,0,0,1-9.179-7.068,15.17,15.17,0,0,1-1.569-11.479l14.139-53.164a15.112,15.112,0,0,1,5.537-8.127,15.356,15.356,0,0,1,9.159-3.065,15.31,15.31,0,0,1,3.851.495l251.84,66.979,1.548,88.669Z" transform="translate(1928.896 -1648.653)" fill="#fafafa" opacity="0.8"/>
    <path id="Sustracción_15" data-name="Sustracción 15" d="M-1644.713,1881.024h0l-272.848-72.663a15.167,15.167,0,0,1-9.19-7.063,15.167,15.167,0,0,1-1.575-11.483l14.155-53.148a15.112,15.112,0,0,1,5.528-8.171,15.351,15.351,0,0,1,9.184-3.084,15.312,15.312,0,0,1,3.834.49l249.362,66.337,1.55,88.786Z" transform="translate(1931.344 -1644.282)" fill="#4984ff"/>
    <path id="Sustracción_14" data-name="Sustracción 14" d="M-1644.713,1881.024h0l-272.848-72.663a15.167,15.167,0,0,1-9.19-7.063,15.167,15.167,0,0,1-1.575-11.483l14.155-53.148a15.112,15.112,0,0,1,5.528-8.171,15.351,15.351,0,0,1,9.184-3.084,15.312,15.312,0,0,1,3.834.49l249.362,66.337,1.55,88.786Z" transform="translate(1931.344 -1644.282)" fill="#fafafa" opacity="0.4"/>
    <path id="Sustracción_13" data-name="Sustracción 13" d="M-1647.117,1880.248h0l-270.369-71.926a15.167,15.167,0,0,1-9.19-7.063,15.167,15.167,0,0,1-1.575-11.483l14.138-53.165a15.111,15.111,0,0,1,5.53-8.163,15.355,15.355,0,0,1,9.18-3.08,15.311,15.311,0,0,1,3.854.5l246.883,65.664,1.548,88.721Z" transform="translate(1933.812 -1639.853)" fill="#4984ff"/>
    <path id="Sustracción_12" data-name="Sustracción 12" d="M-1647.117,1880.248h0l-270.369-71.926a15.167,15.167,0,0,1-9.19-7.063,15.167,15.167,0,0,1-1.575-11.483l14.138-53.165a15.111,15.111,0,0,1,5.53-8.163,15.355,15.355,0,0,1,9.18-3.08,15.311,15.311,0,0,1,3.854.5l246.883,65.664,1.548,88.721Z" transform="translate(1933.812 -1639.853)" opacity="0.2"/>
    <path id="Sustracción_18" data-name="Sustracción 18" d="M-1746.731,1817.764l-182.193-48.477a1.914,1.914,0,0,1-1.354-2.337l2.34-8.792a1.91,1.91,0,0,1,1.843-1.419,1.914,1.914,0,0,1,.493.065l178.637,47.531.234,13.429Z" transform="translate(2032.374 -1637.603)" fill="#fafafa" opacity="0.7"/>
    <rect id="Rectángulo_137" data-name="Rectángulo 137" width="130.317" height="12.918" rx="1.91" transform="matrix(0.966, 0.257, -0.257, 0.966, 99.336, 139.748)" fill="#4984ff"/>
    <rect id="Rectángulo_138" data-name="Rectángulo 138" width="130.317" height="12.918" rx="1.91" transform="matrix(0.966, 0.257, -0.257, 0.966, 99.336, 139.748)" fill="#fafafa" opacity="0.7"/>
    <rect id="Rectángulo_139" data-name="Rectángulo 139" width="184.227" height="4.865" rx="1.04" transform="matrix(0.966, 0.257, -0.257, 0.966, 93.734, 160.79)" fill="#fafafa"/>
    <circle id="Elipse_13" data-name="Elipse 13" cx="30.355" cy="30.355" r="30.355" transform="matrix(0.571, -0.821, 0.821, 0.571, 8.974, 140.296)" fill="#4984ff"/>
    <path id="Trazado_143" data-name="Trazado 143" d="M49.343,31.55a24.938,24.938,0,1,1-2.485-19.07,25.09,25.09,0,0,1,2.485,19.07Z" transform="translate(27.301 108.81)" fill="#fafafa"/>
    <path id="Trazado_144" data-name="Trazado 144" d="M42.654,13.46a25.074,25.074,0,0,1-24.711,7.057A25.073,25.073,0,0,1,0,2.119,39.789,39.789,0,0,1,42.637,13.46Z" transform="translate(27.989 137.665)" fill="#4984ff"/>
    <path id="Trazado_145" data-name="Trazado 145" d="M42.654,13.46a25.074,25.074,0,0,1-24.711,7.057A25.073,25.073,0,0,1,0,2.119,39.789,39.789,0,0,1,42.637,13.46Z" transform="translate(27.989 137.665)" fill="#fafafa" opacity="0.7"/>
    <path id="Trazado_146" data-name="Trazado 146" d="M21.969,14.056a11.172,11.172,0,1,1-1.13-8.486A11.172,11.172,0,0,1,21.969,14.056Z" transform="translate(43.436 114.437)" fill="#4984ff"/>
    <path id="Trazado_147" data-name="Trazado 147" d="M21.969,14.056a11.172,11.172,0,1,1-1.13-8.486A11.172,11.172,0,0,1,21.969,14.056Z" transform="translate(43.436 114.437)" fill="#fafafa" opacity="0.7"/>
    <path id="Trazado_148" data-name="Trazado 148" d="M33.259,0C30.089,8.646,25.715,24.717,31,31.668c0,0-3.882,8.663-20.462,6C-7.7,34.737,3.27,27.226,3.27,27.226c10.341-.78,11.257-8.205,10.646-15.427Z" transform="translate(220.102 55.46)" fill="#fbd2cc"/>
    <path id="Trazado_149" data-name="Trazado 149" d="M0,8.218C.932,6.641.1.487.1.487s26.379-1.95,35.6,1.95c4.933,2.085,0,10.867,0,10.867Z" transform="translate(219.557 77.35)" fill="#4984ff"/>
    <path id="Trazado_150" data-name="Trazado 150" d="M0,8.218C.932,6.641.1.487.1.487s26.379-1.95,35.6,1.95c4.933,2.085,0,10.867,0,10.867Z" transform="translate(219.557 77.35)" fill="#80a9ff" opacity="0.1"/>
    <path id="Trazado_151" data-name="Trazado 151" d="M2.373,1.976c-.17.983-.814,1.7-1.458,1.594S-.12,2.587.033,1.6.847-.092,1.491.01,2.474.993,2.373,1.976Z" transform="translate(220.575 38.294)" fill="#263238"/>
    <path id="Trazado_152" data-name="Trazado 152" d="M6.052,0A35.2,35.2,0,0,1,0,7.646a5.73,5.73,0,0,0,4.56,1.7Z" transform="translate(216.777 40.762)" fill="#fbd2cc"/>
    <path id="Trazado_153" data-name="Trazado 153" d="M4.373,4A.559.559,0,0,1,3.848,3.7,4.628,4.628,0,0,0,.457,1.17.593.593,0,0,1,.559,0,5.832,5.832,0,0,1,4.882,3.136a.593.593,0,0,1-.237.8A.542.542,0,0,1,4.373,4Z" transform="translate(222.541 33.218)" fill="#263238"/>
    <path id="Trazado_160" data-name="Trazado 160" d="M15.663.934s-19.445,35.008-15,105.7l65.455,8.832c1.814-9.985,2.119-59.861,18.207-105.9a170.015,170.015,0,0,0-21.547-5.73A240.229,240.229,0,0,0,34.955.069,123.467,123.467,0,0,0,15.663.934Z" transform="translate(188.637 82.99)" fill="#263238"/>
    <path id="Trazado_161" data-name="Trazado 161" d="M95.682,9.7c-2.712,4.7-5.594,9.239-8.476,13.851L78.441,37.11c-2.916,4.543-5.967,9.019-9.036,13.562-1.526,2.238-3.1,4.459-4.679,6.679l-2.39,3.391c-.882,1.2-1.916,2.577-2.9,3.713a96.376,96.376,0,0,1-12.715,12.1C42.3,80.086,37.8,83.341,33.16,86.392A246.164,246.164,0,0,1,4.526,102.7L0,94.648C8.476,88.426,16.953,81.866,25.023,75.2c4.018-3.391,7.951-6.781,11.63-10.324A88.159,88.159,0,0,0,46.519,54a28.263,28.263,0,0,0,1.9-2.763L50.5,47.841l4.153-6.781,8.307-13.681L71.27,13.647C74.1,9.1,76.865,4.493,79.746,0Z" transform="translate(116.144 92.061)" fill="#fbd2cc"/>
    <path id="Trazado_162" data-name="Trazado 162" d="M50.537,15.019C48.96,26.717,28.5,54.553,28.5,54.553L0,30.5S14.9,13.832,27.125,4.322,52.232,2.169,50.537,15.019Z" transform="translate(167.325 83.942)" fill="#263238"/>
    <path id="Trazado_163" data-name="Trazado 163" d="M10.663,0,0,3.628,10.68,14.766S17.19,13.986,16.6,5Z" transform="translate(111.618 183.183)" fill="#fbd2cc"/>
    <path id="Trazado_164" data-name="Trazado 164" d="M0,8.476l12.189,5.984,5.561-3.323L7.069,0Z" transform="translate(104.549 186.811)" fill="#fbd2cc"/>
    <path id="Trazado_165" data-name="Trazado 165" d="M36.484,20.571C33.805,32.539,32.839,39.677,25.752,44.9c-10.68,7.849-24.7,0-25.65-12.6C-.762,21.028,3.765,3.364,16.377.448A16.716,16.716,0,0,1,36.484,20.571Z" transform="translate(220.099 21.632)" fill="#fbd2cc"/>
    <path id="Trazado_166" data-name="Trazado 166" d="M70.687,41.8A6.594,6.594,0,0,0,67.653,37.3c5.8-2.543,2.9-5.493-2.051-9.8h0c-6.391-5.713-9.053-17.275-8.765-19.75-2.017,3.068-1.475,7.595.237,11.664a28.074,28.074,0,0,1-5.086-7.968c-4.95-12.426-15.648-1.56-25.972-1.2-17.343.593-3.611-8.476,9.121-8.205C16.166-3.774-2.753,3.431.332,16.112s24.31-3.391,24.192,8.307c0,2.373,2.594,4.713,6.442,6.561-5.34,10.985,7.68,33.058,15.258,33.77s20.852-12.477,21.412-23.9a8.477,8.477,0,0,1,3.052.949Z" transform="translate(202.458 0)" fill="#263238"/>
    <path id="Sustracción_22" data-name="Sustracción 22" d="M-1899.532,1937.483h0c-4.214-11.744-10.327-29.526-15.523-47.545-5.92-20.533-9.407-36.989-10.364-48.91-.63-7.867.443-18.521,3.187-31.667,1.924-9.255,4.716-19.931,8.3-31.73,2.752-9.063,5.915-18.648,9.672-29.3,5.418-15.1,9.823-25.915,9.867-26.023l42.263,5.713c-1.732,12.788-8.656,28.92-15.988,46-10.247,23.873-21.861,50.931-22.089,75.384-.217,26.064,9.31,66.106,15.008,87.654l-24.332.425Z" transform="translate(2106.849 -1529.597)" fill="#4984ff"/>
    <path id="Sustracción_21" data-name="Sustracción 21" d="M-1899.532,1937.483h0c-4.214-11.744-10.327-29.526-15.523-47.545-5.92-20.533-9.407-36.989-10.364-48.91-.63-7.867.443-18.521,3.187-31.667,1.924-9.255,4.716-19.931,8.3-31.73,2.752-9.063,5.915-18.648,9.672-29.3,5.418-15.1,9.823-25.915,9.867-26.023l42.263,5.713c-1.732,12.788-8.656,28.92-15.988,46-10.247,23.873-21.861,50.931-22.089,75.384-.217,26.064,9.31,66.106,15.008,87.654l-24.332.425Z" transform="translate(2106.849 -1529.597)" fill="#80a9ff" opacity="0.1"/>
    <path id="Trazado_170" data-name="Trazado 170" d="M28.667,9.646c-1.475,20.5-17.241,42.3-28.667,51.4C4.272,40.5,11.867,17.326,17.97.017,21.174-.373,26.243,5.951,28.667,9.646Z" transform="translate(184.668 218.716)" fill="#4984ff"/>
    <path id="Trazado_171" data-name="Trazado 171" d="M28.667,9.646c-1.475,20.5-17.241,42.3-28.667,51.4C4.272,40.5,11.867,17.326,17.97.017,21.174-.373,26.243,5.951,28.667,9.646Z" transform="translate(184.668 218.716)" opacity="0.2"/>
    <path id="Sustracción_20" data-name="Sustracción 20" d="M-1922.372,1943.371h0c-.422-4.9-1.867-22.508-2.746-43.166-1.115-26.21-.927-47.1.559-62.1.847-8.542,4.624-19.895,11.227-33.742a390.514,390.514,0,0,1,21.079-37.721c14.819-23.75,29.376-43.183,29.521-43.376l47.469,6.374c-2.073,15.14-17.216,32.72-33.249,51.333-18.268,21.209-37.158,43.138-40.649,65.015-5.11,31.944-10.377,82.328-11.869,97.009l-21.34.372Z" transform="translate(2052.028 -1533.643)" fill="#4984ff"/>
    <path id="Sustracción_19" data-name="Sustracción 19" d="M-1922.372,1943.371h0c-.422-4.9-1.867-22.508-2.746-43.166-1.115-26.21-.927-47.1.559-62.1.847-8.542,4.624-19.895,11.227-33.742a390.491,390.491,0,0,1,21.079-37.721c14.808-23.734,29.376-43.182,29.521-43.376l47.469,6.374c-2.073,15.14-17.216,32.72-33.249,51.333-18.268,21.208-37.158,43.138-40.649,65.015-5.11,31.942-10.376,82.327-11.869,97.009l-21.34.373Z" transform="translate(2052.028 -1533.643)" fill="#80a9ff" opacity="0.1"/>
    <path id="Trazado_604" data-name="Trazado 604" d="M1.884,0S-.175,3.556.012,6.364,11.154,22.813,13.54,19.49s4.254-5.639,3.693-9.2-6.738-8.423-6.738-8.423Z" transform="translate(217.758 42.675) rotate(16)" fill="#93ade5" stroke="#fff" stroke-width="1"/>
    <path id="Trazado_605" data-name="Trazado 605" d="M2.215,0,0,10.079l5.649,5.649,3.876-4.984Z" transform="translate(230.074 37.845) rotate(16)" fill="none" stroke="#fff" stroke-width="1"/>
    <path id="Trazado_167" data-name="Trazado 167" d="M11.53,6.827a11.731,11.731,0,0,1-5.289,7.154C2.714,16.05-.083,13.168,0,9.285.087,5.81,2.036.521,5.986.029a5.238,5.238,0,0,1,5.544,6.8Z" transform="translate(230.024 36.887)" fill="#fbd2cc"/>
  </g>
</svg>
